%TF.GenerationSoftware,KiCad,Pcbnew,(6.0.7)*%
%TF.CreationDate,2023-07-07T11:40:33-04:00*%
%TF.ProjectId,small_wind_turbine,736d616c-6c5f-4776-996e-645f74757262,rev?*%
%TF.SameCoordinates,Original*%
%TF.FileFunction,Copper,L1,Top*%
%TF.FilePolarity,Positive*%
%FSLAX46Y46*%
G04 Gerber Fmt 4.6, Leading zero omitted, Abs format (unit mm)*
G04 Created by KiCad (PCBNEW (6.0.7)) date 2023-07-07 11:40:33*
%MOMM*%
%LPD*%
G01*
G04 APERTURE LIST*
G04 Aperture macros list*
%AMRoundRect*
0 Rectangle with rounded corners*
0 $1 Rounding radius*
0 $2 $3 $4 $5 $6 $7 $8 $9 X,Y pos of 4 corners*
0 Add a 4 corners polygon primitive as box body*
4,1,4,$2,$3,$4,$5,$6,$7,$8,$9,$2,$3,0*
0 Add four circle primitives for the rounded corners*
1,1,$1+$1,$2,$3*
1,1,$1+$1,$4,$5*
1,1,$1+$1,$6,$7*
1,1,$1+$1,$8,$9*
0 Add four rect primitives between the rounded corners*
20,1,$1+$1,$2,$3,$4,$5,0*
20,1,$1+$1,$4,$5,$6,$7,0*
20,1,$1+$1,$6,$7,$8,$9,0*
20,1,$1+$1,$8,$9,$2,$3,0*%
G04 Aperture macros list end*
%TA.AperFunction,SMDPad,CuDef*%
%ADD10RoundRect,0.250000X0.262500X0.450000X-0.262500X0.450000X-0.262500X-0.450000X0.262500X-0.450000X0*%
%TD*%
%TA.AperFunction,SMDPad,CuDef*%
%ADD11R,5.000000X4.500000*%
%TD*%
%TA.AperFunction,SMDPad,CuDef*%
%ADD12R,1.300000X1.600000*%
%TD*%
%TA.AperFunction,SMDPad,CuDef*%
%ADD13RoundRect,0.250000X0.475000X-0.250000X0.475000X0.250000X-0.475000X0.250000X-0.475000X-0.250000X0*%
%TD*%
%TA.AperFunction,SMDPad,CuDef*%
%ADD14RoundRect,0.218750X0.218750X0.256250X-0.218750X0.256250X-0.218750X-0.256250X0.218750X-0.256250X0*%
%TD*%
%TA.AperFunction,ComponentPad*%
%ADD15R,2.000000X1.905000*%
%TD*%
%TA.AperFunction,ComponentPad*%
%ADD16O,2.000000X1.905000*%
%TD*%
%TA.AperFunction,ComponentPad*%
%ADD17R,2.500000X2.500000*%
%TD*%
%TA.AperFunction,ComponentPad*%
%ADD18O,2.500000X2.500000*%
%TD*%
%TA.AperFunction,SMDPad,CuDef*%
%ADD19RoundRect,0.250000X-0.250000X-0.475000X0.250000X-0.475000X0.250000X0.475000X-0.250000X0.475000X0*%
%TD*%
%TA.AperFunction,SMDPad,CuDef*%
%ADD20R,2.000000X1.100000*%
%TD*%
%TA.AperFunction,SMDPad,CuDef*%
%ADD21R,0.800000X1.000000*%
%TD*%
%TA.AperFunction,ComponentPad*%
%ADD22R,1.600000X1.600000*%
%TD*%
%TA.AperFunction,ComponentPad*%
%ADD23C,1.600000*%
%TD*%
%TA.AperFunction,ComponentPad*%
%ADD24C,2.032000*%
%TD*%
%TA.AperFunction,SMDPad,CuDef*%
%ADD25RoundRect,0.250000X-0.262500X-0.450000X0.262500X-0.450000X0.262500X0.450000X-0.262500X0.450000X0*%
%TD*%
%TA.AperFunction,SMDPad,CuDef*%
%ADD26RoundRect,0.218750X-0.218750X-0.256250X0.218750X-0.256250X0.218750X0.256250X-0.218750X0.256250X0*%
%TD*%
%TA.AperFunction,ComponentPad*%
%ADD27R,1.700000X1.700000*%
%TD*%
%TA.AperFunction,ComponentPad*%
%ADD28O,1.700000X1.700000*%
%TD*%
%TA.AperFunction,SMDPad,CuDef*%
%ADD29RoundRect,0.250000X-0.450000X0.262500X-0.450000X-0.262500X0.450000X-0.262500X0.450000X0.262500X0*%
%TD*%
%TA.AperFunction,ComponentPad*%
%ADD30R,2.550000X2.550000*%
%TD*%
%TA.AperFunction,ComponentPad*%
%ADD31C,2.550000*%
%TD*%
%TA.AperFunction,SMDPad,CuDef*%
%ADD32RoundRect,0.150000X-0.512500X-0.150000X0.512500X-0.150000X0.512500X0.150000X-0.512500X0.150000X0*%
%TD*%
%TA.AperFunction,SMDPad,CuDef*%
%ADD33RoundRect,0.250000X0.312500X0.625000X-0.312500X0.625000X-0.312500X-0.625000X0.312500X-0.625000X0*%
%TD*%
%TA.AperFunction,SMDPad,CuDef*%
%ADD34RoundRect,0.250000X-0.475000X0.250000X-0.475000X-0.250000X0.475000X-0.250000X0.475000X0.250000X0*%
%TD*%
%TA.AperFunction,SMDPad,CuDef*%
%ADD35RoundRect,0.150000X-0.825000X-0.150000X0.825000X-0.150000X0.825000X0.150000X-0.825000X0.150000X0*%
%TD*%
%TA.AperFunction,SMDPad,CuDef*%
%ADD36RoundRect,0.150000X0.150000X-0.825000X0.150000X0.825000X-0.150000X0.825000X-0.150000X-0.825000X0*%
%TD*%
%TA.AperFunction,SMDPad,CuDef*%
%ADD37RoundRect,0.250000X0.250000X0.475000X-0.250000X0.475000X-0.250000X-0.475000X0.250000X-0.475000X0*%
%TD*%
%TA.AperFunction,SMDPad,CuDef*%
%ADD38RoundRect,0.250000X0.450000X-0.262500X0.450000X0.262500X-0.450000X0.262500X-0.450000X-0.262500X0*%
%TD*%
%TA.AperFunction,ComponentPad*%
%ADD39R,2.400000X2.400000*%
%TD*%
%TA.AperFunction,ComponentPad*%
%ADD40C,2.400000*%
%TD*%
%TA.AperFunction,SMDPad,CuDef*%
%ADD41R,3.000000X14.000000*%
%TD*%
%TA.AperFunction,SMDPad,CuDef*%
%ADD42RoundRect,0.150000X-0.150000X0.825000X-0.150000X-0.825000X0.150000X-0.825000X0.150000X0.825000X0*%
%TD*%
%TA.AperFunction,ComponentPad*%
%ADD43C,3.500000*%
%TD*%
%TA.AperFunction,SMDPad,CuDef*%
%ADD44R,1.500000X2.000000*%
%TD*%
%TA.AperFunction,SMDPad,CuDef*%
%ADD45R,3.800000X2.000000*%
%TD*%
%TA.AperFunction,ComponentPad*%
%ADD46C,2.250000*%
%TD*%
%TA.AperFunction,SMDPad,CuDef*%
%ADD47RoundRect,0.150000X-0.150000X0.512500X-0.150000X-0.512500X0.150000X-0.512500X0.150000X0.512500X0*%
%TD*%
%TA.AperFunction,SMDPad,CuDef*%
%ADD48RoundRect,0.150000X0.512500X0.150000X-0.512500X0.150000X-0.512500X-0.150000X0.512500X-0.150000X0*%
%TD*%
%TA.AperFunction,SMDPad,CuDef*%
%ADD49RoundRect,0.150000X0.150000X-0.587500X0.150000X0.587500X-0.150000X0.587500X-0.150000X-0.587500X0*%
%TD*%
%TA.AperFunction,ViaPad*%
%ADD50C,1.524000*%
%TD*%
%TA.AperFunction,ViaPad*%
%ADD51C,0.508000*%
%TD*%
%TA.AperFunction,Conductor*%
%ADD52C,0.200000*%
%TD*%
%TA.AperFunction,Conductor*%
%ADD53C,0.508000*%
%TD*%
G04 APERTURE END LIST*
D10*
%TO.P,R10,1*%
%TO.N,+3V3*%
X80612500Y-92500000D03*
%TO.P,R10,2*%
%TO.N,/WEMOS_SDA*%
X78787500Y-92500000D03*
%TD*%
D11*
%TO.P,Dbs1,1,K*%
%TO.N,Net-(Cbs1-Pad1)*%
X95900000Y-79300000D03*
D12*
%TO.P,Dbs1,2,A*%
%TO.N,+12V*%
X92150000Y-78315000D03*
X92150000Y-80285000D03*
%TD*%
D13*
%TO.P,C18,1*%
%TO.N,+5V*%
X54732500Y-93650000D03*
%TO.P,C18,2*%
%TO.N,GND*%
X54732500Y-91750000D03*
%TD*%
D14*
%TO.P,D11,1,K*%
%TO.N,GND*%
X123187500Y-84100000D03*
%TO.P,D11,2,A*%
%TO.N,Net-(D11-Pad2)*%
X121612500Y-84100000D03*
%TD*%
D10*
%TO.P,R6,1*%
%TO.N,Net-(R6-Pad1)*%
X58612500Y-80250000D03*
%TO.P,R6,2*%
%TO.N,Net-(J3-Pad2)*%
X56787500Y-80250000D03*
%TD*%
D15*
%TO.P,Qbuck1,1,G*%
%TO.N,/HIGH_SIDE_GATE_DRIVE*%
X104395000Y-71065000D03*
D16*
%TO.P,Qbuck1,2,S*%
%TO.N,/RECTIFIER_VDD*%
X104395000Y-68525000D03*
%TO.P,Qbuck1,3,D*%
%TO.N,/GATE_SOURCE*%
X104395000Y-65985000D03*
%TD*%
D10*
%TO.P,R14,1*%
%TO.N,/RELAY_DRIVE*%
X127700000Y-34900000D03*
%TO.P,R14,2*%
%TO.N,Net-(D8-Pad2)*%
X125875000Y-34900000D03*
%TD*%
D17*
%TO.P,K1,1*%
%TO.N,/RECTIFIER_LED*%
X106000000Y-45535000D03*
D18*
%TO.P,K1,2*%
%TO.N,+12V*%
X108000000Y-39535000D03*
%TO.P,K1,3*%
%TO.N,Net-(K1-Pad3)*%
X120200000Y-39535000D03*
%TO.P,K1,4*%
%TO.N,Net-(Jres1-Pad1)*%
X120200000Y-51535000D03*
%TO.P,K1,5*%
%TO.N,Net-(D13-Pad2)*%
X108000000Y-51535000D03*
%TD*%
D19*
%TO.P,C15,1*%
%TO.N,+12V*%
X45900000Y-70750000D03*
%TO.P,C15,2*%
%TO.N,GND*%
X47800000Y-70750000D03*
%TD*%
D14*
%TO.P,D7,1,K*%
%TO.N,GND*%
X49550000Y-89800000D03*
%TO.P,D7,2,A*%
%TO.N,Net-(D7-Pad2)*%
X47975000Y-89800000D03*
%TD*%
D10*
%TO.P,R4,1*%
%TO.N,/BATTERY_POSITIVE*%
X66825000Y-72400000D03*
%TO.P,R4,2*%
%TO.N,Net-(R4-Pad2)*%
X65000000Y-72400000D03*
%TD*%
D14*
%TO.P,D9,1,K*%
%TO.N,GND*%
X123187500Y-78100000D03*
%TO.P,D9,2,A*%
%TO.N,Net-(D9-Pad2)*%
X121612500Y-78100000D03*
%TD*%
D20*
%TO.P,D13,1,K*%
%TO.N,+12V*%
X113000000Y-34900000D03*
D21*
%TO.P,D13,2,A*%
%TO.N,Net-(D13-Pad2)*%
X114900000Y-34900000D03*
%TD*%
D10*
%TO.P,R13,1*%
%TO.N,+5V*%
X49700000Y-88000000D03*
%TO.P,R13,2*%
%TO.N,Net-(D7-Pad2)*%
X47875000Y-88000000D03*
%TD*%
D22*
%TO.P,Cinput1,1*%
%TO.N,/RECTIFIER_VDD*%
X112000000Y-58535000D03*
D23*
%TO.P,Cinput1,2*%
%TO.N,GND*%
X114500000Y-58535000D03*
%TD*%
D24*
%TO.P,TP11,1,1*%
%TO.N,Net-(J1-Pad2)*%
X63700000Y-89175000D03*
%TO.P,TP11,2,2*%
%TO.N,GND*%
X63700000Y-92985000D03*
%TD*%
D25*
%TO.P,Rc1,1*%
%TO.N,/UC2844_FB*%
X74737500Y-86700000D03*
%TO.P,Rc1,2*%
%TO.N,Net-(Cc1-Pad1)*%
X76562500Y-86700000D03*
%TD*%
D19*
%TO.P,C6,1*%
%TO.N,+12V*%
X87850000Y-83778792D03*
%TO.P,C6,2*%
%TO.N,GND*%
X89750000Y-83778792D03*
%TD*%
D24*
%TO.P,TP9,1,1*%
%TO.N,Net-(TP9-Pad1)*%
X50600000Y-72200000D03*
%TO.P,TP9,2,2*%
%TO.N,GND*%
X50600000Y-68390000D03*
%TD*%
D26*
%TO.P,D8,1,K*%
%TO.N,GND*%
X122087500Y-34900000D03*
%TO.P,D8,2,A*%
%TO.N,Net-(D8-Pad2)*%
X123662500Y-34900000D03*
%TD*%
D24*
%TO.P,TP3,1,1*%
%TO.N,/UC2844_GATE_OUTPUT*%
X88100000Y-89850000D03*
%TO.P,TP3,2,2*%
%TO.N,GND*%
X88100000Y-93660000D03*
%TD*%
D13*
%TO.P,C7,1*%
%TO.N,+5V*%
X63200000Y-74450000D03*
%TO.P,C7,2*%
%TO.N,GND*%
X63200000Y-72550000D03*
%TD*%
D25*
%TO.P,R5,1*%
%TO.N,Net-(R4-Pad2)*%
X65012500Y-74400000D03*
%TO.P,R5,2*%
%TO.N,GND*%
X66837500Y-74400000D03*
%TD*%
%TO.P,R8,1*%
%TO.N,Net-(R8-Pad1)*%
X66600000Y-84350000D03*
%TO.P,R8,2*%
%TO.N,Net-(R8-Pad2)*%
X68425000Y-84350000D03*
%TD*%
D24*
%TO.P,TP10,1,1*%
%TO.N,/UC2844_ISENSE*%
X84600000Y-89850000D03*
%TO.P,TP10,2,2*%
%TO.N,GND*%
X84600000Y-93660000D03*
%TD*%
%TO.P,TP1,1,1*%
%TO.N,Net-(D1-Pad1)*%
X68500000Y-34350000D03*
%TO.P,TP1,2,2*%
%TO.N,GND*%
X64690000Y-34350000D03*
%TD*%
D13*
%TO.P,C2,1*%
%TO.N,+12V*%
X83700000Y-79500000D03*
%TO.P,C2,2*%
%TO.N,GND*%
X83700000Y-77600000D03*
%TD*%
D19*
%TO.P,Cc1,1*%
%TO.N,Net-(Cc1-Pad1)*%
X78200000Y-86700000D03*
%TO.P,Cc1,2*%
%TO.N,/UC2844_COMP*%
X80100000Y-86700000D03*
%TD*%
D27*
%TO.P,J4,1,Pin_1*%
%TO.N,Net-(A1-Pad26)*%
X44875000Y-85000000D03*
D28*
%TO.P,J4,2,Pin_2*%
%TO.N,+5V*%
X47415000Y-85000000D03*
%TO.P,J4,3,Pin_3*%
%TO.N,Net-(J4-Pad3)*%
X49955000Y-85000000D03*
%TD*%
D13*
%TO.P,C17,1*%
%TO.N,+5V*%
X56732500Y-93650000D03*
%TO.P,C17,2*%
%TO.N,GND*%
X56732500Y-91750000D03*
%TD*%
D14*
%TO.P,D12,1,K*%
%TO.N,GND*%
X105875000Y-34900000D03*
%TO.P,D12,2,A*%
%TO.N,Net-(D12-Pad2)*%
X104300000Y-34900000D03*
%TD*%
D29*
%TO.P,Rt1,1*%
%TO.N,Net-(Rt1-Pad1)*%
X80112500Y-82700000D03*
%TO.P,Rt1,2*%
%TO.N,Net-(Ct1-Pad1)*%
X80112500Y-84525000D03*
%TD*%
D30*
%TO.P,Jbat1,1,Pin_1*%
%TO.N,/BATTERY_POSITIVE*%
X55500000Y-62000000D03*
X43500000Y-62000000D03*
D31*
%TO.P,Jbat1,2,Pin_2*%
%TO.N,GND*%
X43500000Y-56920000D03*
X55500000Y-56920000D03*
%TD*%
D30*
%TO.P,Jgen1,1,Pin_1*%
%TO.N,Net-(D5-Pad2)*%
X43400000Y-48680000D03*
X55400000Y-48680000D03*
D31*
%TO.P,Jgen1,2,Pin_2*%
%TO.N,Net-(D3-Pad2)*%
X55400000Y-43600000D03*
X43400000Y-43600000D03*
%TO.P,Jgen1,3,Pin_3*%
%TO.N,Net-(D1-Pad2)*%
X55400000Y-38520000D03*
X43400000Y-38520000D03*
%TD*%
D32*
%TO.P,U9,1,VOUT*%
%TO.N,Net-(J1-Pad1)*%
X57982500Y-87950000D03*
%TO.P,U9,2,VSS*%
%TO.N,GND*%
X57982500Y-88900000D03*
%TO.P,U9,3,VDD*%
%TO.N,+5V*%
X57982500Y-89850000D03*
%TO.P,U9,4,SDA*%
%TO.N,/WEMOS_SDA*%
X60257500Y-89850000D03*
%TO.P,U9,5,SCL*%
%TO.N,/WEMOS_SCL*%
X60257500Y-88900000D03*
%TO.P,U9,6,A0*%
%TO.N,+5V*%
X60257500Y-87950000D03*
%TD*%
D13*
%TO.P,C8,1*%
%TO.N,+5V*%
X53982500Y-89850000D03*
%TO.P,C8,2*%
%TO.N,GND*%
X53982500Y-87950000D03*
%TD*%
D27*
%TO.P,J1,1,Pin_1*%
%TO.N,Net-(J1-Pad1)*%
X57820000Y-85200000D03*
D28*
%TO.P,J1,2,Pin_2*%
%TO.N,Net-(J1-Pad2)*%
X60360000Y-85200000D03*
%TO.P,J1,3,Pin_3*%
%TO.N,/ALTERNATE_DAC*%
X62900000Y-85200000D03*
%TD*%
D27*
%TO.P,J2,1,Pin_1*%
%TO.N,Net-(J2-Pad1)*%
X71200000Y-77000000D03*
D28*
%TO.P,J2,2,Pin_2*%
%TO.N,Net-(J2-Pad2)*%
X71200000Y-79540000D03*
%TO.P,J2,3,Pin_3*%
%TO.N,/ALTERNATE_ADC*%
X71200000Y-82080000D03*
%TD*%
D33*
%TO.P,Rsh2,1*%
%TO.N,+12V*%
X58837500Y-68000000D03*
%TO.P,Rsh2,2*%
%TO.N,/BATTERY_POSITIVE*%
X55912500Y-68000000D03*
%TD*%
D25*
%TO.P,R1,1*%
%TO.N,/RELAY_DRIVE*%
X125887500Y-60300000D03*
%TO.P,R1,2*%
%TO.N,GND*%
X127712500Y-60300000D03*
%TD*%
D11*
%TO.P,D2,1,K*%
%TO.N,Net-(D1-Pad2)*%
X63000000Y-39600000D03*
D12*
%TO.P,D2,2,A*%
%TO.N,GND*%
X59250000Y-40585000D03*
X59250000Y-38615000D03*
%TD*%
D11*
%TO.P,D5,1,K*%
%TO.N,Net-(D1-Pad1)*%
X71960000Y-53000000D03*
D12*
%TO.P,D5,2,A*%
%TO.N,Net-(D5-Pad2)*%
X68210000Y-52015000D03*
X68210000Y-53985000D03*
%TD*%
D22*
%TO.P,Cbs1,1*%
%TO.N,Net-(Cbs1-Pad1)*%
X95800000Y-84747349D03*
D23*
%TO.P,Cbs1,2*%
%TO.N,/GATE_SOURCE*%
X95800000Y-88247349D03*
%TD*%
D34*
%TO.P,C10,1*%
%TO.N,GND*%
X61200000Y-70750000D03*
%TO.P,C10,2*%
%TO.N,+5V*%
X61200000Y-72650000D03*
%TD*%
D35*
%TO.P,U6,1,-*%
%TO.N,/BATTERY_POSITIVE*%
X53900000Y-70095000D03*
%TO.P,U6,2,GND*%
%TO.N,GND*%
X53900000Y-71365000D03*
%TO.P,U6,3,REF2*%
X53900000Y-72635000D03*
%TO.P,U6,4,GND*%
X53900000Y-73905000D03*
%TO.P,U6,5*%
%TO.N,Net-(TP9-Pad1)*%
X58850000Y-73905000D03*
%TO.P,U6,6,V+*%
%TO.N,+5V*%
X58850000Y-72635000D03*
%TO.P,U6,7,REF1*%
%TO.N,GND*%
X58850000Y-71365000D03*
%TO.P,U6,8,+*%
%TO.N,+12V*%
X58850000Y-70095000D03*
%TD*%
D19*
%TO.P,C4,1*%
%TO.N,+12V*%
X87850000Y-79778792D03*
%TO.P,C4,2*%
%TO.N,GND*%
X89750000Y-79778792D03*
%TD*%
D33*
%TO.P,Rsh1,1*%
%TO.N,/INPUT_ISENSE_UPSTREAM*%
X74462500Y-68000000D03*
%TO.P,Rsh1,2*%
%TO.N,+12V*%
X71537500Y-68000000D03*
%TD*%
D19*
%TO.P,C12,1*%
%TO.N,+5V*%
X77800000Y-80600000D03*
%TO.P,C12,2*%
%TO.N,GND*%
X79700000Y-80600000D03*
%TD*%
D11*
%TO.P,D3,1,K*%
%TO.N,Net-(D1-Pad1)*%
X72000000Y-46300000D03*
D12*
%TO.P,D3,2,A*%
%TO.N,Net-(D3-Pad2)*%
X68250000Y-47285000D03*
X68250000Y-45315000D03*
%TD*%
D36*
%TO.P,U2,1,COMP*%
%TO.N,/UC2844_COMP*%
X82095000Y-86653792D03*
%TO.P,U2,2,FB*%
%TO.N,/UC2844_FB*%
X83365000Y-86653792D03*
%TO.P,U2,3,ISENSE*%
%TO.N,/UC2844_ISENSE*%
X84635000Y-86653792D03*
%TO.P,U2,4,RT/CT*%
%TO.N,Net-(Ct1-Pad1)*%
X85905000Y-86653792D03*
%TO.P,U2,5,GND*%
%TO.N,GND*%
X85905000Y-81703792D03*
%TO.P,U2,6,OUTPUT*%
%TO.N,/UC2844_GATE_OUTPUT*%
X84635000Y-81703792D03*
%TO.P,U2,7,VCC*%
%TO.N,+12V*%
X83365000Y-81703792D03*
%TO.P,U2,8,VREF*%
%TO.N,Net-(Rt1-Pad1)*%
X82095000Y-81703792D03*
%TD*%
D37*
%TO.P,Cc2,1*%
%TO.N,/UC2844_COMP*%
X78350000Y-88750000D03*
%TO.P,Cc2,2*%
%TO.N,/UC2844_FB*%
X76450000Y-88750000D03*
%TD*%
D38*
%TO.P,R12,1*%
%TO.N,Net-(R12-Pad1)*%
X104400000Y-76600000D03*
%TO.P,R12,2*%
%TO.N,/HIGH_SIDE_GATE_DRIVE*%
X104400000Y-74775000D03*
%TD*%
D27*
%TO.P,J3,1,Pin_1*%
%TO.N,Net-(J3-Pad1)*%
X54000000Y-84040000D03*
D28*
%TO.P,J3,2,Pin_2*%
%TO.N,Net-(J3-Pad2)*%
X54000000Y-81500000D03*
%TO.P,J3,3,Pin_3*%
%TO.N,/ALTERNATE_ADC_2*%
X54000000Y-78960000D03*
%TD*%
D25*
%TO.P,R18,1*%
%TO.N,/RECTIFIER_LED*%
X99975000Y-34900000D03*
%TO.P,R18,2*%
%TO.N,Net-(D12-Pad2)*%
X101800000Y-34900000D03*
%TD*%
%TO.P,R17,1*%
%TO.N,/GPIO_LED3*%
X117487500Y-84100000D03*
%TO.P,R17,2*%
%TO.N,Net-(D11-Pad2)*%
X119312500Y-84100000D03*
%TD*%
D19*
%TO.P,C16,1*%
%TO.N,+12V*%
X45900000Y-72750000D03*
%TO.P,C16,2*%
%TO.N,GND*%
X47800000Y-72750000D03*
%TD*%
D10*
%TO.P,R11,1*%
%TO.N,+3V3*%
X80612500Y-94500000D03*
%TO.P,R11,2*%
%TO.N,/WEMOS_SCL*%
X78787500Y-94500000D03*
%TD*%
D13*
%TO.P,C3,1*%
%TO.N,+12V*%
X85700000Y-79500000D03*
%TO.P,C3,2*%
%TO.N,GND*%
X85700000Y-77600000D03*
%TD*%
D25*
%TO.P,Rf1,1*%
%TO.N,Net-(R8-Pad2)*%
X71275000Y-86700000D03*
%TO.P,Rf1,2*%
%TO.N,/UC2844_FB*%
X73100000Y-86700000D03*
%TD*%
%TO.P,R3,1*%
%TO.N,GND*%
X56787500Y-78250000D03*
%TO.P,R3,2*%
%TO.N,Net-(R2-Pad1)*%
X58612500Y-78250000D03*
%TD*%
D10*
%TO.P,R2,1*%
%TO.N,Net-(R2-Pad1)*%
X58612500Y-76250000D03*
%TO.P,R2,2*%
%TO.N,Net-(J3-Pad2)*%
X56787500Y-76250000D03*
%TD*%
D13*
%TO.P,C9,1*%
%TO.N,+5V*%
X55982500Y-89850000D03*
%TO.P,C9,2*%
%TO.N,GND*%
X55982500Y-87950000D03*
%TD*%
D39*
%TO.P,Cbuck1,1*%
%TO.N,+12V*%
X65000000Y-65323959D03*
D40*
%TO.P,Cbuck1,2*%
%TO.N,GND*%
X65000000Y-60323959D03*
%TD*%
D41*
%TO.P,Lbuck1,1,1*%
%TO.N,/GATE_SOURCE*%
X98400000Y-62000000D03*
%TO.P,Lbuck1,2,2*%
%TO.N,/INPUT_ISENSE_UPSTREAM*%
X77600000Y-62000000D03*
%TD*%
D13*
%TO.P,C11,1*%
%TO.N,GND*%
X74400000Y-77600000D03*
%TO.P,C11,2*%
%TO.N,+5V*%
X74400000Y-75700000D03*
%TD*%
D11*
%TO.P,D4,1,K*%
%TO.N,Net-(D3-Pad2)*%
X62960000Y-46300000D03*
D12*
%TO.P,D4,2,A*%
%TO.N,GND*%
X59210000Y-47285000D03*
X59210000Y-45315000D03*
%TD*%
D42*
%TO.P,U4,1*%
%TO.N,Net-(J2-Pad2)*%
X68097500Y-76775000D03*
%TO.P,U4,2,-*%
X66827500Y-76775000D03*
%TO.P,U4,3,+*%
%TO.N,Net-(R4-Pad2)*%
X65557500Y-76775000D03*
%TO.P,U4,4,V+*%
%TO.N,+5V*%
X64287500Y-76775000D03*
%TO.P,U4,5,+*%
%TO.N,Net-(TP9-Pad1)*%
X63017500Y-76775000D03*
%TO.P,U4,6,-*%
%TO.N,Net-(R2-Pad1)*%
X61747500Y-76775000D03*
%TO.P,U4,7*%
%TO.N,Net-(J3-Pad2)*%
X60477500Y-76775000D03*
%TO.P,U4,8*%
%TO.N,unconnected-(U4-Pad8)*%
X60477500Y-81725000D03*
%TO.P,U4,9,-*%
%TO.N,unconnected-(U4-Pad9)*%
X61747500Y-81725000D03*
%TO.P,U4,10,+*%
%TO.N,unconnected-(U4-Pad10)*%
X63017500Y-81725000D03*
%TO.P,U4,11,V-*%
%TO.N,GND*%
X64287500Y-81725000D03*
%TO.P,U4,12,+*%
%TO.N,Net-(R6-Pad1)*%
X65557500Y-81725000D03*
%TO.P,U4,13,-*%
%TO.N,Net-(R8-Pad1)*%
X66827500Y-81725000D03*
%TO.P,U4,14*%
%TO.N,Net-(R8-Pad2)*%
X68097500Y-81725000D03*
%TD*%
D24*
%TO.P,TP8,1,1*%
%TO.N,Net-(Cbs1-Pad1)*%
X100900000Y-82100000D03*
%TO.P,TP8,2,2*%
%TO.N,GND*%
X100900000Y-78290000D03*
%TD*%
D22*
%TO.P,A1,1,~{RESET}*%
%TO.N,unconnected-(A1-Pad1)*%
X88650000Y-97585000D03*
D23*
%TO.P,A1,2,3V3*%
%TO.N,+3V3*%
X86110000Y-97585000D03*
%TO.P,A1,3,AREF*%
%TO.N,unconnected-(A1-Pad3)*%
X83570000Y-97585000D03*
%TO.P,A1,4,GND*%
%TO.N,GND*%
X81030000Y-97585000D03*
%TO.P,A1,5,DAC0/A0*%
%TO.N,/ALTERNATE_DAC*%
X78490000Y-97585000D03*
%TO.P,A1,6,A1*%
%TO.N,/ALTERNATE_ADC*%
X75950000Y-97585000D03*
%TO.P,A1,7,A2*%
%TO.N,/ALTERNATE_ADC_2*%
X73410000Y-97585000D03*
%TO.P,A1,8,A3*%
%TO.N,unconnected-(A1-Pad8)*%
X70870000Y-97585000D03*
%TO.P,A1,9,A4*%
%TO.N,unconnected-(A1-Pad9)*%
X68330000Y-97585000D03*
%TO.P,A1,10,A5*%
%TO.N,unconnected-(A1-Pad10)*%
X65790000Y-97585000D03*
%TO.P,A1,11,SCK/D24*%
%TO.N,unconnected-(A1-Pad11)*%
X63250000Y-97585000D03*
%TO.P,A1,12,MOSI/D23*%
%TO.N,unconnected-(A1-Pad12)*%
X60710000Y-97585000D03*
%TO.P,A1,13,MISO/D22*%
%TO.N,unconnected-(A1-Pad13)*%
X58170000Y-97585000D03*
%TO.P,A1,14,RX/D0*%
%TO.N,unconnected-(A1-Pad14)*%
X55630000Y-97585000D03*
%TO.P,A1,15,TX/D1*%
%TO.N,unconnected-(A1-Pad15)*%
X53090000Y-97585000D03*
%TO.P,A1,16,GND*%
%TO.N,GND*%
X50550000Y-97585000D03*
%TO.P,A1,17,SDA/D20*%
%TO.N,/WEMOS_SDA*%
X50550000Y-117905000D03*
%TO.P,A1,18,SCL/D21*%
%TO.N,/WEMOS_SCL*%
X53090000Y-117905000D03*
%TO.P,A1,19,D5*%
%TO.N,/RELAY_DRIVE*%
X55630000Y-117905000D03*
%TO.P,A1,20,D6*%
%TO.N,/GPIO_LED1*%
X58170000Y-117905000D03*
%TO.P,A1,21,D9*%
%TO.N,/GPIO_LED2*%
X60710000Y-117905000D03*
%TO.P,A1,22,D10*%
%TO.N,/GPIO_LED3*%
X63250000Y-117905000D03*
%TO.P,A1,23,D11*%
%TO.N,unconnected-(A1-Pad23)*%
X65790000Y-117905000D03*
%TO.P,A1,24,D12*%
%TO.N,unconnected-(A1-Pad24)*%
X68330000Y-117905000D03*
%TO.P,A1,25,D13*%
%TO.N,unconnected-(A1-Pad25)*%
X70870000Y-117905000D03*
%TO.P,A1,26,USB*%
%TO.N,Net-(A1-Pad26)*%
X73410000Y-117905000D03*
%TO.P,A1,27,EN*%
%TO.N,unconnected-(A1-Pad27)*%
X75950000Y-117905000D03*
%TO.P,A1,28,VBAT*%
%TO.N,unconnected-(A1-Pad28)*%
X78490000Y-117905000D03*
%TD*%
D35*
%TO.P,U5,1,-*%
%TO.N,+12V*%
X69050000Y-70190000D03*
%TO.P,U5,2,GND*%
%TO.N,GND*%
X69050000Y-71460000D03*
%TO.P,U5,3,REF2*%
X69050000Y-72730000D03*
%TO.P,U5,4,GND*%
X69050000Y-74000000D03*
%TO.P,U5,5*%
%TO.N,/UC2844_ISENSE*%
X74000000Y-74000000D03*
%TO.P,U5,6,V+*%
%TO.N,+5V*%
X74000000Y-72730000D03*
%TO.P,U5,7,REF1*%
%TO.N,GND*%
X74000000Y-71460000D03*
%TO.P,U5,8,+*%
%TO.N,/INPUT_ISENSE_UPSTREAM*%
X74000000Y-70190000D03*
%TD*%
D24*
%TO.P,TP4,1,1*%
%TO.N,/GATE_SOURCE*%
X118400000Y-60300000D03*
%TO.P,TP4,2,2*%
%TO.N,GND*%
X118400000Y-56490000D03*
%TD*%
D30*
%TO.P,Jfuse1,1,Pin_1*%
%TO.N,Net-(D1-Pad1)*%
X83920000Y-42000000D03*
D31*
%TO.P,Jfuse1,2,Pin_2*%
%TO.N,GND*%
X89000000Y-42000000D03*
%TO.P,Jfuse1,3,Pin_3*%
%TO.N,/RECTIFIER_LED*%
X94080000Y-42000000D03*
%TD*%
D43*
%TO.P,SW1,1,A*%
%TO.N,Net-(Jres1-Pad1)*%
X110450000Y-76225000D03*
%TO.P,SW1,2,B*%
%TO.N,Net-(K1-Pad3)*%
X110450000Y-71525000D03*
%TO.P,SW1,3,C*%
%TO.N,/RECTIFIER_VDD*%
X110450000Y-66825000D03*
%TD*%
D25*
%TO.P,R9,1*%
%TO.N,Net-(R8-Pad1)*%
X66600000Y-86350000D03*
%TO.P,R9,2*%
%TO.N,GND*%
X68425000Y-86350000D03*
%TD*%
D19*
%TO.P,C13,1*%
%TO.N,+5V*%
X77790000Y-78600000D03*
%TO.P,C13,2*%
%TO.N,GND*%
X79690000Y-78600000D03*
%TD*%
D13*
%TO.P,Ct1,1*%
%TO.N,Net-(Ct1-Pad1)*%
X78100000Y-84550000D03*
%TO.P,Ct1,2*%
%TO.N,GND*%
X78100000Y-82650000D03*
%TD*%
D25*
%TO.P,R16,1*%
%TO.N,/GPIO_LED2*%
X117487500Y-81100000D03*
%TO.P,R16,2*%
%TO.N,Net-(D10-Pad2)*%
X119312500Y-81100000D03*
%TD*%
D11*
%TO.P,Dbuck1,1,K*%
%TO.N,/GATE_SOURCE*%
X104000000Y-59535000D03*
D12*
%TO.P,Dbuck1,2,A*%
%TO.N,GND*%
X107750000Y-58550000D03*
X107750000Y-60520000D03*
%TD*%
D32*
%TO.P,U3,1,VCC*%
%TO.N,+12V*%
X88000000Y-85528792D03*
%TO.P,U3,2,GND*%
%TO.N,GND*%
X88000000Y-86478792D03*
%TO.P,U3,3,INP*%
%TO.N,/UC2844_GATE_OUTPUT*%
X88000000Y-87428792D03*
%TO.P,U3,4,TS*%
%TO.N,/GATE_SOURCE*%
X90275000Y-87428792D03*
%TO.P,U3,5,TG*%
%TO.N,Net-(R12-Pad1)*%
X90275000Y-86478792D03*
%TO.P,U3,6,BOOST*%
%TO.N,Net-(Cbs1-Pad1)*%
X90275000Y-85528792D03*
%TD*%
D44*
%TO.P,U10,1,GND*%
%TO.N,GND*%
X49150000Y-75250000D03*
%TO.P,U10,2,VO*%
%TO.N,Net-(J4-Pad3)*%
X46850000Y-75250000D03*
D45*
X46850000Y-81550000D03*
D44*
%TO.P,U10,3,VI*%
%TO.N,+12V*%
X44550000Y-75250000D03*
%TD*%
D11*
%TO.P,D6,1,K*%
%TO.N,Net-(D5-Pad2)*%
X62960000Y-53000000D03*
D12*
%TO.P,D6,2,A*%
%TO.N,GND*%
X59210000Y-53985000D03*
X59210000Y-52015000D03*
%TD*%
D10*
%TO.P,R7,1*%
%TO.N,Net-(R6-Pad1)*%
X58612500Y-82250000D03*
%TO.P,R7,2*%
%TO.N,Net-(J1-Pad2)*%
X56787500Y-82250000D03*
%TD*%
D25*
%TO.P,R15,1*%
%TO.N,/GPIO_LED1*%
X117487500Y-78100000D03*
%TO.P,R15,2*%
%TO.N,Net-(D9-Pad2)*%
X119312500Y-78100000D03*
%TD*%
D24*
%TO.P,TP2,1,1*%
%TO.N,/RECTIFIER_VDD*%
X122900000Y-60325000D03*
%TO.P,TP2,2,2*%
%TO.N,GND*%
X122900000Y-56515000D03*
%TD*%
D46*
%TO.P,F1,1*%
%TO.N,Net-(D1-Pad1)*%
X78080000Y-42000000D03*
%TO.P,F1,2*%
%TO.N,/RECTIFIER_LED*%
X99920000Y-42000000D03*
%TD*%
D47*
%TO.P,U7,1,VDD*%
%TO.N,+5V*%
X76050000Y-79962500D03*
%TO.P,U7,2,VSS*%
%TO.N,GND*%
X75100000Y-79962500D03*
%TO.P,U7,3,AIN*%
%TO.N,Net-(J2-Pad1)*%
X74150000Y-79962500D03*
%TO.P,U7,4,SDA*%
%TO.N,/WEMOS_SDA*%
X74150000Y-82237500D03*
%TO.P,U7,5,SCL*%
%TO.N,/WEMOS_SCL*%
X76050000Y-82237500D03*
%TD*%
D13*
%TO.P,C1,1*%
%TO.N,+12V*%
X81700000Y-79500000D03*
%TO.P,C1,2*%
%TO.N,GND*%
X81700000Y-77600000D03*
%TD*%
D19*
%TO.P,C14,1*%
%TO.N,+12V*%
X45900000Y-68750000D03*
%TO.P,C14,2*%
%TO.N,GND*%
X47800000Y-68750000D03*
%TD*%
D48*
%TO.P,U8,1,VDD*%
%TO.N,+5V*%
X52620000Y-93650000D03*
%TO.P,U8,2,VSS*%
%TO.N,GND*%
X52620000Y-92700000D03*
%TO.P,U8,3,AIN*%
%TO.N,Net-(J3-Pad1)*%
X52620000Y-91750000D03*
%TO.P,U8,4,SDA*%
%TO.N,/WEMOS_SDA*%
X50345000Y-91750000D03*
%TO.P,U8,5,SCL*%
%TO.N,/WEMOS_SCL*%
X50345000Y-93650000D03*
%TD*%
D49*
%TO.P,Q1,1,G*%
%TO.N,/RELAY_DRIVE*%
X125850000Y-58137500D03*
%TO.P,Q1,2,S*%
%TO.N,GND*%
X127750000Y-58137500D03*
%TO.P,Q1,3,D*%
%TO.N,Net-(D13-Pad2)*%
X126800000Y-56262500D03*
%TD*%
D19*
%TO.P,C5,1*%
%TO.N,+12V*%
X87850000Y-81778792D03*
%TO.P,C5,2*%
%TO.N,GND*%
X89750000Y-81778792D03*
%TD*%
D11*
%TO.P,D1,1,K*%
%TO.N,Net-(D1-Pad1)*%
X72000000Y-39600000D03*
D12*
%TO.P,D1,2,A*%
%TO.N,Net-(D1-Pad2)*%
X68250000Y-40585000D03*
X68250000Y-38615000D03*
%TD*%
D30*
%TO.P,Jres1,1,Pin_1*%
%TO.N,Net-(Jres1-Pad1)*%
X129200000Y-67100000D03*
X117200000Y-67100000D03*
D31*
%TO.P,Jres1,2,Pin_2*%
%TO.N,GND*%
X117200000Y-72180000D03*
X129200000Y-72180000D03*
%TD*%
D24*
%TO.P,TP6,1,1*%
%TO.N,+12V*%
X73400000Y-62525000D03*
%TO.P,TP6,2,2*%
%TO.N,GND*%
X73400000Y-58715000D03*
%TD*%
D14*
%TO.P,D10,1,K*%
%TO.N,GND*%
X123187500Y-81100000D03*
%TO.P,D10,2,A*%
%TO.N,Net-(D10-Pad2)*%
X121612500Y-81100000D03*
%TD*%
D50*
%TO.N,GND*%
X71500000Y-72700000D03*
X47800000Y-66900000D03*
X57500000Y-40700000D03*
D51*
X129500000Y-60300000D03*
D50*
X87700000Y-77600000D03*
X91600000Y-83200000D03*
X85898844Y-83917292D03*
X76096761Y-78196761D03*
X129500000Y-58200000D03*
D51*
X48600000Y-91100000D03*
X125200000Y-81100000D03*
D50*
X56400000Y-72500000D03*
X77819331Y-76480669D03*
X57500000Y-51900000D03*
X107800000Y-56100000D03*
X65126000Y-83900000D03*
D51*
X125200000Y-78100000D03*
X107300000Y-34900000D03*
X55800000Y-78200000D03*
D50*
X55100000Y-86400000D03*
D51*
X69700000Y-86400000D03*
D50*
X51500000Y-90100000D03*
X57600000Y-45200000D03*
D51*
X125200000Y-84100000D03*
D50*
X61200000Y-69100000D03*
X63200000Y-70900000D03*
D51*
X68100000Y-75100000D03*
X120675000Y-34900000D03*
%TO.N,/ALTERNATE_DAC*%
X69558616Y-89658616D03*
X72800000Y-92900000D03*
%TO.N,/ALTERNATE_ADC*%
X72200000Y-89600000D03*
X71200000Y-85500000D03*
%TO.N,/ALTERNATE_ADC_2*%
X67900000Y-91100000D03*
X55500000Y-80500000D03*
X69300000Y-92500000D03*
X59700000Y-83700000D03*
X57477366Y-83722634D03*
%TO.N,/WEMOS_SDA*%
X72100000Y-85500000D03*
X48700000Y-95507500D03*
X58600000Y-95500000D03*
X56700000Y-95500000D03*
X47900000Y-93500000D03*
X47892458Y-97900000D03*
X72100000Y-87900000D03*
%TO.N,/WEMOS_SCL*%
X49100000Y-94000000D03*
X48600000Y-98600000D03*
X73100000Y-85500000D03*
X49500000Y-96700000D03*
X72600280Y-88400280D03*
%TO.N,/RELAY_DRIVE*%
X63900000Y-109600000D03*
X65200000Y-108400000D03*
X124500000Y-67807500D03*
X124500000Y-66392500D03*
X124500000Y-71472500D03*
X124500000Y-72900000D03*
%TO.N,/GPIO_LED1*%
X65200000Y-110900000D03*
X66400000Y-109700000D03*
%TO.N,/GPIO_LED2*%
X67700000Y-110900000D03*
X66400000Y-112200000D03*
%TO.N,/GPIO_LED3*%
X67700000Y-113500000D03*
X69000000Y-112200000D03*
D50*
%TO.N,+5V*%
X55100000Y-76000000D03*
X61383622Y-79188500D03*
X68000000Y-79200000D03*
X69500000Y-75600000D03*
%TO.N,+12V*%
X54697000Y-65500000D03*
X57200000Y-65600000D03*
%TO.N,/GATE_SOURCE*%
X106500000Y-69740500D03*
D51*
X115900000Y-57800000D03*
%TO.N,/RECTIFIER_VDD*%
X121000000Y-63100000D03*
X116200000Y-63100000D03*
%TO.N,/BATTERY_POSITIVE*%
X57700000Y-68000000D03*
X59900000Y-68000000D03*
%TD*%
D52*
%TO.N,+3V3*%
X80612500Y-92500000D02*
X81025000Y-92500000D01*
X86110000Y-97585000D02*
X83025000Y-94500000D01*
X83025000Y-94500000D02*
X80612500Y-94500000D01*
X81025000Y-92500000D02*
X83025000Y-94500000D01*
D53*
%TO.N,GND*%
X75100000Y-79193522D02*
X76096761Y-78196761D01*
X89158500Y-84370292D02*
X89750000Y-83778792D01*
X107765000Y-58495000D02*
X107765000Y-56135000D01*
X43520000Y-56920000D02*
X43500000Y-56900000D01*
D52*
X55800000Y-78200000D02*
X55850000Y-78250000D01*
D53*
X79700000Y-80600000D02*
X78521000Y-81779000D01*
X74400000Y-77600000D02*
X75500000Y-77600000D01*
X107765000Y-56135000D02*
X107800000Y-56100000D01*
X117200000Y-72180000D02*
X130180000Y-72180000D01*
X47800000Y-68750000D02*
X47800000Y-70750000D01*
X85700000Y-77600000D02*
X87700000Y-77600000D01*
D52*
X68425000Y-86350000D02*
X69650000Y-86350000D01*
D53*
X56732500Y-91750000D02*
X54732500Y-91750000D01*
X51461500Y-90961500D02*
X51461500Y-92261500D01*
X56535000Y-71365000D02*
X56400000Y-71500000D01*
X71460000Y-72660000D02*
X71500000Y-72700000D01*
X85700000Y-77600000D02*
X83700000Y-77600000D01*
X64287500Y-81725000D02*
X64287500Y-83061500D01*
X57660000Y-45260000D02*
X57600000Y-45200000D01*
X63200000Y-72550000D02*
X63200000Y-70900000D01*
X88566685Y-86478792D02*
X89158500Y-85886977D01*
X59210000Y-53985000D02*
X59210000Y-52015000D01*
X79690000Y-78351338D02*
X79690000Y-78600000D01*
X56400000Y-71500000D02*
X56400000Y-72500000D01*
X78121000Y-81779000D02*
X77179000Y-81779000D01*
X59195000Y-45260000D02*
X57660000Y-45260000D01*
X71460000Y-71460000D02*
X71460000Y-72660000D01*
X77819331Y-76480669D02*
X79690000Y-78351338D01*
X61200000Y-70750000D02*
X61200000Y-69100000D01*
X107765000Y-60575000D02*
X107765000Y-58495000D01*
X53782500Y-92700000D02*
X54732500Y-91750000D01*
D52*
X49550000Y-89800000D02*
X49550000Y-90150000D01*
X66837500Y-74400000D02*
X66837500Y-74437500D01*
X67400000Y-75100000D02*
X68100000Y-75100000D01*
D53*
X127750000Y-58137500D02*
X129437500Y-58137500D01*
X69050000Y-72730000D02*
X69050000Y-71460000D01*
X78521000Y-81779000D02*
X78121000Y-81779000D01*
X51500000Y-90100000D02*
X51500000Y-90923000D01*
X51500000Y-90923000D02*
X51461500Y-90961500D01*
X55982500Y-87282500D02*
X55100000Y-86400000D01*
D52*
X69050000Y-74000000D02*
X67237500Y-74000000D01*
X69650000Y-86350000D02*
X69700000Y-86400000D01*
D53*
X55500000Y-56920000D02*
X43520000Y-56920000D01*
X69050000Y-74000000D02*
X69050000Y-72730000D01*
X51900000Y-92700000D02*
X52620000Y-92700000D01*
X79690000Y-78600000D02*
X79690000Y-80590000D01*
X83700000Y-77600000D02*
X81700000Y-77600000D01*
X75100000Y-80529185D02*
X75100000Y-79962500D01*
X53900000Y-71365000D02*
X56535000Y-71365000D01*
X75500000Y-77600000D02*
X76096761Y-78196761D01*
X57560000Y-40640000D02*
X57500000Y-40700000D01*
D52*
X123187500Y-78100000D02*
X125200000Y-78100000D01*
D53*
X55982500Y-87950000D02*
X53982500Y-87950000D01*
X76521000Y-81121000D02*
X75691815Y-81121000D01*
X64287500Y-83061500D02*
X65126000Y-83900000D01*
X59250000Y-40585000D02*
X59250000Y-38615000D01*
X78100000Y-81800000D02*
X78121000Y-81779000D01*
X52620000Y-92700000D02*
X53782500Y-92700000D01*
D52*
X105875000Y-34900000D02*
X107300000Y-34900000D01*
D53*
X49150000Y-74100000D02*
X47800000Y-72750000D01*
D52*
X122087500Y-34900000D02*
X120675000Y-34900000D01*
D53*
X71460000Y-71460000D02*
X74000000Y-71460000D01*
X56932500Y-88900000D02*
X55982500Y-87950000D01*
D52*
X127712500Y-60300000D02*
X129500000Y-60300000D01*
D53*
X63200000Y-72550000D02*
X63000000Y-72550000D01*
X75691815Y-81121000D02*
X75100000Y-80529185D01*
X59235000Y-40640000D02*
X57560000Y-40640000D01*
D52*
X123187500Y-84100000D02*
X125200000Y-84100000D01*
D53*
X57560000Y-51960000D02*
X57500000Y-51900000D01*
D52*
X127712500Y-58175000D02*
X127750000Y-58137500D01*
D53*
X89750000Y-83778792D02*
X89750000Y-81778792D01*
X89158500Y-85886977D02*
X89158500Y-84370292D01*
X59195000Y-51960000D02*
X57560000Y-51960000D01*
X56535000Y-71365000D02*
X58850000Y-71365000D01*
X59210000Y-47285000D02*
X59210000Y-45315000D01*
X57982500Y-88900000D02*
X56932500Y-88900000D01*
X78100000Y-82650000D02*
X78100000Y-81800000D01*
X91021208Y-83778792D02*
X91600000Y-83200000D01*
D52*
X55850000Y-78250000D02*
X56787500Y-78250000D01*
X66837500Y-74400000D02*
X66837500Y-74537500D01*
D53*
X69050000Y-71460000D02*
X71460000Y-71460000D01*
X85905000Y-83911136D02*
X85905000Y-81703792D01*
X89750000Y-81778792D02*
X89750000Y-79778792D01*
X53900000Y-73905000D02*
X53900000Y-72635000D01*
D52*
X49550000Y-90150000D02*
X48600000Y-91100000D01*
D53*
X47800000Y-70750000D02*
X47800000Y-72750000D01*
X49150000Y-75250000D02*
X49150000Y-74100000D01*
X85898844Y-83917292D02*
X85905000Y-83911136D01*
X55982500Y-87950000D02*
X55982500Y-87282500D01*
D52*
X67237500Y-74000000D02*
X66837500Y-74400000D01*
D53*
X47800000Y-68750000D02*
X47800000Y-66900000D01*
D52*
X66837500Y-74537500D02*
X67200000Y-74900000D01*
D53*
X89750000Y-83778792D02*
X91021208Y-83778792D01*
D52*
X123187500Y-81100000D02*
X125200000Y-81100000D01*
D53*
X129437500Y-58137500D02*
X129500000Y-58200000D01*
X77179000Y-81779000D02*
X76521000Y-81121000D01*
D52*
X67200000Y-74900000D02*
X67400000Y-75100000D01*
D53*
X53900000Y-72635000D02*
X53900000Y-71365000D01*
X88000000Y-86478792D02*
X88566685Y-86478792D01*
X51461500Y-92261500D02*
X51900000Y-92700000D01*
X75100000Y-79962500D02*
X75100000Y-79193522D01*
X63000000Y-72550000D02*
X61200000Y-70750000D01*
X79690000Y-80590000D02*
X79700000Y-80600000D01*
D52*
%TO.N,/ALTERNATE_DAC*%
X78387500Y-97585000D02*
X78490000Y-97585000D01*
X69558616Y-89658616D02*
X67800000Y-87900000D01*
X65600000Y-87900000D02*
X62900000Y-85200000D01*
X67800000Y-87900000D02*
X65600000Y-87900000D01*
X73702500Y-92900000D02*
X78387500Y-97585000D01*
X72800000Y-92900000D02*
X73702500Y-92900000D01*
%TO.N,/ALTERNATE_ADC*%
X75950000Y-97150000D02*
X75950000Y-97585000D01*
X71200000Y-85500000D02*
X71200000Y-82080000D01*
X72200000Y-93400000D02*
X75950000Y-97150000D01*
X72200000Y-89600000D02*
X72200000Y-93400000D01*
%TO.N,/ALTERNATE_ADC_2*%
X61600000Y-85600000D02*
X61600000Y-84700000D01*
X61600000Y-84700000D02*
X60600000Y-83700000D01*
X73410000Y-96610000D02*
X73410000Y-97585000D01*
X55500000Y-82452817D02*
X56769817Y-83722634D01*
X63600000Y-87600000D02*
X61600000Y-85600000D01*
X69300000Y-92500000D02*
X73410000Y-96610000D01*
X55500000Y-80500000D02*
X55500000Y-82452817D01*
X60600000Y-83700000D02*
X59700000Y-83700000D01*
X64450000Y-87600000D02*
X63600000Y-87600000D01*
X67900000Y-91050000D02*
X64450000Y-87600000D01*
X67900000Y-91100000D02*
X67900000Y-91050000D01*
X56769817Y-83722634D02*
X57477366Y-83722634D01*
%TO.N,/WEMOS_SDA*%
X78000000Y-92500000D02*
X78787500Y-92500000D01*
X72100000Y-85500000D02*
X74150000Y-83450000D01*
X64500000Y-95500000D02*
X58600000Y-95500000D01*
X72100000Y-87900000D02*
X72200000Y-87800000D01*
X72200000Y-87800000D02*
X73300000Y-87800000D01*
X48707500Y-95500000D02*
X48700000Y-95507500D01*
X74150000Y-83450000D02*
X74150000Y-82237500D01*
X47892458Y-97900000D02*
X47900000Y-97907542D01*
X72100000Y-87900000D02*
X64500000Y-95500000D01*
X73300000Y-87800000D02*
X78000000Y-92500000D01*
X47900000Y-97907542D02*
X47900000Y-102100000D01*
X47900000Y-102100000D02*
X50550000Y-104750000D01*
X57000000Y-95500000D02*
X60257500Y-92242500D01*
X60257500Y-92242500D02*
X60257500Y-89850000D01*
X50550000Y-104750000D02*
X50550000Y-117905000D01*
X49650000Y-91750000D02*
X50345000Y-91750000D01*
X47900000Y-93500000D02*
X49650000Y-91750000D01*
X50292458Y-95500000D02*
X48707500Y-95500000D01*
X50292458Y-95500000D02*
X57000000Y-95500000D01*
%TO.N,/WEMOS_SCL*%
X49500000Y-96700000D02*
X50000000Y-96200000D01*
X50295000Y-93700000D02*
X50345000Y-93650000D01*
X76050000Y-82550000D02*
X76050000Y-82237500D01*
X50000000Y-96200000D02*
X57000000Y-96200000D01*
X57000000Y-96200000D02*
X61600000Y-91600000D01*
X72599720Y-88400280D02*
X64800000Y-96200000D01*
X61600000Y-91600000D02*
X61600000Y-89700000D01*
X48600000Y-98600000D02*
X48600000Y-101800000D01*
X48600000Y-101800000D02*
X53090000Y-106290000D01*
X60800000Y-88900000D02*
X60257500Y-88900000D01*
X72600280Y-88400280D02*
X72599720Y-88400280D01*
X53090000Y-106290000D02*
X53090000Y-117905000D01*
X72600280Y-88400280D02*
X78700000Y-94500000D01*
X49400000Y-93700000D02*
X50295000Y-93700000D01*
X61600000Y-89700000D02*
X60800000Y-88900000D01*
X78700000Y-94500000D02*
X78787500Y-94500000D01*
X73100000Y-85500000D02*
X76050000Y-82550000D01*
X64800000Y-96200000D02*
X57000000Y-96200000D01*
X49100000Y-94000000D02*
X49400000Y-93700000D01*
%TO.N,/RELAY_DRIVE*%
X124500000Y-72900000D02*
X122400000Y-75000000D01*
X125850000Y-58137500D02*
X126376104Y-58137500D01*
X127700000Y-56813604D02*
X127700000Y-34900000D01*
X63900000Y-109600000D02*
X63900000Y-109635000D01*
X73800000Y-99800000D02*
X65200000Y-108400000D01*
X63900000Y-109635000D02*
X55630000Y-117905000D01*
X125887500Y-60300000D02*
X125887500Y-58175000D01*
X125887500Y-60300000D02*
X125887500Y-63912500D01*
X122400000Y-75000000D02*
X116400000Y-75000000D01*
X116400000Y-75000000D02*
X91600000Y-99800000D01*
X126376104Y-58137500D02*
X127700000Y-56813604D01*
X125887500Y-58175000D02*
X125850000Y-58137500D01*
X124500000Y-71472500D02*
X124500000Y-67807500D01*
X124500000Y-66392500D02*
X124500000Y-65300000D01*
X125887500Y-63912500D02*
X124500000Y-65300000D01*
X91600000Y-99800000D02*
X73800000Y-99800000D01*
%TO.N,/GPIO_LED1*%
X65175000Y-110900000D02*
X58170000Y-117905000D01*
X113900000Y-78100000D02*
X117487500Y-78100000D01*
X66400000Y-109700000D02*
X75900000Y-100200000D01*
X91800000Y-100200000D02*
X113900000Y-78100000D01*
X75900000Y-100200000D02*
X91800000Y-100200000D01*
X65200000Y-110900000D02*
X65175000Y-110900000D01*
%TO.N,/GPIO_LED2*%
X66400000Y-112200000D02*
X66400000Y-112215000D01*
X66400000Y-112215000D02*
X60710000Y-117905000D01*
X92000000Y-100600000D02*
X111500000Y-81100000D01*
X111500000Y-81100000D02*
X117487500Y-81100000D01*
X67700000Y-110900000D02*
X78000000Y-100600000D01*
X78000000Y-100600000D02*
X92000000Y-100600000D01*
%TO.N,/GPIO_LED3*%
X67655000Y-113500000D02*
X63250000Y-117905000D01*
X92165686Y-101000000D02*
X109065686Y-84100000D01*
X80200000Y-101000000D02*
X92165686Y-101000000D01*
X67700000Y-113500000D02*
X67655000Y-113500000D01*
X69000000Y-112200000D02*
X80200000Y-101000000D01*
X109065686Y-84100000D02*
X117487500Y-84100000D01*
D53*
%TO.N,+5V*%
X54732500Y-93650000D02*
X56732500Y-93650000D01*
X77790000Y-78600000D02*
X77412500Y-78600000D01*
X77790000Y-78170316D02*
X75319684Y-75700000D01*
X47415000Y-85000000D02*
X46565000Y-85850000D01*
X77790000Y-80590000D02*
X77800000Y-80600000D01*
X52620000Y-93650000D02*
X52150000Y-93650000D01*
D52*
X60257500Y-87950000D02*
X59908604Y-87950000D01*
D53*
X61383622Y-79188500D02*
X62811500Y-79188500D01*
X64287500Y-77712500D02*
X64287500Y-76775000D01*
X51700000Y-79400000D02*
X55100000Y-76000000D01*
X72571000Y-73599815D02*
X72571000Y-74400185D01*
D52*
X59908604Y-87950000D02*
X59100000Y-88758604D01*
D53*
X77790000Y-78600000D02*
X77790000Y-80590000D01*
X55982500Y-89850000D02*
X57982500Y-89850000D01*
X73870815Y-75700000D02*
X72571000Y-74400185D01*
X51000000Y-94800000D02*
X47900000Y-94800000D01*
X51700000Y-85200000D02*
X51700000Y-79400000D01*
X64287500Y-76775000D02*
X64287500Y-75537500D01*
X50400000Y-86500000D02*
X51700000Y-85200000D01*
X57982500Y-92400000D02*
X56732500Y-93650000D01*
X52150000Y-93650000D02*
X51000000Y-94800000D01*
D52*
X59100000Y-88758604D02*
X59100000Y-89081396D01*
D53*
X58850000Y-72635000D02*
X61185000Y-72635000D01*
X77412500Y-78600000D02*
X76050000Y-79962500D01*
X47415000Y-85000000D02*
X48915000Y-86500000D01*
X64287500Y-75537500D02*
X63200000Y-74450000D01*
X73440815Y-72730000D02*
X72571000Y-73599815D01*
X77790000Y-78600000D02*
X77790000Y-78170316D01*
X70699815Y-74400185D02*
X72571000Y-74400185D01*
X52620000Y-93650000D02*
X54732500Y-93650000D01*
X63000000Y-74450000D02*
X61200000Y-72650000D01*
X63200000Y-74450000D02*
X63000000Y-74450000D01*
X62811500Y-79188500D02*
X64287500Y-77712500D01*
X75319684Y-75700000D02*
X74400000Y-75700000D01*
X74400000Y-75700000D02*
X73870815Y-75700000D01*
X49700000Y-86500000D02*
X50400000Y-86500000D01*
X48915000Y-86500000D02*
X49700000Y-86500000D01*
D52*
X58331396Y-89850000D02*
X57982500Y-89850000D01*
X59100000Y-89081396D02*
X58331396Y-89850000D01*
D53*
X46565000Y-85850000D02*
X46565000Y-93465000D01*
X68000000Y-79200000D02*
X62823000Y-79200000D01*
X57982500Y-89850000D02*
X57982500Y-92400000D01*
X74000000Y-72730000D02*
X73440815Y-72730000D01*
X69500000Y-75600000D02*
X70699815Y-74400185D01*
X62823000Y-79200000D02*
X62811500Y-79188500D01*
X53982500Y-89850000D02*
X55982500Y-89850000D01*
D52*
X49700000Y-88000000D02*
X49700000Y-86500000D01*
D53*
X46565000Y-93465000D02*
X47900000Y-94800000D01*
%TO.N,+12V*%
X92135000Y-78260000D02*
X92135000Y-80340000D01*
X54697000Y-65500000D02*
X47400000Y-65500000D01*
X75300000Y-58893894D02*
X75300000Y-54300000D01*
D52*
X58837500Y-70082500D02*
X58850000Y-70095000D01*
D53*
X45900000Y-67000000D02*
X45900000Y-68750000D01*
D52*
X71240000Y-68000000D02*
X69050000Y-70190000D01*
D53*
X65000000Y-65323959D02*
X61513541Y-65323959D01*
D52*
X73400000Y-62525000D02*
X71668894Y-62525000D01*
D53*
X71660418Y-62525000D02*
X71668894Y-62525000D01*
X106300000Y-48400000D02*
X108000000Y-46700000D01*
X75300000Y-54300000D02*
X79300000Y-54300000D01*
X45900000Y-70750000D02*
X45900000Y-72750000D01*
X68861459Y-65323959D02*
X65000000Y-65323959D01*
X71537500Y-68000000D02*
X68861459Y-65323959D01*
X61237500Y-65600000D02*
X61513541Y-65323959D01*
X83365000Y-81703792D02*
X83365000Y-79835000D01*
X85700000Y-79500000D02*
X87571208Y-79500000D01*
X81700000Y-79500000D02*
X83700000Y-79500000D01*
X71668894Y-62525000D02*
X75300000Y-58893894D01*
X89368792Y-78260000D02*
X87850000Y-79778792D01*
D52*
X71537500Y-68000000D02*
X71240000Y-68000000D01*
D53*
X68861459Y-65323959D02*
X71660418Y-62525000D01*
X61513541Y-65323959D02*
X58837500Y-68000000D01*
X87850000Y-81778792D02*
X87850000Y-83778792D01*
X44550000Y-74100000D02*
X45900000Y-72750000D01*
X83365000Y-79835000D02*
X83700000Y-79500000D01*
X87850000Y-79778792D02*
X87850000Y-81778792D01*
X44550000Y-75250000D02*
X44550000Y-74100000D01*
X87850000Y-85378792D02*
X88000000Y-85528792D01*
X87850000Y-83778792D02*
X87850000Y-85378792D01*
X79300000Y-54300000D02*
X89368792Y-64368792D01*
X57200000Y-65600000D02*
X61237500Y-65600000D01*
X108000000Y-39535000D02*
X112635000Y-34900000D01*
X87571208Y-79500000D02*
X87850000Y-79778792D01*
X47400000Y-65500000D02*
X45900000Y-67000000D01*
X89368792Y-64368792D02*
X89368792Y-78260000D01*
X75300000Y-54300000D02*
X81200000Y-48400000D01*
D52*
X58837500Y-68000000D02*
X58837500Y-70082500D01*
D53*
X112635000Y-34900000D02*
X113000000Y-34900000D01*
X83700000Y-79500000D02*
X85700000Y-79500000D01*
X45900000Y-68750000D02*
X45900000Y-70750000D01*
X108000000Y-46700000D02*
X108000000Y-39535000D01*
X92135000Y-78260000D02*
X89368792Y-78260000D01*
X81200000Y-48400000D02*
X106300000Y-48400000D01*
%TO.N,Net-(Cbs1-Pad1)*%
X95800000Y-79440000D02*
X95940000Y-79300000D01*
X90275000Y-85528792D02*
X95018557Y-85528792D01*
X95018557Y-85528792D02*
X95800000Y-84747349D01*
X95940000Y-79300000D02*
X98740000Y-82100000D01*
X98740000Y-82100000D02*
X100900000Y-82100000D01*
X95800000Y-84747349D02*
X95800000Y-79440000D01*
%TO.N,/GATE_SOURCE*%
X100865000Y-59535000D02*
X98400000Y-62000000D01*
X106500000Y-69740500D02*
X106500000Y-81900000D01*
X103960000Y-59535000D02*
X100865000Y-59535000D01*
X90275000Y-87428792D02*
X94928792Y-87428792D01*
X104395000Y-59930000D02*
X104000000Y-59535000D01*
X100152651Y-88247349D02*
X95800000Y-88247349D01*
X95747349Y-88247349D02*
X95800000Y-88247349D01*
D52*
X115900000Y-57800000D02*
X113100000Y-55000000D01*
X103960000Y-56935000D02*
X103960000Y-59535000D01*
X113100000Y-55000000D02*
X105895000Y-55000000D01*
X105895000Y-55000000D02*
X103960000Y-56935000D01*
D53*
X104395000Y-65985000D02*
X104395000Y-59930000D01*
X94928792Y-87428792D02*
X95747349Y-88247349D01*
X106100000Y-82300000D02*
X100152651Y-88247349D01*
X104395000Y-59970000D02*
X103960000Y-59535000D01*
X106500000Y-81900000D02*
X106100000Y-82300000D01*
D52*
%TO.N,Net-(Cc1-Pad1)*%
X76562500Y-86700000D02*
X78200000Y-86700000D01*
%TO.N,/UC2844_COMP*%
X80100000Y-87000000D02*
X80100000Y-86700000D01*
X78350000Y-88750000D02*
X80100000Y-87000000D01*
X82048792Y-86700000D02*
X82095000Y-86653792D01*
X80100000Y-86700000D02*
X82048792Y-86700000D01*
%TO.N,/UC2844_FB*%
X76450000Y-88750000D02*
X77500000Y-89800000D01*
X77500000Y-89800000D02*
X80560188Y-89800000D01*
X74737500Y-86700000D02*
X74737500Y-87037500D01*
X80560188Y-89800000D02*
X83365000Y-86995188D01*
X83365000Y-86995188D02*
X83365000Y-86653792D01*
X74737500Y-87037500D02*
X76450000Y-88750000D01*
X73100000Y-86700000D02*
X74737500Y-86700000D01*
%TO.N,/RECTIFIER_VDD*%
X121000000Y-63100000D02*
X121000000Y-63000000D01*
X122900000Y-61100000D02*
X122900000Y-60325000D01*
X116200000Y-63100000D02*
X112000000Y-58900000D01*
D53*
X110450000Y-66825000D02*
X110450000Y-60085000D01*
X108750000Y-68525000D02*
X110450000Y-66825000D01*
X110450000Y-60085000D02*
X112000000Y-58535000D01*
D52*
X112000000Y-58900000D02*
X112000000Y-58535000D01*
D53*
X104395000Y-68525000D02*
X108750000Y-68525000D01*
D52*
X121000000Y-63000000D02*
X122900000Y-61100000D01*
%TO.N,Net-(Ct1-Pad1)*%
X85905000Y-86653792D02*
X85905000Y-87095000D01*
X82847604Y-84525000D02*
X80112500Y-84525000D01*
X85905000Y-87095000D02*
X85071208Y-87928792D01*
X83965000Y-87595188D02*
X83965000Y-85642396D01*
X83965000Y-85642396D02*
X82847604Y-84525000D01*
X84298604Y-87928792D02*
X83965000Y-87595188D01*
X78100000Y-84550000D02*
X80087500Y-84550000D01*
X85071208Y-87928792D02*
X84298604Y-87928792D01*
X80087500Y-84550000D02*
X80112500Y-84525000D01*
%TO.N,Net-(D1-Pad1)*%
X72000000Y-37850000D02*
X72000000Y-39600000D01*
D53*
X71960000Y-46340000D02*
X72000000Y-46300000D01*
X71960000Y-53000000D02*
X71960000Y-46340000D01*
X72000000Y-39600000D02*
X72000000Y-46300000D01*
D52*
X68500000Y-34350000D02*
X72000000Y-37850000D01*
D53*
X72000000Y-46340000D02*
X72040000Y-46300000D01*
X73780000Y-46300000D02*
X78080000Y-42000000D01*
X72040000Y-46300000D02*
X73780000Y-46300000D01*
X72000000Y-46300000D02*
X73780000Y-46300000D01*
X78080000Y-42000000D02*
X83920000Y-42000000D01*
%TO.N,Net-(D1-Pad2)*%
X63985000Y-40585000D02*
X63000000Y-39600000D01*
X56675000Y-37245000D02*
X60645000Y-37245000D01*
X55400000Y-38520000D02*
X56675000Y-37245000D01*
X55404000Y-38529000D02*
X43420000Y-38529000D01*
X68250000Y-40585000D02*
X68250000Y-38615000D01*
X60645000Y-37245000D02*
X63000000Y-39600000D01*
X68250000Y-40585000D02*
X63985000Y-40585000D01*
%TO.N,Net-(D3-Pad2)*%
X55404000Y-43609000D02*
X43420000Y-43609000D01*
X55400000Y-43600000D02*
X60260000Y-43600000D01*
X60260000Y-43600000D02*
X62960000Y-46300000D01*
X68250000Y-47285000D02*
X63945000Y-47285000D01*
X63945000Y-47285000D02*
X62960000Y-46300000D01*
X68250000Y-47285000D02*
X68250000Y-45315000D01*
%TO.N,Net-(D5-Pad2)*%
X59760000Y-49800000D02*
X62960000Y-53000000D01*
X55400000Y-48680000D02*
X57380000Y-48680000D01*
X58500000Y-49800000D02*
X59760000Y-49800000D01*
X64040000Y-54040000D02*
X63000000Y-53000000D01*
X68210000Y-53985000D02*
X68210000Y-52015000D01*
X63945000Y-53985000D02*
X62960000Y-53000000D01*
X57380000Y-48680000D02*
X58500000Y-49800000D01*
X68210000Y-53985000D02*
X63945000Y-53985000D01*
X55404000Y-48689000D02*
X43420000Y-48689000D01*
D52*
%TO.N,Net-(D7-Pad2)*%
X47875000Y-88000000D02*
X47875000Y-89700000D01*
X47875000Y-89700000D02*
X47975000Y-89800000D01*
%TO.N,Net-(D8-Pad2)*%
X125875000Y-34900000D02*
X123662500Y-34900000D01*
%TO.N,Net-(D9-Pad2)*%
X119312500Y-78100000D02*
X121612500Y-78100000D01*
%TO.N,Net-(D10-Pad2)*%
X119312500Y-81100000D02*
X121612500Y-81100000D01*
%TO.N,Net-(D11-Pad2)*%
X119312500Y-84100000D02*
X121612500Y-84100000D01*
%TO.N,Net-(D12-Pad2)*%
X104300000Y-34900000D02*
X101800000Y-34900000D01*
D53*
%TO.N,/RECTIFIER_LED*%
X103455000Y-45535000D02*
X99920000Y-42000000D01*
X94080000Y-42000000D02*
X99920000Y-42000000D01*
X106000000Y-45535000D02*
X103455000Y-45535000D01*
D52*
X99920000Y-42000000D02*
X99920000Y-34955000D01*
X99920000Y-34955000D02*
X99975000Y-34900000D01*
D53*
%TO.N,Net-(J1-Pad1)*%
X57982500Y-85362500D02*
X57820000Y-85200000D01*
X57982500Y-87950000D02*
X57982500Y-85362500D01*
D52*
%TO.N,Net-(J1-Pad2)*%
X63700000Y-88540000D02*
X63700000Y-89175000D01*
X58860000Y-83700000D02*
X60360000Y-85200000D01*
X56787500Y-82250000D02*
X58237500Y-83700000D01*
X60360000Y-85200000D02*
X63700000Y-88540000D01*
X58237500Y-83700000D02*
X58860000Y-83700000D01*
%TO.N,Net-(J2-Pad1)*%
X74150000Y-79950000D02*
X71200000Y-77000000D01*
X74150000Y-79962500D02*
X74150000Y-79950000D01*
%TO.N,Net-(J2-Pad2)*%
X68435000Y-76775000D02*
X68097500Y-76775000D01*
X71200000Y-79540000D02*
X68435000Y-76775000D01*
X66827500Y-76775000D02*
X68097500Y-76775000D01*
%TO.N,Net-(J3-Pad1)*%
X54000000Y-85000000D02*
X52620000Y-86380000D01*
X52620000Y-86380000D02*
X52620000Y-91750000D01*
X54000000Y-85000000D02*
X54000000Y-84040000D01*
%TO.N,Net-(J3-Pad2)*%
X60477500Y-76477500D02*
X59250000Y-75250000D01*
X56787500Y-76250000D02*
X55237500Y-77800000D01*
X54000000Y-80716525D02*
X54000000Y-81500000D01*
X56787500Y-80250000D02*
X55237500Y-78700000D01*
X60477500Y-76775000D02*
X60477500Y-76477500D01*
X57787500Y-75250000D02*
X56787500Y-76250000D01*
X59250000Y-75250000D02*
X57787500Y-75250000D01*
X55237500Y-78700000D02*
X55237500Y-79479025D01*
X55237500Y-79479025D02*
X54000000Y-80716525D01*
X55237500Y-78700000D02*
X55237500Y-77800000D01*
%TO.N,/BATTERY_POSITIVE*%
X59900000Y-68000000D02*
X62425000Y-68000000D01*
X62425000Y-68000000D02*
X66825000Y-72400000D01*
D53*
X55500000Y-62000000D02*
X43500000Y-62000000D01*
X55912500Y-68000000D02*
X55912500Y-62412500D01*
D52*
X55912500Y-68000000D02*
X57700000Y-68000000D01*
X55912500Y-68082500D02*
X53900000Y-70095000D01*
X55912500Y-68000000D02*
X55912500Y-68082500D01*
D53*
X55912500Y-62412500D02*
X55500000Y-62000000D01*
%TO.N,Net-(Jres1-Pad1)*%
X120200000Y-51535000D02*
X120200000Y-64100000D01*
X110450000Y-76225000D02*
X114000000Y-72675000D01*
X114000000Y-70200000D02*
X117100000Y-67100000D01*
X117100000Y-67100000D02*
X117200000Y-67100000D01*
X114000000Y-72675000D02*
X114000000Y-70200000D01*
X117200000Y-67100000D02*
X130200000Y-67100000D01*
X120200000Y-64100000D02*
X117200000Y-67100000D01*
%TO.N,Net-(K1-Pad3)*%
X114000000Y-67975000D02*
X110450000Y-71525000D01*
X120200000Y-45100000D02*
X116930000Y-48370000D01*
X120200000Y-39535000D02*
X120200000Y-45100000D01*
X116930000Y-63570000D02*
X114000000Y-66500000D01*
X116930000Y-48370000D02*
X116930000Y-63570000D01*
X114000000Y-66500000D02*
X114000000Y-67975000D01*
%TO.N,Net-(D13-Pad2)*%
X119369000Y-37831000D02*
X108000000Y-49200000D01*
X126800000Y-56262500D02*
X126800000Y-43600000D01*
X121031000Y-37831000D02*
X119369000Y-37831000D01*
X114900000Y-34900000D02*
X116438000Y-34900000D01*
X126800000Y-43600000D02*
X121031000Y-37831000D01*
X116438000Y-34900000D02*
X119369000Y-37831000D01*
X108000000Y-49200000D02*
X108000000Y-51535000D01*
D52*
%TO.N,/INPUT_ISENSE_UPSTREAM*%
X74462500Y-69727500D02*
X74000000Y-70190000D01*
X74462500Y-68000000D02*
X74462500Y-69727500D01*
D53*
X77600000Y-64800000D02*
X77600000Y-62000000D01*
X74462500Y-68000000D02*
X74462500Y-67937500D01*
X74462500Y-67937500D02*
X77600000Y-64800000D01*
%TO.N,/HIGH_SIDE_GATE_DRIVE*%
X104395000Y-71065000D02*
X104395000Y-74770000D01*
X104395000Y-74770000D02*
X104400000Y-74775000D01*
D52*
%TO.N,Net-(R4-Pad2)*%
X65000000Y-74387500D02*
X65012500Y-74400000D01*
X65557500Y-76775000D02*
X65557500Y-74945000D01*
X65557500Y-74945000D02*
X65012500Y-74400000D01*
X65000000Y-72400000D02*
X65000000Y-74387500D01*
%TO.N,Net-(R6-Pad1)*%
X58612500Y-80250000D02*
X58612500Y-82250000D01*
X58612500Y-80250000D02*
X64423896Y-80250000D01*
X65557500Y-81383604D02*
X65557500Y-81725000D01*
X64423896Y-80250000D02*
X65557500Y-81383604D01*
%TO.N,Net-(R8-Pad1)*%
X66600000Y-84350000D02*
X66600000Y-86350000D01*
X66827500Y-84122500D02*
X66600000Y-84350000D01*
X66827500Y-81725000D02*
X66827500Y-84122500D01*
%TO.N,Net-(R8-Pad2)*%
X68097500Y-81725000D02*
X68097500Y-84022500D01*
X68097500Y-84022500D02*
X68425000Y-84350000D01*
X68425000Y-84350000D02*
X68925000Y-84350000D01*
X68925000Y-84350000D02*
X71275000Y-86700000D01*
D53*
%TO.N,Net-(R12-Pad1)*%
X99221208Y-86478792D02*
X104400000Y-81300000D01*
X90275000Y-86478792D02*
X99221208Y-86478792D01*
X104400000Y-81300000D02*
X104400000Y-76600000D01*
D52*
%TO.N,Net-(Rt1-Pad1)*%
X81098792Y-82700000D02*
X80112500Y-82700000D01*
X82095000Y-81703792D02*
X81098792Y-82700000D01*
%TO.N,/UC2844_ISENSE*%
X86505000Y-85642396D02*
X86505000Y-87945000D01*
X80600000Y-80000000D02*
X80600000Y-77600000D01*
X80600000Y-77600000D02*
X77000000Y-74000000D01*
X86241396Y-85378792D02*
X86505000Y-85642396D01*
X82700000Y-83300000D02*
X82700000Y-80600000D01*
X80900000Y-80300000D02*
X80600000Y-80000000D01*
X84635000Y-86653792D02*
X84635000Y-85235000D01*
X82400000Y-80300000D02*
X80900000Y-80300000D01*
X77000000Y-74000000D02*
X74000000Y-74000000D01*
X84778792Y-85378792D02*
X86241396Y-85378792D01*
X84635000Y-85235000D02*
X82700000Y-83300000D01*
X84635000Y-85235000D02*
X84778792Y-85378792D01*
X82700000Y-80600000D02*
X82400000Y-80300000D01*
X86505000Y-87945000D02*
X84600000Y-89850000D01*
%TO.N,/UC2844_GATE_OUTPUT*%
X86407082Y-84978792D02*
X85378792Y-84978792D01*
X88100000Y-87528792D02*
X88100000Y-89850000D01*
X86905000Y-85476710D02*
X86407082Y-84978792D01*
X87428792Y-87428792D02*
X86905000Y-86905000D01*
X85378792Y-84978792D02*
X84635000Y-84235000D01*
X86905000Y-86905000D02*
X86905000Y-85476710D01*
X88000000Y-87428792D02*
X88100000Y-87528792D01*
X84635000Y-84235000D02*
X84635000Y-81703792D01*
X88000000Y-87428792D02*
X87428792Y-87428792D01*
%TO.N,Net-(R2-Pad1)*%
X58612500Y-76250000D02*
X58612500Y-78250000D01*
X61747500Y-76775000D02*
X61747500Y-77116396D01*
X60613896Y-78250000D02*
X58612500Y-78250000D01*
X61747500Y-77116396D02*
X60613896Y-78250000D01*
%TO.N,Net-(TP9-Pad1)*%
X56295000Y-73905000D02*
X55500000Y-74700000D01*
X62500000Y-75500000D02*
X63017500Y-76017500D01*
X58850000Y-73905000D02*
X58905000Y-73905000D01*
X58850000Y-73905000D02*
X56295000Y-73905000D01*
X55500000Y-74700000D02*
X53083604Y-74700000D01*
X58905000Y-73905000D02*
X60500000Y-75500000D01*
X50600000Y-72216396D02*
X50600000Y-72200000D01*
X53083604Y-74700000D02*
X50600000Y-72216396D01*
X63017500Y-76017500D02*
X63017500Y-76775000D01*
X60500000Y-75500000D02*
X62500000Y-75500000D01*
D53*
%TO.N,Net-(A1-Pad26)*%
X50601264Y-99600000D02*
X55105000Y-99600000D01*
X44875000Y-93873736D02*
X50601264Y-99600000D01*
X44875000Y-85000000D02*
X44875000Y-93873736D01*
X55105000Y-99600000D02*
X73410000Y-117905000D01*
%TO.N,Net-(J4-Pad3)*%
X46850000Y-75250000D02*
X46850000Y-81550000D01*
X49955000Y-84655000D02*
X46850000Y-81550000D01*
X49955000Y-85000000D02*
X49955000Y-84655000D01*
%TD*%
M02*
