%TF.GenerationSoftware,KiCad,Pcbnew,(6.0.7)*%
%TF.CreationDate,2023-07-07T11:40:33-04:00*%
%TF.ProjectId,small_wind_turbine,736d616c-6c5f-4776-996e-645f74757262,rev?*%
%TF.SameCoordinates,Original*%
%TF.FileFunction,Legend,Bot*%
%TF.FilePolarity,Positive*%
%FSLAX46Y46*%
G04 Gerber Fmt 4.6, Leading zero omitted, Abs format (unit mm)*
G04 Created by KiCad (PCBNEW (6.0.7)) date 2023-07-07 11:40:33*
%MOMM*%
%LPD*%
G01*
G04 APERTURE LIST*
%ADD10C,0.250000*%
%ADD11C,0.500000*%
%ADD12C,0.300000*%
G04 APERTURE END LIST*
D10*
X95350000Y-44678571D02*
X95064285Y-44678571D01*
X94921428Y-44750000D01*
X94778571Y-44892857D01*
X94707142Y-45178571D01*
X94707142Y-45678571D01*
X94778571Y-45964285D01*
X94921428Y-46107142D01*
X95064285Y-46178571D01*
X95350000Y-46178571D01*
X95492857Y-46107142D01*
X95635714Y-45964285D01*
X95707142Y-45678571D01*
X95707142Y-45178571D01*
X95635714Y-44892857D01*
X95492857Y-44750000D01*
X95350000Y-44678571D01*
X93421428Y-45178571D02*
X93421428Y-46178571D01*
X94064285Y-45178571D02*
X94064285Y-45964285D01*
X93992857Y-46107142D01*
X93850000Y-46178571D01*
X93635714Y-46178571D01*
X93492857Y-46107142D01*
X93421428Y-46035714D01*
X92921428Y-45178571D02*
X92350000Y-45178571D01*
X92707142Y-44678571D02*
X92707142Y-45964285D01*
X92635714Y-46107142D01*
X92492857Y-46178571D01*
X92350000Y-46178571D01*
X47971071Y-53521428D02*
X46471071Y-53521428D01*
X46471071Y-53878571D01*
X46542500Y-54092857D01*
X46685357Y-54235714D01*
X46828214Y-54307142D01*
X47113928Y-54378571D01*
X47328214Y-54378571D01*
X47613928Y-54307142D01*
X47756785Y-54235714D01*
X47899642Y-54092857D01*
X47971071Y-53878571D01*
X47971071Y-53521428D01*
X47828214Y-55878571D02*
X47899642Y-55807142D01*
X47971071Y-55592857D01*
X47971071Y-55450000D01*
X47899642Y-55235714D01*
X47756785Y-55092857D01*
X47613928Y-55021428D01*
X47328214Y-54950000D01*
X47113928Y-54950000D01*
X46828214Y-55021428D01*
X46685357Y-55092857D01*
X46542500Y-55235714D01*
X46471071Y-55450000D01*
X46471071Y-55592857D01*
X46542500Y-55807142D01*
X46613928Y-55878571D01*
X47185357Y-58164285D02*
X47256785Y-58378571D01*
X47328214Y-58450000D01*
X47471071Y-58521428D01*
X47685357Y-58521428D01*
X47828214Y-58450000D01*
X47899642Y-58378571D01*
X47971071Y-58235714D01*
X47971071Y-57664285D01*
X46471071Y-57664285D01*
X46471071Y-58164285D01*
X46542500Y-58307142D01*
X46613928Y-58378571D01*
X46756785Y-58450000D01*
X46899642Y-58450000D01*
X47042500Y-58378571D01*
X47113928Y-58307142D01*
X47185357Y-58164285D01*
X47185357Y-57664285D01*
X47971071Y-59807142D02*
X47185357Y-59807142D01*
X47042500Y-59735714D01*
X46971071Y-59592857D01*
X46971071Y-59307142D01*
X47042500Y-59164285D01*
X47899642Y-59807142D02*
X47971071Y-59664285D01*
X47971071Y-59307142D01*
X47899642Y-59164285D01*
X47756785Y-59092857D01*
X47613928Y-59092857D01*
X47471071Y-59164285D01*
X47399642Y-59307142D01*
X47399642Y-59664285D01*
X47328214Y-59807142D01*
X46971071Y-60307142D02*
X46971071Y-60878571D01*
X46471071Y-60521428D02*
X47756785Y-60521428D01*
X47899642Y-60592857D01*
X47971071Y-60735714D01*
X47971071Y-60878571D01*
X46971071Y-61164285D02*
X46971071Y-61735714D01*
X46471071Y-61378571D02*
X47756785Y-61378571D01*
X47899642Y-61450000D01*
X47971071Y-61592857D01*
X47971071Y-61735714D01*
X47899642Y-62807142D02*
X47971071Y-62664285D01*
X47971071Y-62378571D01*
X47899642Y-62235714D01*
X47756785Y-62164285D01*
X47185357Y-62164285D01*
X47042500Y-62235714D01*
X46971071Y-62378571D01*
X46971071Y-62664285D01*
X47042500Y-62807142D01*
X47185357Y-62878571D01*
X47328214Y-62878571D01*
X47471071Y-62164285D01*
X47971071Y-63521428D02*
X46971071Y-63521428D01*
X47256785Y-63521428D02*
X47113928Y-63592857D01*
X47042500Y-63664285D01*
X46971071Y-63807142D01*
X46971071Y-63950000D01*
X46971071Y-64307142D02*
X47971071Y-64664285D01*
X46971071Y-65021428D02*
X47971071Y-64664285D01*
X48328214Y-64521428D01*
X48399642Y-64450000D01*
X48471071Y-64307142D01*
X50386071Y-55807142D02*
X50386071Y-54950000D01*
X50386071Y-55378571D02*
X48886071Y-55378571D01*
X49100357Y-55235714D01*
X49243214Y-55092857D01*
X49314642Y-54950000D01*
X49028928Y-56378571D02*
X48957500Y-56450000D01*
X48886071Y-56592857D01*
X48886071Y-56950000D01*
X48957500Y-57092857D01*
X49028928Y-57164285D01*
X49171785Y-57235714D01*
X49314642Y-57235714D01*
X49528928Y-57164285D01*
X50386071Y-56307142D01*
X50386071Y-57235714D01*
X48886071Y-57664285D02*
X50386071Y-58164285D01*
X48886071Y-58664285D01*
X48886071Y-60592857D02*
X48886071Y-60878571D01*
X48957500Y-61021428D01*
X49100357Y-61164285D01*
X49386071Y-61235714D01*
X49886071Y-61235714D01*
X50171785Y-61164285D01*
X50314642Y-61021428D01*
X50386071Y-60878571D01*
X50386071Y-60592857D01*
X50314642Y-60450000D01*
X50171785Y-60307142D01*
X49886071Y-60235714D01*
X49386071Y-60235714D01*
X49100357Y-60307142D01*
X48957500Y-60450000D01*
X48886071Y-60592857D01*
X49386071Y-62521428D02*
X50386071Y-62521428D01*
X49386071Y-61878571D02*
X50171785Y-61878571D01*
X50314642Y-61950000D01*
X50386071Y-62092857D01*
X50386071Y-62307142D01*
X50314642Y-62450000D01*
X50243214Y-62521428D01*
X49386071Y-63021428D02*
X49386071Y-63592857D01*
X48886071Y-63235714D02*
X50171785Y-63235714D01*
X50314642Y-63307142D01*
X50386071Y-63450000D01*
X50386071Y-63592857D01*
X121263571Y-63735714D02*
X119763571Y-63735714D01*
X119763571Y-64092857D01*
X119835000Y-64307142D01*
X119977857Y-64450000D01*
X120120714Y-64521428D01*
X120406428Y-64592857D01*
X120620714Y-64592857D01*
X120906428Y-64521428D01*
X121049285Y-64450000D01*
X121192142Y-64307142D01*
X121263571Y-64092857D01*
X121263571Y-63735714D01*
X120263571Y-65878571D02*
X121263571Y-65878571D01*
X120263571Y-65235714D02*
X121049285Y-65235714D01*
X121192142Y-65307142D01*
X121263571Y-65450000D01*
X121263571Y-65664285D01*
X121192142Y-65807142D01*
X121120714Y-65878571D01*
X121263571Y-66592857D02*
X120263571Y-66592857D01*
X120406428Y-66592857D02*
X120335000Y-66664285D01*
X120263571Y-66807142D01*
X120263571Y-67021428D01*
X120335000Y-67164285D01*
X120477857Y-67235714D01*
X121263571Y-67235714D01*
X120477857Y-67235714D02*
X120335000Y-67307142D01*
X120263571Y-67450000D01*
X120263571Y-67664285D01*
X120335000Y-67807142D01*
X120477857Y-67878571D01*
X121263571Y-67878571D01*
X120263571Y-68592857D02*
X121763571Y-68592857D01*
X120335000Y-68592857D02*
X120263571Y-68735714D01*
X120263571Y-69021428D01*
X120335000Y-69164285D01*
X120406428Y-69235714D01*
X120549285Y-69307142D01*
X120977857Y-69307142D01*
X121120714Y-69235714D01*
X121192142Y-69164285D01*
X121263571Y-69021428D01*
X121263571Y-68735714D01*
X121192142Y-68592857D01*
X121263571Y-71807142D02*
X121263571Y-71092857D01*
X119763571Y-71092857D01*
X121263571Y-72521428D02*
X121192142Y-72378571D01*
X121120714Y-72307142D01*
X120977857Y-72235714D01*
X120549285Y-72235714D01*
X120406428Y-72307142D01*
X120335000Y-72378571D01*
X120263571Y-72521428D01*
X120263571Y-72735714D01*
X120335000Y-72878571D01*
X120406428Y-72950000D01*
X120549285Y-73021428D01*
X120977857Y-73021428D01*
X121120714Y-72950000D01*
X121192142Y-72878571D01*
X121263571Y-72735714D01*
X121263571Y-72521428D01*
X121263571Y-74307142D02*
X120477857Y-74307142D01*
X120335000Y-74235714D01*
X120263571Y-74092857D01*
X120263571Y-73807142D01*
X120335000Y-73664285D01*
X121192142Y-74307142D02*
X121263571Y-74164285D01*
X121263571Y-73807142D01*
X121192142Y-73664285D01*
X121049285Y-73592857D01*
X120906428Y-73592857D01*
X120763571Y-73664285D01*
X120692142Y-73807142D01*
X120692142Y-74164285D01*
X120620714Y-74307142D01*
X121263571Y-75664285D02*
X119763571Y-75664285D01*
X121192142Y-75664285D02*
X121263571Y-75521428D01*
X121263571Y-75235714D01*
X121192142Y-75092857D01*
X121120714Y-75021428D01*
X120977857Y-74950000D01*
X120549285Y-74950000D01*
X120406428Y-75021428D01*
X120335000Y-75092857D01*
X120263571Y-75235714D01*
X120263571Y-75521428D01*
X120335000Y-75664285D01*
X122178571Y-61807142D02*
X122178571Y-62735714D01*
X122750000Y-62235714D01*
X122750000Y-62450000D01*
X122821428Y-62592857D01*
X122892857Y-62664285D01*
X123035714Y-62735714D01*
X123392857Y-62735714D01*
X123535714Y-62664285D01*
X123607142Y-62592857D01*
X123678571Y-62450000D01*
X123678571Y-62021428D01*
X123607142Y-61878571D01*
X123535714Y-61807142D01*
X122178571Y-63664285D02*
X122178571Y-63807142D01*
X122250000Y-63950000D01*
X122321428Y-64021428D01*
X122464285Y-64092857D01*
X122750000Y-64164285D01*
X123107142Y-64164285D01*
X123392857Y-64092857D01*
X123535714Y-64021428D01*
X123607142Y-63950000D01*
X123678571Y-63807142D01*
X123678571Y-63664285D01*
X123607142Y-63521428D01*
X123535714Y-63450000D01*
X123392857Y-63378571D01*
X123107142Y-63307142D01*
X122750000Y-63307142D01*
X122464285Y-63378571D01*
X122321428Y-63450000D01*
X122250000Y-63521428D01*
X122178571Y-63664285D01*
X122178571Y-65092857D02*
X122178571Y-65235714D01*
X122250000Y-65378571D01*
X122321428Y-65450000D01*
X122464285Y-65521428D01*
X122750000Y-65592857D01*
X123107142Y-65592857D01*
X123392857Y-65521428D01*
X123535714Y-65450000D01*
X123607142Y-65378571D01*
X123678571Y-65235714D01*
X123678571Y-65092857D01*
X123607142Y-64950000D01*
X123535714Y-64878571D01*
X123392857Y-64807142D01*
X123107142Y-64735714D01*
X122750000Y-64735714D01*
X122464285Y-64807142D01*
X122321428Y-64878571D01*
X122250000Y-64950000D01*
X122178571Y-65092857D01*
X122178571Y-66092857D02*
X123678571Y-66450000D01*
X122607142Y-66735714D01*
X123678571Y-67021428D01*
X122178571Y-67378571D01*
X123678571Y-69950000D02*
X122964285Y-69450000D01*
X123678571Y-69092857D02*
X122178571Y-69092857D01*
X122178571Y-69664285D01*
X122250000Y-69807142D01*
X122321428Y-69878571D01*
X122464285Y-69950000D01*
X122678571Y-69950000D01*
X122821428Y-69878571D01*
X122892857Y-69807142D01*
X122964285Y-69664285D01*
X122964285Y-69092857D01*
X123607142Y-71164285D02*
X123678571Y-71021428D01*
X123678571Y-70735714D01*
X123607142Y-70592857D01*
X123464285Y-70521428D01*
X122892857Y-70521428D01*
X122750000Y-70592857D01*
X122678571Y-70735714D01*
X122678571Y-71021428D01*
X122750000Y-71164285D01*
X122892857Y-71235714D01*
X123035714Y-71235714D01*
X123178571Y-70521428D01*
X123607142Y-71807142D02*
X123678571Y-71950000D01*
X123678571Y-72235714D01*
X123607142Y-72378571D01*
X123464285Y-72450000D01*
X123392857Y-72450000D01*
X123250000Y-72378571D01*
X123178571Y-72235714D01*
X123178571Y-72021428D01*
X123107142Y-71878571D01*
X122964285Y-71807142D01*
X122892857Y-71807142D01*
X122750000Y-71878571D01*
X122678571Y-72021428D01*
X122678571Y-72235714D01*
X122750000Y-72378571D01*
X123678571Y-73092857D02*
X122678571Y-73092857D01*
X122178571Y-73092857D02*
X122250000Y-73021428D01*
X122321428Y-73092857D01*
X122250000Y-73164285D01*
X122178571Y-73092857D01*
X122321428Y-73092857D01*
X123607142Y-73735714D02*
X123678571Y-73878571D01*
X123678571Y-74164285D01*
X123607142Y-74307142D01*
X123464285Y-74378571D01*
X123392857Y-74378571D01*
X123250000Y-74307142D01*
X123178571Y-74164285D01*
X123178571Y-73950000D01*
X123107142Y-73807142D01*
X122964285Y-73735714D01*
X122892857Y-73735714D01*
X122750000Y-73807142D01*
X122678571Y-73950000D01*
X122678571Y-74164285D01*
X122750000Y-74307142D01*
X122678571Y-74807142D02*
X122678571Y-75378571D01*
X122178571Y-75021428D02*
X123464285Y-75021428D01*
X123607142Y-75092857D01*
X123678571Y-75235714D01*
X123678571Y-75378571D01*
X123678571Y-76092857D02*
X123607142Y-75950000D01*
X123535714Y-75878571D01*
X123392857Y-75807142D01*
X122964285Y-75807142D01*
X122821428Y-75878571D01*
X122750000Y-75950000D01*
X122678571Y-76092857D01*
X122678571Y-76307142D01*
X122750000Y-76450000D01*
X122821428Y-76521428D01*
X122964285Y-76592857D01*
X123392857Y-76592857D01*
X123535714Y-76521428D01*
X123607142Y-76450000D01*
X123678571Y-76307142D01*
X123678571Y-76092857D01*
X123678571Y-77235714D02*
X122678571Y-77235714D01*
X122964285Y-77235714D02*
X122821428Y-77307142D01*
X122750000Y-77378571D01*
X122678571Y-77521428D01*
X122678571Y-77664285D01*
X126093571Y-68557142D02*
X126093571Y-67700000D01*
X126093571Y-68128571D02*
X124593571Y-68128571D01*
X124807857Y-67985714D01*
X124950714Y-67842857D01*
X125022142Y-67700000D01*
X124593571Y-69842857D02*
X124593571Y-69557142D01*
X124665000Y-69414285D01*
X124736428Y-69342857D01*
X124950714Y-69200000D01*
X125236428Y-69128571D01*
X125807857Y-69128571D01*
X125950714Y-69200000D01*
X126022142Y-69271428D01*
X126093571Y-69414285D01*
X126093571Y-69700000D01*
X126022142Y-69842857D01*
X125950714Y-69914285D01*
X125807857Y-69985714D01*
X125450714Y-69985714D01*
X125307857Y-69914285D01*
X125236428Y-69842857D01*
X125165000Y-69700000D01*
X125165000Y-69414285D01*
X125236428Y-69271428D01*
X125307857Y-69200000D01*
X125450714Y-69128571D01*
X126093571Y-70557142D02*
X126093571Y-70914285D01*
X125807857Y-70914285D01*
X125736428Y-70771428D01*
X125593571Y-70628571D01*
X125379285Y-70557142D01*
X125022142Y-70557142D01*
X124807857Y-70628571D01*
X124665000Y-70771428D01*
X124593571Y-70985714D01*
X124593571Y-71271428D01*
X124665000Y-71485714D01*
X124807857Y-71628571D01*
X125022142Y-71700000D01*
X125379285Y-71700000D01*
X125593571Y-71628571D01*
X125736428Y-71485714D01*
X125807857Y-71342857D01*
X126093571Y-71342857D01*
X126093571Y-71700000D01*
D11*
X42547619Y-64978571D02*
X44452380Y-64978571D01*
X43500000Y-65930952D02*
X43500000Y-64026190D01*
D10*
X84478571Y-46178571D02*
X84478571Y-44678571D01*
X83764285Y-45178571D02*
X83764285Y-46178571D01*
X83764285Y-45321428D02*
X83692857Y-45250000D01*
X83550000Y-45178571D01*
X83335714Y-45178571D01*
X83192857Y-45250000D01*
X83121428Y-45392857D01*
X83121428Y-46178571D01*
X99557142Y-35671071D02*
X99271428Y-35671071D01*
X99128571Y-35742500D01*
X98985714Y-35885357D01*
X98914285Y-36171071D01*
X98914285Y-36671071D01*
X98985714Y-36956785D01*
X99128571Y-37099642D01*
X99271428Y-37171071D01*
X99557142Y-37171071D01*
X99700000Y-37099642D01*
X99842857Y-36956785D01*
X99914285Y-36671071D01*
X99914285Y-36171071D01*
X99842857Y-35885357D01*
X99700000Y-35742500D01*
X99557142Y-35671071D01*
X98271428Y-36171071D02*
X98271428Y-37671071D01*
X98271428Y-36242500D02*
X98128571Y-36171071D01*
X97842857Y-36171071D01*
X97700000Y-36242500D01*
X97628571Y-36313928D01*
X97557142Y-36456785D01*
X97557142Y-36885357D01*
X97628571Y-37028214D01*
X97700000Y-37099642D01*
X97842857Y-37171071D01*
X98128571Y-37171071D01*
X98271428Y-37099642D01*
X97128571Y-36171071D02*
X96557142Y-36171071D01*
X96914285Y-35671071D02*
X96914285Y-36956785D01*
X96842857Y-37099642D01*
X96700000Y-37171071D01*
X96557142Y-37171071D01*
X96057142Y-37171071D02*
X96057142Y-36171071D01*
X96057142Y-35671071D02*
X96128571Y-35742500D01*
X96057142Y-35813928D01*
X95985714Y-35742500D01*
X96057142Y-35671071D01*
X96057142Y-35813928D01*
X95128571Y-37171071D02*
X95271428Y-37099642D01*
X95342857Y-37028214D01*
X95414285Y-36885357D01*
X95414285Y-36456785D01*
X95342857Y-36313928D01*
X95271428Y-36242500D01*
X95128571Y-36171071D01*
X94914285Y-36171071D01*
X94771428Y-36242500D01*
X94700000Y-36313928D01*
X94628571Y-36456785D01*
X94628571Y-36885357D01*
X94700000Y-37028214D01*
X94771428Y-37099642D01*
X94914285Y-37171071D01*
X95128571Y-37171071D01*
X93985714Y-36171071D02*
X93985714Y-37171071D01*
X93985714Y-36313928D02*
X93914285Y-36242500D01*
X93771428Y-36171071D01*
X93557142Y-36171071D01*
X93414285Y-36242500D01*
X93342857Y-36385357D01*
X93342857Y-37171071D01*
X91985714Y-37171071D02*
X91985714Y-36385357D01*
X92057142Y-36242500D01*
X92200000Y-36171071D01*
X92485714Y-36171071D01*
X92628571Y-36242500D01*
X91985714Y-37099642D02*
X92128571Y-37171071D01*
X92485714Y-37171071D01*
X92628571Y-37099642D01*
X92700000Y-36956785D01*
X92700000Y-36813928D01*
X92628571Y-36671071D01*
X92485714Y-36599642D01*
X92128571Y-36599642D01*
X91985714Y-36528214D01*
X91057142Y-37171071D02*
X91200000Y-37099642D01*
X91271428Y-36956785D01*
X91271428Y-35671071D01*
X89342857Y-37171071D02*
X89342857Y-35671071D01*
X88771428Y-35671071D01*
X88628571Y-35742500D01*
X88557142Y-35813928D01*
X88485714Y-35956785D01*
X88485714Y-36171071D01*
X88557142Y-36313928D01*
X88628571Y-36385357D01*
X88771428Y-36456785D01*
X89342857Y-36456785D01*
X87842857Y-37171071D02*
X87842857Y-36171071D01*
X87842857Y-36456785D02*
X87771428Y-36313928D01*
X87700000Y-36242500D01*
X87557142Y-36171071D01*
X87414285Y-36171071D01*
X86700000Y-37171071D02*
X86842857Y-37099642D01*
X86914285Y-37028214D01*
X86985714Y-36885357D01*
X86985714Y-36456785D01*
X86914285Y-36313928D01*
X86842857Y-36242500D01*
X86700000Y-36171071D01*
X86485714Y-36171071D01*
X86342857Y-36242500D01*
X86271428Y-36313928D01*
X86200000Y-36456785D01*
X86200000Y-36885357D01*
X86271428Y-37028214D01*
X86342857Y-37099642D01*
X86485714Y-37171071D01*
X86700000Y-37171071D01*
X85771428Y-36171071D02*
X85200000Y-36171071D01*
X85557142Y-35671071D02*
X85557142Y-36956785D01*
X85485714Y-37099642D01*
X85342857Y-37171071D01*
X85200000Y-37171071D01*
X84128571Y-37099642D02*
X84271428Y-37171071D01*
X84557142Y-37171071D01*
X84700000Y-37099642D01*
X84771428Y-36956785D01*
X84771428Y-36385357D01*
X84700000Y-36242500D01*
X84557142Y-36171071D01*
X84271428Y-36171071D01*
X84128571Y-36242500D01*
X84057142Y-36385357D01*
X84057142Y-36528214D01*
X84771428Y-36671071D01*
X82771428Y-37099642D02*
X82914285Y-37171071D01*
X83200000Y-37171071D01*
X83342857Y-37099642D01*
X83414285Y-37028214D01*
X83485714Y-36885357D01*
X83485714Y-36456785D01*
X83414285Y-36313928D01*
X83342857Y-36242500D01*
X83200000Y-36171071D01*
X82914285Y-36171071D01*
X82771428Y-36242500D01*
X82342857Y-36171071D02*
X81771428Y-36171071D01*
X82128571Y-35671071D02*
X82128571Y-36956785D01*
X82057142Y-37099642D01*
X81914285Y-37171071D01*
X81771428Y-37171071D01*
X81271428Y-37171071D02*
X81271428Y-36171071D01*
X81271428Y-35671071D02*
X81342857Y-35742500D01*
X81271428Y-35813928D01*
X81200000Y-35742500D01*
X81271428Y-35671071D01*
X81271428Y-35813928D01*
X80342857Y-37171071D02*
X80485714Y-37099642D01*
X80557142Y-37028214D01*
X80628571Y-36885357D01*
X80628571Y-36456785D01*
X80557142Y-36313928D01*
X80485714Y-36242500D01*
X80342857Y-36171071D01*
X80128571Y-36171071D01*
X79985714Y-36242500D01*
X79914285Y-36313928D01*
X79842857Y-36456785D01*
X79842857Y-36885357D01*
X79914285Y-37028214D01*
X79985714Y-37099642D01*
X80128571Y-37171071D01*
X80342857Y-37171071D01*
X79200000Y-36171071D02*
X79200000Y-37171071D01*
X79200000Y-36313928D02*
X79128571Y-36242500D01*
X78985714Y-36171071D01*
X78771428Y-36171071D01*
X78628571Y-36242500D01*
X78557142Y-36385357D01*
X78557142Y-37171071D01*
X97092857Y-38800357D02*
X96878571Y-38871785D01*
X96807142Y-38943214D01*
X96735714Y-39086071D01*
X96735714Y-39300357D01*
X96807142Y-39443214D01*
X96878571Y-39514642D01*
X97021428Y-39586071D01*
X97592857Y-39586071D01*
X97592857Y-38086071D01*
X97092857Y-38086071D01*
X96950000Y-38157500D01*
X96878571Y-38228928D01*
X96807142Y-38371785D01*
X96807142Y-38514642D01*
X96878571Y-38657500D01*
X96950000Y-38728928D01*
X97092857Y-38800357D01*
X97592857Y-38800357D01*
X96092857Y-39586071D02*
X96092857Y-38586071D01*
X96092857Y-38871785D02*
X96021428Y-38728928D01*
X95950000Y-38657500D01*
X95807142Y-38586071D01*
X95664285Y-38586071D01*
X94592857Y-39514642D02*
X94735714Y-39586071D01*
X95021428Y-39586071D01*
X95164285Y-39514642D01*
X95235714Y-39371785D01*
X95235714Y-38800357D01*
X95164285Y-38657500D01*
X95021428Y-38586071D01*
X94735714Y-38586071D01*
X94592857Y-38657500D01*
X94521428Y-38800357D01*
X94521428Y-38943214D01*
X95235714Y-39086071D01*
X93235714Y-39586071D02*
X93235714Y-38800357D01*
X93307142Y-38657500D01*
X93450000Y-38586071D01*
X93735714Y-38586071D01*
X93878571Y-38657500D01*
X93235714Y-39514642D02*
X93378571Y-39586071D01*
X93735714Y-39586071D01*
X93878571Y-39514642D01*
X93950000Y-39371785D01*
X93950000Y-39228928D01*
X93878571Y-39086071D01*
X93735714Y-39014642D01*
X93378571Y-39014642D01*
X93235714Y-38943214D01*
X92521428Y-39586071D02*
X92521428Y-38086071D01*
X92378571Y-39014642D02*
X91950000Y-39586071D01*
X91950000Y-38586071D02*
X92521428Y-39157500D01*
X91092857Y-39586071D02*
X91235714Y-39514642D01*
X91307142Y-39443214D01*
X91378571Y-39300357D01*
X91378571Y-38871785D01*
X91307142Y-38728928D01*
X91235714Y-38657500D01*
X91092857Y-38586071D01*
X90878571Y-38586071D01*
X90735714Y-38657500D01*
X90664285Y-38728928D01*
X90592857Y-38871785D01*
X90592857Y-39300357D01*
X90664285Y-39443214D01*
X90735714Y-39514642D01*
X90878571Y-39586071D01*
X91092857Y-39586071D01*
X89307142Y-38586071D02*
X89307142Y-39586071D01*
X89950000Y-38586071D02*
X89950000Y-39371785D01*
X89878571Y-39514642D01*
X89735714Y-39586071D01*
X89521428Y-39586071D01*
X89378571Y-39514642D01*
X89307142Y-39443214D01*
X88807142Y-38586071D02*
X88235714Y-38586071D01*
X88592857Y-38086071D02*
X88592857Y-39371785D01*
X88521428Y-39514642D01*
X88378571Y-39586071D01*
X88235714Y-39586071D01*
X86092857Y-38800357D02*
X85878571Y-38871785D01*
X85807142Y-38943214D01*
X85735714Y-39086071D01*
X85735714Y-39300357D01*
X85807142Y-39443214D01*
X85878571Y-39514642D01*
X86021428Y-39586071D01*
X86592857Y-39586071D01*
X86592857Y-38086071D01*
X86092857Y-38086071D01*
X85950000Y-38157500D01*
X85878571Y-38228928D01*
X85807142Y-38371785D01*
X85807142Y-38514642D01*
X85878571Y-38657500D01*
X85950000Y-38728928D01*
X86092857Y-38800357D01*
X86592857Y-38800357D01*
X84878571Y-39586071D02*
X85021428Y-39514642D01*
X85092857Y-39443214D01*
X85164285Y-39300357D01*
X85164285Y-38871785D01*
X85092857Y-38728928D01*
X85021428Y-38657500D01*
X84878571Y-38586071D01*
X84664285Y-38586071D01*
X84521428Y-38657500D01*
X84450000Y-38728928D01*
X84378571Y-38871785D01*
X84378571Y-39300357D01*
X84450000Y-39443214D01*
X84521428Y-39514642D01*
X84664285Y-39586071D01*
X84878571Y-39586071D01*
X83092857Y-39586071D02*
X83092857Y-38800357D01*
X83164285Y-38657500D01*
X83307142Y-38586071D01*
X83592857Y-38586071D01*
X83735714Y-38657500D01*
X83092857Y-39514642D02*
X83235714Y-39586071D01*
X83592857Y-39586071D01*
X83735714Y-39514642D01*
X83807142Y-39371785D01*
X83807142Y-39228928D01*
X83735714Y-39086071D01*
X83592857Y-39014642D01*
X83235714Y-39014642D01*
X83092857Y-38943214D01*
X82378571Y-39586071D02*
X82378571Y-38586071D01*
X82378571Y-38871785D02*
X82307142Y-38728928D01*
X82235714Y-38657500D01*
X82092857Y-38586071D01*
X81950000Y-38586071D01*
X80807142Y-39586071D02*
X80807142Y-38086071D01*
X80807142Y-39514642D02*
X80950000Y-39586071D01*
X81235714Y-39586071D01*
X81378571Y-39514642D01*
X81450000Y-39443214D01*
X81521428Y-39300357D01*
X81521428Y-38871785D01*
X81450000Y-38728928D01*
X81378571Y-38657500D01*
X81235714Y-38586071D01*
X80950000Y-38586071D01*
X80807142Y-38657500D01*
X90042857Y-44750000D02*
X90185714Y-44678571D01*
X90400000Y-44678571D01*
X90614285Y-44750000D01*
X90757142Y-44892857D01*
X90828571Y-45035714D01*
X90900000Y-45321428D01*
X90900000Y-45535714D01*
X90828571Y-45821428D01*
X90757142Y-45964285D01*
X90614285Y-46107142D01*
X90400000Y-46178571D01*
X90257142Y-46178571D01*
X90042857Y-46107142D01*
X89971428Y-46035714D01*
X89971428Y-45535714D01*
X90257142Y-45535714D01*
X89328571Y-46178571D02*
X89328571Y-44678571D01*
X88471428Y-46178571D01*
X88471428Y-44678571D01*
X87757142Y-46178571D02*
X87757142Y-44678571D01*
X87400000Y-44678571D01*
X87185714Y-44750000D01*
X87042857Y-44892857D01*
X86971428Y-45035714D01*
X86900000Y-45321428D01*
X86900000Y-45535714D01*
X86971428Y-45821428D01*
X87042857Y-45964285D01*
X87185714Y-46107142D01*
X87400000Y-46178571D01*
X87757142Y-46178571D01*
D11*
X42647619Y-53878571D02*
X44552380Y-53878571D01*
D10*
X46471071Y-39271428D02*
X46471071Y-40200000D01*
X47042500Y-39700000D01*
X47042500Y-39914285D01*
X47113928Y-40057142D01*
X47185357Y-40128571D01*
X47328214Y-40200000D01*
X47685357Y-40200000D01*
X47828214Y-40128571D01*
X47899642Y-40057142D01*
X47971071Y-39914285D01*
X47971071Y-39485714D01*
X47899642Y-39342857D01*
X47828214Y-39271428D01*
X47971071Y-41985714D02*
X46471071Y-41985714D01*
X46471071Y-42557142D01*
X46542500Y-42700000D01*
X46613928Y-42771428D01*
X46756785Y-42842857D01*
X46971071Y-42842857D01*
X47113928Y-42771428D01*
X47185357Y-42700000D01*
X47256785Y-42557142D01*
X47256785Y-41985714D01*
X47971071Y-43485714D02*
X46471071Y-43485714D01*
X47971071Y-44128571D02*
X47185357Y-44128571D01*
X47042500Y-44057142D01*
X46971071Y-43914285D01*
X46971071Y-43700000D01*
X47042500Y-43557142D01*
X47113928Y-43485714D01*
X47971071Y-45485714D02*
X47185357Y-45485714D01*
X47042500Y-45414285D01*
X46971071Y-45271428D01*
X46971071Y-44985714D01*
X47042500Y-44842857D01*
X47899642Y-45485714D02*
X47971071Y-45342857D01*
X47971071Y-44985714D01*
X47899642Y-44842857D01*
X47756785Y-44771428D01*
X47613928Y-44771428D01*
X47471071Y-44842857D01*
X47399642Y-44985714D01*
X47399642Y-45342857D01*
X47328214Y-45485714D01*
X47899642Y-46128571D02*
X47971071Y-46271428D01*
X47971071Y-46557142D01*
X47899642Y-46700000D01*
X47756785Y-46771428D01*
X47685357Y-46771428D01*
X47542500Y-46700000D01*
X47471071Y-46557142D01*
X47471071Y-46342857D01*
X47399642Y-46200000D01*
X47256785Y-46128571D01*
X47185357Y-46128571D01*
X47042500Y-46200000D01*
X46971071Y-46342857D01*
X46971071Y-46557142D01*
X47042500Y-46700000D01*
X47899642Y-47985714D02*
X47971071Y-47842857D01*
X47971071Y-47557142D01*
X47899642Y-47414285D01*
X47756785Y-47342857D01*
X47185357Y-47342857D01*
X47042500Y-47414285D01*
X46971071Y-47557142D01*
X46971071Y-47842857D01*
X47042500Y-47985714D01*
X47185357Y-48057142D01*
X47328214Y-48057142D01*
X47471071Y-47342857D01*
X48886071Y-38092857D02*
X48886071Y-37378571D01*
X49600357Y-37307142D01*
X49528928Y-37378571D01*
X49457500Y-37521428D01*
X49457500Y-37878571D01*
X49528928Y-38021428D01*
X49600357Y-38092857D01*
X49743214Y-38164285D01*
X50100357Y-38164285D01*
X50243214Y-38092857D01*
X50314642Y-38021428D01*
X50386071Y-37878571D01*
X50386071Y-37521428D01*
X50314642Y-37378571D01*
X50243214Y-37307142D01*
X48886071Y-39092857D02*
X48886071Y-39235714D01*
X48957500Y-39378571D01*
X49028928Y-39450000D01*
X49171785Y-39521428D01*
X49457500Y-39592857D01*
X49814642Y-39592857D01*
X50100357Y-39521428D01*
X50243214Y-39450000D01*
X50314642Y-39378571D01*
X50386071Y-39235714D01*
X50386071Y-39092857D01*
X50314642Y-38950000D01*
X50243214Y-38878571D01*
X50100357Y-38807142D01*
X49814642Y-38735714D01*
X49457500Y-38735714D01*
X49171785Y-38807142D01*
X49028928Y-38878571D01*
X48957500Y-38950000D01*
X48886071Y-39092857D01*
X48886071Y-40021428D02*
X50386071Y-40521428D01*
X48886071Y-41021428D01*
X49814642Y-41521428D02*
X49814642Y-42664285D01*
X49528928Y-43592857D02*
X49457500Y-43450000D01*
X49386071Y-43378571D01*
X49243214Y-43307142D01*
X49171785Y-43307142D01*
X49028928Y-43378571D01*
X48957500Y-43450000D01*
X48886071Y-43592857D01*
X48886071Y-43878571D01*
X48957500Y-44021428D01*
X49028928Y-44092857D01*
X49171785Y-44164285D01*
X49243214Y-44164285D01*
X49386071Y-44092857D01*
X49457500Y-44021428D01*
X49528928Y-43878571D01*
X49528928Y-43592857D01*
X49600357Y-43450000D01*
X49671785Y-43378571D01*
X49814642Y-43307142D01*
X50100357Y-43307142D01*
X50243214Y-43378571D01*
X50314642Y-43450000D01*
X50386071Y-43592857D01*
X50386071Y-43878571D01*
X50314642Y-44021428D01*
X50243214Y-44092857D01*
X50100357Y-44164285D01*
X49814642Y-44164285D01*
X49671785Y-44092857D01*
X49600357Y-44021428D01*
X49528928Y-43878571D01*
X48886071Y-45092857D02*
X48886071Y-45235714D01*
X48957500Y-45378571D01*
X49028928Y-45450000D01*
X49171785Y-45521428D01*
X49457500Y-45592857D01*
X49814642Y-45592857D01*
X50100357Y-45521428D01*
X50243214Y-45450000D01*
X50314642Y-45378571D01*
X50386071Y-45235714D01*
X50386071Y-45092857D01*
X50314642Y-44950000D01*
X50243214Y-44878571D01*
X50100357Y-44807142D01*
X49814642Y-44735714D01*
X49457500Y-44735714D01*
X49171785Y-44807142D01*
X49028928Y-44878571D01*
X48957500Y-44950000D01*
X48886071Y-45092857D01*
X48886071Y-46021428D02*
X50386071Y-46521428D01*
X48886071Y-47021428D01*
X50386071Y-48664285D02*
X48886071Y-48664285D01*
X49386071Y-49378571D02*
X50386071Y-49378571D01*
X49528928Y-49378571D02*
X49457500Y-49450000D01*
X49386071Y-49592857D01*
X49386071Y-49807142D01*
X49457500Y-49950000D01*
X49600357Y-50021428D01*
X50386071Y-50021428D01*
D12*
%TO.C,Gen*%
X125843428Y-96538000D02*
X125988571Y-96465428D01*
X126206285Y-96465428D01*
X126424000Y-96538000D01*
X126569142Y-96683142D01*
X126641714Y-96828285D01*
X126714285Y-97118571D01*
X126714285Y-97336285D01*
X126641714Y-97626571D01*
X126569142Y-97771714D01*
X126424000Y-97916857D01*
X126206285Y-97989428D01*
X126061142Y-97989428D01*
X125843428Y-97916857D01*
X125770857Y-97844285D01*
X125770857Y-97336285D01*
X126061142Y-97336285D01*
X124537142Y-97916857D02*
X124682285Y-97989428D01*
X124972571Y-97989428D01*
X125117714Y-97916857D01*
X125190285Y-97771714D01*
X125190285Y-97191142D01*
X125117714Y-97046000D01*
X124972571Y-96973428D01*
X124682285Y-96973428D01*
X124537142Y-97046000D01*
X124464571Y-97191142D01*
X124464571Y-97336285D01*
X125190285Y-97481428D01*
X123811428Y-96973428D02*
X123811428Y-97989428D01*
X123811428Y-97118571D02*
X123738857Y-97046000D01*
X123593714Y-96973428D01*
X123376000Y-96973428D01*
X123230857Y-97046000D01*
X123158285Y-97191142D01*
X123158285Y-97989428D01*
G36*
X99121892Y-91183725D02*
G01*
X99281941Y-91233379D01*
X99344768Y-91397365D01*
X99355650Y-91743596D01*
X99349908Y-91911865D01*
X99305147Y-92194817D01*
X99230526Y-92306650D01*
X99225880Y-92306385D01*
X99140634Y-92188146D01*
X99105403Y-91919567D01*
X99105341Y-91905000D01*
X99046514Y-91601750D01*
X98855157Y-91467042D01*
X98749084Y-91432567D01*
X98612410Y-91321555D01*
X98695808Y-91223045D01*
X98980280Y-91180542D01*
X99121892Y-91183725D01*
G37*
G36*
X60817719Y-88350421D02*
G01*
X60802285Y-88606297D01*
X60707589Y-88766295D01*
X60473630Y-88826172D01*
X60241530Y-88896343D01*
X60129541Y-89053448D01*
X60209228Y-89189217D01*
X60473630Y-89280725D01*
X60709510Y-89339826D01*
X60817719Y-89437129D01*
X60797003Y-89498772D01*
X60629545Y-89565411D01*
X60369320Y-89543565D01*
X60107842Y-89448109D01*
X59936624Y-89293917D01*
X59853224Y-89048915D01*
X59934244Y-88761152D01*
X60251458Y-88554175D01*
X60405627Y-88483684D01*
X60554175Y-88336960D01*
X60466695Y-88223262D01*
X60152392Y-88177586D01*
X59928440Y-88190951D01*
X59771244Y-88271463D01*
X59652958Y-88477091D01*
X59520382Y-88865763D01*
X59412080Y-89160579D01*
X59265122Y-89444282D01*
X59145013Y-89553941D01*
X59121380Y-89545670D01*
X59001570Y-89386267D01*
X58855963Y-89082300D01*
X58714672Y-88710743D01*
X58607814Y-88348568D01*
X58565502Y-88072746D01*
X58598861Y-87922007D01*
X58693372Y-87956745D01*
X58822256Y-88166926D01*
X58958484Y-88521675D01*
X59145155Y-89116010D01*
X59334375Y-88552956D01*
X59448142Y-88240092D01*
X59575798Y-88060003D01*
X59789303Y-87983639D01*
X60170657Y-87952082D01*
X60817719Y-87914262D01*
X60817719Y-88350421D01*
G37*
G36*
X109145163Y-62030483D02*
G01*
X109240379Y-62151970D01*
X109236743Y-62181878D01*
X109115256Y-62277093D01*
X109085348Y-62273458D01*
X108990132Y-62151970D01*
X108993768Y-62122063D01*
X109115256Y-62026847D01*
X109145163Y-62030483D01*
G37*
G36*
X124128626Y-95368433D02*
G01*
X124093103Y-95791235D01*
X124018578Y-96031176D01*
X123916898Y-96065802D01*
X123799912Y-95872660D01*
X123747630Y-95785735D01*
X123562530Y-95684975D01*
X123439088Y-95653558D01*
X123212700Y-95500506D01*
X123164138Y-95453286D01*
X123035613Y-95381778D01*
X122954401Y-95508437D01*
X122879082Y-95629200D01*
X122762744Y-95621183D01*
X122667814Y-95435822D01*
X122628556Y-95114537D01*
X122628395Y-95087572D01*
X122617669Y-95018429D01*
X123402265Y-95018429D01*
X123464430Y-95264490D01*
X123586605Y-95403232D01*
X123702883Y-95341178D01*
X123754664Y-95069786D01*
X123709602Y-94781095D01*
X123558669Y-94683990D01*
X123420039Y-94757838D01*
X123402265Y-95018429D01*
X122617669Y-95018429D01*
X122580788Y-94780696D01*
X122440871Y-94683990D01*
X122381990Y-94695075D01*
X122282925Y-94842990D01*
X122253187Y-95194910D01*
X122211055Y-95514318D01*
X122107210Y-95660429D01*
X121987718Y-95600467D01*
X121898728Y-95318359D01*
X121894768Y-95289873D01*
X121901286Y-94840394D01*
X122043526Y-94541944D01*
X122303539Y-94433744D01*
X122502402Y-94391602D01*
X122668103Y-94170908D01*
X122745900Y-94006470D01*
X122862236Y-93994312D01*
X122962897Y-94161507D01*
X123007730Y-94472409D01*
X123015022Y-94669854D01*
X123052297Y-94763006D01*
X123139071Y-94652709D01*
X123310658Y-94504831D01*
X123698320Y-94433744D01*
X124130034Y-94433744D01*
X124130034Y-95247044D01*
X124128626Y-95368433D01*
G37*
G36*
X95634135Y-58465882D02*
G01*
X95920450Y-58705396D01*
X95926533Y-58711475D01*
X96127984Y-58899187D01*
X96211226Y-58914530D01*
X96227571Y-58767958D01*
X96250260Y-58627942D01*
X96352694Y-58523399D01*
X96385709Y-58542225D01*
X96452338Y-58730370D01*
X96479733Y-59055172D01*
X96480553Y-59122769D01*
X96536708Y-59595865D01*
X96678583Y-59843328D01*
X96903120Y-59859352D01*
X96992960Y-59794389D01*
X97078136Y-59566524D01*
X97103433Y-59142515D01*
X97111632Y-58860781D01*
X97160597Y-58605434D01*
X97259837Y-58553977D01*
X97334113Y-58624449D01*
X97419510Y-58883630D01*
X97456034Y-59242585D01*
X97437129Y-59610103D01*
X97356238Y-59894973D01*
X97323774Y-59945653D01*
X97078227Y-60116733D01*
X96758523Y-60163926D01*
X96462171Y-60087790D01*
X96286681Y-59888879D01*
X96203804Y-59627758D01*
X96016114Y-59895723D01*
X95968071Y-59958236D01*
X95739659Y-60109206D01*
X95380773Y-60125563D01*
X95324507Y-60119453D01*
X95027213Y-60038492D01*
X94875856Y-59913376D01*
X94865466Y-59872951D01*
X94919927Y-59791165D01*
X95159679Y-59824921D01*
X95492038Y-59838809D01*
X95755662Y-59672484D01*
X95852201Y-59336699D01*
X95783240Y-59046354D01*
X95543783Y-58848032D01*
X95175992Y-58844383D01*
X95077566Y-58863337D01*
X94878515Y-58831674D01*
X94878744Y-58700723D01*
X95093237Y-58527801D01*
X95093984Y-58527401D01*
X95390800Y-58413453D01*
X95634135Y-58465882D01*
G37*
G36*
X109681496Y-62402219D02*
G01*
X109884581Y-62431953D01*
X109972252Y-62568008D01*
X109991118Y-62881855D01*
X109989854Y-62961580D01*
X109958194Y-63279419D01*
X109897275Y-63456867D01*
X109888515Y-63463949D01*
X109815285Y-63398897D01*
X109763689Y-63157739D01*
X109762923Y-63150420D01*
X109681631Y-62856095D01*
X109544724Y-62694463D01*
X109541235Y-62693114D01*
X109375083Y-62568377D01*
X109429202Y-62452975D01*
X109678310Y-62402217D01*
X109681496Y-62402219D01*
G37*
G36*
X63841095Y-89691172D02*
G01*
X63896197Y-89879227D01*
X63932631Y-90263003D01*
X63945797Y-90801245D01*
X63946354Y-91004010D01*
X63957008Y-91467929D01*
X63986852Y-91736411D01*
X64043229Y-91850541D01*
X64133482Y-91851405D01*
X64171639Y-91837809D01*
X64300732Y-91839268D01*
X64279473Y-91991708D01*
X64106505Y-92318625D01*
X64087313Y-92350648D01*
X63925694Y-92585716D01*
X63820674Y-92682020D01*
X63801249Y-92674081D01*
X63678143Y-92533234D01*
X63518103Y-92288620D01*
X63379369Y-92035042D01*
X63320182Y-91867308D01*
X63345969Y-91832862D01*
X63507866Y-91851405D01*
X63541814Y-91861108D01*
X63620089Y-91827443D01*
X63666908Y-91666969D01*
X63689614Y-91338598D01*
X63695551Y-90801245D01*
X63696901Y-90618098D01*
X63717869Y-90123915D01*
X63760660Y-89797152D01*
X63820674Y-89679064D01*
X63841095Y-89691172D01*
G37*
G36*
X75639058Y-52339539D02*
G01*
X75827822Y-52413003D01*
X75933011Y-52577574D01*
X75957620Y-52906421D01*
X75924260Y-53239911D01*
X75843233Y-53381234D01*
X75750989Y-53304040D01*
X75684021Y-52996335D01*
X75682853Y-52984909D01*
X75602967Y-52662300D01*
X75485148Y-52543339D01*
X75378469Y-52635184D01*
X75332004Y-52944992D01*
X75330622Y-53011469D01*
X75288809Y-53283173D01*
X75206881Y-53393350D01*
X75138158Y-53317083D01*
X75092389Y-53078049D01*
X75087276Y-52769731D01*
X75123346Y-52489158D01*
X75201127Y-52333359D01*
X75356089Y-52304718D01*
X75639058Y-52339539D01*
G37*
G36*
X77569248Y-76872552D02*
G01*
X77524482Y-77176959D01*
X77459098Y-77291872D01*
X77376806Y-77214209D01*
X77333975Y-76979064D01*
X77325686Y-76816896D01*
X77259259Y-76688517D01*
X77098476Y-76749494D01*
X76810353Y-77001223D01*
X76800021Y-77011050D01*
X76543683Y-77205007D01*
X76383912Y-77245866D01*
X76362300Y-77145745D01*
X76520440Y-76916761D01*
X76547048Y-76886640D01*
X76677677Y-76645154D01*
X76616373Y-76376209D01*
X76581285Y-76288358D01*
X76573708Y-76139095D01*
X76872556Y-76139095D01*
X76973856Y-76302960D01*
X77122201Y-76383293D01*
X77286090Y-76378459D01*
X77333975Y-76165763D01*
X77299845Y-76019696D01*
X77153674Y-75915517D01*
X76957746Y-75977896D01*
X76872556Y-76139095D01*
X76573708Y-76139095D01*
X76564522Y-75958137D01*
X76760939Y-75742472D01*
X77152507Y-75665271D01*
X77584221Y-75665271D01*
X77584221Y-76478571D01*
X77569248Y-76872552D01*
G37*
G36*
X55681665Y-75600804D02*
G01*
X55717405Y-75612904D01*
X55915824Y-75742430D01*
X55881591Y-75862597D01*
X55625108Y-75915517D01*
X55421231Y-75953049D01*
X55312300Y-76093602D01*
X55316301Y-76126750D01*
X55421572Y-76358420D01*
X55625108Y-76643437D01*
X55678103Y-76708419D01*
X55863149Y-76975171D01*
X55937916Y-77153530D01*
X55927611Y-77182377D01*
X55757462Y-77260948D01*
X55437423Y-77291872D01*
X55325233Y-77288681D01*
X55047934Y-77245101D01*
X54936930Y-77166749D01*
X55019365Y-77083354D01*
X55258820Y-77041626D01*
X55580709Y-77041626D01*
X55321381Y-76711944D01*
X55146162Y-76408915D01*
X55079762Y-76051722D01*
X55158873Y-75760984D01*
X55365504Y-75592184D01*
X55681665Y-75600804D01*
G37*
G36*
X72238324Y-53163274D02*
G01*
X72342839Y-53197142D01*
X72343090Y-53196986D01*
X72423427Y-53020736D01*
X72416600Y-52709808D01*
X72416175Y-52707168D01*
X72402145Y-52374104D01*
X72458569Y-52135004D01*
X72566322Y-52017311D01*
X72663261Y-52085372D01*
X72715114Y-52386267D01*
X72719243Y-52912127D01*
X72704418Y-53369328D01*
X72050613Y-53374393D01*
X71744748Y-53366237D01*
X71414243Y-53291894D01*
X71250453Y-53112980D01*
X71218756Y-52892857D01*
X71515748Y-52892857D01*
X71523267Y-52987150D01*
X71620085Y-53192591D01*
X71771498Y-53239602D01*
X71904439Y-53090947D01*
X71914381Y-53062481D01*
X71929819Y-52798085D01*
X71835741Y-52595791D01*
X71672086Y-52548790D01*
X71574706Y-52645223D01*
X71515748Y-52892857D01*
X71218756Y-52892857D01*
X71204856Y-52796332D01*
X71250698Y-52607428D01*
X71456766Y-52391077D01*
X71742602Y-52302293D01*
X72012535Y-52389289D01*
X72142163Y-52594579D01*
X72181321Y-52798085D01*
X72203926Y-52915562D01*
X72238324Y-53163274D01*
G37*
G36*
X68050836Y-81848558D02*
G01*
X67786476Y-82123227D01*
X67522117Y-82397896D01*
X67247447Y-82133536D01*
X66972778Y-81869176D01*
X67501498Y-81319838D01*
X68050836Y-81848558D01*
G37*
G36*
X80903017Y-53203402D02*
G01*
X80662078Y-53370741D01*
X80356185Y-53375820D01*
X80088033Y-53207290D01*
X80038028Y-53128751D01*
X79995860Y-52821512D01*
X80036902Y-52708049D01*
X80254801Y-52708049D01*
X80274724Y-53019100D01*
X80375402Y-53211754D01*
X80527752Y-53265040D01*
X80657459Y-53122595D01*
X80712300Y-52809442D01*
X80675589Y-52624999D01*
X80532000Y-52517488D01*
X80411958Y-52536885D01*
X80254801Y-52708049D01*
X80036902Y-52708049D01*
X80106175Y-52516540D01*
X80336102Y-52330066D01*
X80594870Y-52312131D01*
X80856619Y-52461600D01*
X80991769Y-52748702D01*
X80985082Y-52809442D01*
X80951793Y-53111823D01*
X80903017Y-53203402D01*
G37*
G36*
X79836438Y-52859569D02*
G01*
X79831922Y-53001454D01*
X79787614Y-53281886D01*
X79711315Y-53393350D01*
X79694894Y-53389567D01*
X79617618Y-53244878D01*
X79586192Y-52955419D01*
X79585852Y-52915534D01*
X79537322Y-52612452D01*
X79398507Y-52517488D01*
X79381413Y-52518279D01*
X79251521Y-52631517D01*
X79210822Y-52955419D01*
X79209741Y-53012891D01*
X79168402Y-53283356D01*
X79085699Y-53393350D01*
X79067147Y-53388397D01*
X78991323Y-53238566D01*
X78960576Y-52944992D01*
X78960536Y-52933741D01*
X78911809Y-52629891D01*
X78804188Y-52543812D01*
X78686747Y-52668346D01*
X78608559Y-52996335D01*
X78559886Y-53249919D01*
X78464438Y-53382666D01*
X78374707Y-53285152D01*
X78334960Y-52962803D01*
X78362613Y-52666840D01*
X78490106Y-52460560D01*
X78766912Y-52359914D01*
X79242103Y-52330706D01*
X79836438Y-52325789D01*
X79836438Y-52859569D01*
G37*
G36*
X111017304Y-63210173D02*
G01*
X110985824Y-63275038D01*
X110808125Y-63472029D01*
X110523581Y-63491395D01*
X110346353Y-63455079D01*
X110228893Y-63358045D01*
X110171433Y-63139971D01*
X110153709Y-62902709D01*
X110429049Y-62902709D01*
X110436568Y-62997002D01*
X110533386Y-63202443D01*
X110684798Y-63249455D01*
X110817739Y-63100799D01*
X110827681Y-63072333D01*
X110843119Y-62807938D01*
X110749041Y-62605643D01*
X110585387Y-62558643D01*
X110488007Y-62655075D01*
X110429049Y-62902709D01*
X110153709Y-62902709D01*
X110141277Y-62736283D01*
X110134539Y-62468862D01*
X110162155Y-62143848D01*
X110235120Y-62026847D01*
X110292648Y-62045035D01*
X110366487Y-62205829D01*
X110421680Y-62322380D01*
X110635236Y-62424795D01*
X110943934Y-62559455D01*
X111070902Y-62807938D01*
X111086520Y-62838504D01*
X111017304Y-63210173D01*
G37*
G36*
X60553302Y-92977143D02*
G01*
X60814673Y-93148777D01*
X60889347Y-93403707D01*
X60745737Y-93693413D01*
X60555640Y-93845364D01*
X60297833Y-93933251D01*
X60169893Y-93966516D01*
X60066980Y-94130366D01*
X60141019Y-94270477D01*
X60411068Y-94304792D01*
X60591144Y-94294908D01*
X60853816Y-94303295D01*
X60902962Y-94367315D01*
X60762523Y-94500285D01*
X60563403Y-94624663D01*
X60265343Y-94659410D01*
X59973137Y-94462146D01*
X59851692Y-94347094D01*
X59720246Y-94314280D01*
X59563841Y-94471717D01*
X59350848Y-94629445D01*
X59032068Y-94617435D01*
X58917304Y-94584513D01*
X58766958Y-94488049D01*
X58703605Y-94291385D01*
X58690625Y-93919687D01*
X58698479Y-93706780D01*
X58743705Y-93420026D01*
X58815748Y-93307635D01*
X58843796Y-93320398D01*
X58913121Y-93494718D01*
X58940871Y-93808128D01*
X58955039Y-94097011D01*
X59027397Y-94266650D01*
X59191118Y-94308621D01*
X59338516Y-94278455D01*
X59421022Y-94131125D01*
X59441364Y-93800744D01*
X59443705Y-93690835D01*
X59484341Y-93426514D01*
X59566487Y-93370197D01*
X59650529Y-93507001D01*
X59695415Y-93784232D01*
X59699496Y-93911038D01*
X59733124Y-94020889D01*
X59818940Y-93915936D01*
X59965614Y-93768647D01*
X60253066Y-93632025D01*
X60460543Y-93529672D01*
X60567472Y-93352173D01*
X60562103Y-93293205D01*
X60462811Y-93202039D01*
X60192103Y-93226305D01*
X60114493Y-93240444D01*
X59882621Y-93238786D01*
X59816733Y-93116823D01*
X59816890Y-93109399D01*
X59925730Y-92975097D01*
X60250262Y-92932266D01*
X60553302Y-92977143D01*
G37*
G36*
X127683725Y-94077544D02*
G01*
X127727655Y-94214778D01*
X127688767Y-94325694D01*
X127584822Y-94633369D01*
X127453967Y-95028079D01*
X127434641Y-95085975D01*
X127270363Y-95486991D01*
X127117177Y-95658750D01*
X126961433Y-95596958D01*
X126789481Y-95297320D01*
X126587668Y-94755543D01*
X126519739Y-94552110D01*
X126423821Y-94251070D01*
X126400003Y-94106225D01*
X126445995Y-94060889D01*
X126559508Y-94058374D01*
X126617290Y-94080338D01*
X126772502Y-94269761D01*
X126917285Y-94590148D01*
X127097804Y-95121921D01*
X127260325Y-94590148D01*
X127304776Y-94460571D01*
X127455273Y-94170177D01*
X127604113Y-94058374D01*
X127683725Y-94077544D01*
G37*
G36*
X125059393Y-94009648D02*
G01*
X125222364Y-94115229D01*
X125222038Y-94247585D01*
X125005896Y-94308621D01*
X124986318Y-94309178D01*
X124798165Y-94402249D01*
X124764925Y-94577137D01*
X124912054Y-94721767D01*
X124976362Y-94804666D01*
X124830376Y-94963458D01*
X124740377Y-95048108D01*
X124670601Y-95249190D01*
X124797218Y-95380816D01*
X125082108Y-95379922D01*
X125261756Y-95359219D01*
X125383547Y-95433907D01*
X125297850Y-95601560D01*
X125149250Y-95657851D01*
X124864321Y-95684975D01*
X124722519Y-95666597D01*
X124453649Y-95516920D01*
X124304589Y-95279107D01*
X124336436Y-95029074D01*
X124390921Y-94845927D01*
X124403197Y-94536419D01*
X124401523Y-94490218D01*
X124500696Y-94180628D01*
X124745096Y-94000280D01*
X125059393Y-94009648D01*
G37*
G36*
X58549828Y-94302450D02*
G01*
X58539108Y-94683206D01*
X58501110Y-94919322D01*
X58479772Y-94971897D01*
X58401141Y-95056497D01*
X58275038Y-94926482D01*
X58174127Y-94819843D01*
X57907523Y-94648467D01*
X57844688Y-94619868D01*
X57592907Y-94363818D01*
X57481491Y-93995601D01*
X57503047Y-93865705D01*
X57743000Y-93865705D01*
X57769515Y-94120936D01*
X57823489Y-94207545D01*
X58024145Y-94308621D01*
X58034729Y-94308100D01*
X58144716Y-94197819D01*
X58169568Y-93969883D01*
X58114964Y-93732412D01*
X57986583Y-93593524D01*
X57974309Y-93590114D01*
X57824740Y-93656024D01*
X57743000Y-93865705D01*
X57503047Y-93865705D01*
X57544893Y-93613545D01*
X57614086Y-93483078D01*
X57790101Y-93343828D01*
X58096750Y-93339687D01*
X58312790Y-93374022D01*
X58448427Y-93461336D01*
X58510653Y-93664709D01*
X58534879Y-93969883D01*
X58541328Y-94051128D01*
X58549828Y-94302450D01*
G37*
G36*
X109153632Y-62429827D02*
G01*
X109215829Y-62634311D01*
X109240379Y-62972655D01*
X109236376Y-63134226D01*
X109194763Y-63406411D01*
X109115256Y-63465763D01*
X109091459Y-63442048D01*
X109019218Y-63228494D01*
X108990132Y-62895325D01*
X108993043Y-62789673D01*
X109036425Y-62513111D01*
X109115256Y-62402217D01*
X109153632Y-62429827D01*
G37*
G36*
X100981525Y-91871207D02*
G01*
X100960041Y-92165226D01*
X100889886Y-92280886D01*
X100745855Y-92274018D01*
X100597850Y-92258159D01*
X100339205Y-92323119D01*
X100246621Y-92367595D01*
X99952458Y-92404858D01*
X99667861Y-92345561D01*
X99509035Y-92206086D01*
X99548912Y-92092206D01*
X99799070Y-92080963D01*
X100045972Y-92066345D01*
X100197533Y-91962561D01*
X100146074Y-91848140D01*
X99866569Y-91806158D01*
X99778086Y-91804108D01*
X99545315Y-91743229D01*
X99480773Y-91571232D01*
X99502275Y-91500734D01*
X99856142Y-91500734D01*
X99879614Y-91526895D01*
X100051211Y-91555911D01*
X100140504Y-91537560D01*
X100167689Y-91428747D01*
X100112807Y-91381340D01*
X99947829Y-91383942D01*
X99856142Y-91500734D01*
X99502275Y-91500734D01*
X99568896Y-91282302D01*
X99826852Y-91112237D01*
X100198606Y-91123896D01*
X100480465Y-91180438D01*
X100763285Y-91192565D01*
X100773867Y-91191344D01*
X100904421Y-91222746D01*
X100966490Y-91390242D01*
X100968175Y-91428747D01*
X100982251Y-91750324D01*
X100981525Y-91871207D01*
G37*
G36*
X75957620Y-75801836D02*
G01*
X76068571Y-75912011D01*
X75988901Y-75998031D01*
X75963105Y-76013832D01*
X75869845Y-76206620D01*
X75835435Y-76507309D01*
X75863489Y-76802567D01*
X75957620Y-76979064D01*
X75991791Y-77004674D01*
X76082743Y-77174133D01*
X76079030Y-77192364D01*
X75942868Y-77266204D01*
X75690679Y-77289254D01*
X75432295Y-77260733D01*
X75277546Y-77179860D01*
X75268225Y-77113882D01*
X75395285Y-76996102D01*
X75455700Y-76956526D01*
X75552106Y-76730666D01*
X75582251Y-76294814D01*
X75590087Y-75977630D01*
X75638469Y-75736622D01*
X75752774Y-75688800D01*
X75957620Y-75801836D01*
G37*
G36*
X76998874Y-53311339D02*
G01*
X76825399Y-53373441D01*
X76558540Y-53391186D01*
X76311772Y-53366050D01*
X76198568Y-53299507D01*
X76183074Y-53190660D01*
X76174788Y-53143103D01*
X76395551Y-53143103D01*
X76421197Y-53177639D01*
X76583236Y-53268226D01*
X76616710Y-53263349D01*
X76770921Y-53143103D01*
X76760847Y-53065007D01*
X76583236Y-53017980D01*
X76434849Y-53045525D01*
X76395551Y-53143103D01*
X76174788Y-53143103D01*
X76137871Y-52931211D01*
X76129969Y-52872540D01*
X76179280Y-52642611D01*
X76395551Y-52642611D01*
X76402842Y-52719567D01*
X76575851Y-52767734D01*
X76728370Y-52743288D01*
X76833482Y-52642611D01*
X76814897Y-52587446D01*
X76653182Y-52517488D01*
X76576589Y-52527482D01*
X76395551Y-52642611D01*
X76179280Y-52642611D01*
X76195607Y-52566478D01*
X76399764Y-52357383D01*
X76669927Y-52292078D01*
X76933581Y-52417389D01*
X76988381Y-52496484D01*
X77029987Y-52642611D01*
X77069028Y-52779726D01*
X77076298Y-53094912D01*
X77059268Y-53143103D01*
X77000313Y-53309934D01*
X76998874Y-53311339D01*
G37*
G36*
X102016085Y-90824292D02*
G01*
X102045797Y-90930295D01*
X102020153Y-90968150D01*
X101920674Y-91055419D01*
X101902576Y-91049531D01*
X101795551Y-90930295D01*
X101785530Y-90864026D01*
X101920674Y-90805172D01*
X102016085Y-90824292D01*
G37*
G36*
X73829475Y-53254743D02*
G01*
X73697564Y-53354796D01*
X73392595Y-53393350D01*
X73274195Y-53392449D01*
X73053521Y-53357669D01*
X72968589Y-53218194D01*
X72960819Y-53041356D01*
X73233556Y-53041356D01*
X73237435Y-53052153D01*
X73357167Y-53197806D01*
X73506817Y-53248869D01*
X73580280Y-53166917D01*
X73554241Y-53096574D01*
X73382140Y-52968720D01*
X73272648Y-52947147D01*
X73233556Y-53041356D01*
X72960819Y-53041356D01*
X72954664Y-52901289D01*
X72956052Y-52835146D01*
X73048002Y-52462867D01*
X73275145Y-52294516D01*
X73625215Y-52340352D01*
X73676041Y-52361876D01*
X73825300Y-52488913D01*
X73762535Y-52579151D01*
X73517719Y-52568869D01*
X73307840Y-52545936D01*
X73204911Y-52629046D01*
X73248593Y-52708158D01*
X73447773Y-52767734D01*
X73591066Y-52786274D01*
X73761694Y-52882711D01*
X73766937Y-52889724D01*
X73929033Y-52909466D01*
X74207010Y-52810985D01*
X74376942Y-52719783D01*
X74555241Y-52590878D01*
X74538822Y-52537947D01*
X74316215Y-52584748D01*
X74127457Y-52611860D01*
X74107677Y-52499337D01*
X74212609Y-52391787D01*
X74466569Y-52329803D01*
X74467396Y-52329803D01*
X74729739Y-52413868D01*
X74830258Y-52606587D01*
X74761914Y-52820178D01*
X74517666Y-52966860D01*
X74299803Y-53059966D01*
X74316555Y-53178689D01*
X74420884Y-53236507D01*
X74638524Y-53147504D01*
X74667169Y-53124158D01*
X74800235Y-53057341D01*
X74831512Y-53190344D01*
X74736471Y-53330841D01*
X74497913Y-53394267D01*
X74213398Y-53367078D01*
X73980674Y-53243202D01*
X73867458Y-53156151D01*
X73862890Y-53166917D01*
X73830526Y-53243202D01*
X73829475Y-53254743D01*
G37*
G36*
X60802537Y-91636196D02*
G01*
X60757824Y-91941381D01*
X60692595Y-92056404D01*
X60610303Y-91978741D01*
X60567472Y-91743596D01*
X60537129Y-91537884D01*
X60445234Y-91430788D01*
X60301374Y-91520126D01*
X60118035Y-91743596D01*
X59924958Y-91960370D01*
X59731261Y-92056404D01*
X59660397Y-92045300D01*
X59647298Y-91948431D01*
X59792441Y-91712315D01*
X59862535Y-91607429D01*
X59961088Y-91358820D01*
X59895444Y-91149261D01*
X59851114Y-91062567D01*
X59851870Y-90930295D01*
X60129541Y-90930295D01*
X60162361Y-91033344D01*
X60348507Y-91156722D01*
X60504145Y-91135656D01*
X60567472Y-90930295D01*
X60525864Y-90747394D01*
X60348507Y-90703869D01*
X60233558Y-90753623D01*
X60129541Y-90930295D01*
X59851870Y-90930295D01*
X59852696Y-90785785D01*
X60055983Y-90566269D01*
X60423687Y-90453156D01*
X60817719Y-90413948D01*
X60817719Y-91235176D01*
X60802537Y-91636196D01*
G37*
G36*
X57306493Y-76715906D02*
G01*
X57277441Y-77045652D01*
X57234257Y-77205055D01*
X57132514Y-77250553D01*
X56997759Y-77151585D01*
X56938901Y-76909118D01*
X56937506Y-76853258D01*
X56881573Y-76687994D01*
X56735026Y-76739444D01*
X56485605Y-77010345D01*
X56299997Y-77199060D01*
X56140416Y-77265259D01*
X56101365Y-77162961D01*
X56228650Y-76910046D01*
X56350589Y-76639991D01*
X56285578Y-76342606D01*
X56248085Y-76243115D01*
X56254956Y-76044937D01*
X56508082Y-76044937D01*
X56579938Y-76248093D01*
X56721681Y-76378595D01*
X56878615Y-76382429D01*
X56938901Y-76165763D01*
X56907402Y-76019866D01*
X56772070Y-75915517D01*
X56655812Y-75927627D01*
X56508082Y-76044937D01*
X56254956Y-76044937D01*
X56258643Y-75938602D01*
X56480556Y-75737732D01*
X56891660Y-75665271D01*
X57314270Y-75665271D01*
X57314270Y-76395156D01*
X57306493Y-76715906D01*
G37*
G36*
X126215400Y-89263721D02*
G01*
X126574199Y-89685216D01*
X126754006Y-89973866D01*
X126840021Y-90206412D01*
X126772572Y-90261829D01*
X126572530Y-90131911D01*
X126260765Y-89808453D01*
X126195885Y-89732995D01*
X125941838Y-89471029D01*
X125738148Y-89371155D01*
X125539549Y-89446201D01*
X125300777Y-89708994D01*
X124976566Y-90172360D01*
X124831116Y-90382913D01*
X124557803Y-90754934D01*
X124339698Y-91024138D01*
X124204230Y-91153430D01*
X123867881Y-91294870D01*
X123515135Y-91190537D01*
X123138158Y-90839225D01*
X123024423Y-90694174D01*
X122817474Y-90366165D01*
X122749222Y-90139217D01*
X122835519Y-90054433D01*
X122900605Y-90093671D01*
X123094158Y-90277468D01*
X123350859Y-90560882D01*
X123585596Y-90827220D01*
X123752612Y-90965784D01*
X123881029Y-90962051D01*
X124034972Y-90842409D01*
X124213693Y-90648276D01*
X124483185Y-90306613D01*
X124769507Y-89906892D01*
X125155699Y-89413431D01*
X125524916Y-89125523D01*
X125871894Y-89076388D01*
X126215400Y-89263721D01*
G37*
G36*
X56996461Y-91702209D02*
G01*
X57064024Y-91868719D01*
X57049908Y-91955059D01*
X56938901Y-92056404D01*
X56881341Y-92035229D01*
X56813778Y-91868719D01*
X56827894Y-91782379D01*
X56938901Y-91681034D01*
X56996461Y-91702209D01*
G37*
G36*
X56123651Y-93029592D02*
G01*
X56170483Y-93320568D01*
X56188162Y-93745566D01*
X56173189Y-94139547D01*
X56128423Y-94443954D01*
X56063039Y-94558867D01*
X56029824Y-94540092D01*
X55960724Y-94351970D01*
X55929099Y-94027093D01*
X55920283Y-93495320D01*
X55742785Y-93979492D01*
X55714271Y-94064277D01*
X55634186Y-94452321D01*
X55640043Y-94761511D01*
X55663564Y-94952071D01*
X55600093Y-95052863D01*
X55473368Y-94971219D01*
X55336713Y-94715271D01*
X55322830Y-94677551D01*
X55178778Y-94308706D01*
X55012783Y-93908664D01*
X55002219Y-93883769D01*
X54896966Y-93537304D01*
X54941285Y-93367506D01*
X54961341Y-93360472D01*
X55086908Y-93450998D01*
X55213083Y-93703537D01*
X55357639Y-94118209D01*
X55523013Y-93712922D01*
X55542467Y-93667194D01*
X55687350Y-93411818D01*
X55813151Y-93307635D01*
X55870543Y-93286464D01*
X55937916Y-93119951D01*
X55952032Y-93033610D01*
X56063039Y-92932266D01*
X56123651Y-93029592D01*
G37*
G36*
X106362176Y-91646367D02*
G01*
X106342352Y-92044609D01*
X106283841Y-92248995D01*
X106174861Y-92306650D01*
X106065413Y-92260203D01*
X105987177Y-92056404D01*
X105964553Y-91910994D01*
X105866456Y-91806158D01*
X105764857Y-91858429D01*
X105611807Y-92056404D01*
X105493728Y-92207304D01*
X105294597Y-92306650D01*
X105166855Y-92286644D01*
X105132495Y-92165344D01*
X105307545Y-91921838D01*
X105322129Y-91905493D01*
X105436430Y-91692979D01*
X105350359Y-91459348D01*
X105282907Y-91331575D01*
X105274923Y-91243103D01*
X105611807Y-91243103D01*
X105633608Y-91330631D01*
X105799492Y-91430788D01*
X105887020Y-91408988D01*
X105987177Y-91243103D01*
X105965376Y-91155576D01*
X105799492Y-91055419D01*
X105711964Y-91077219D01*
X105611807Y-91243103D01*
X105274923Y-91243103D01*
X105257357Y-91048467D01*
X105452721Y-90868331D01*
X105858127Y-90805172D01*
X106362546Y-90805172D01*
X106362546Y-91555911D01*
X106362176Y-91646367D01*
G37*
G36*
X114166812Y-63456718D02*
G01*
X113854094Y-63491187D01*
X113769639Y-63484514D01*
X113578281Y-63434808D01*
X113511107Y-63286767D01*
X113515002Y-63152956D01*
X113744812Y-63152956D01*
X113765987Y-63210516D01*
X113932497Y-63278079D01*
X114018837Y-63263962D01*
X114120182Y-63152956D01*
X114099007Y-63095395D01*
X113932497Y-63027832D01*
X113846157Y-63041949D01*
X113744812Y-63152956D01*
X113515002Y-63152956D01*
X113520465Y-62965271D01*
X113557076Y-62678746D01*
X113654758Y-62493175D01*
X113853086Y-62422904D01*
X114063306Y-62425560D01*
X114282675Y-62514661D01*
X114290882Y-62523074D01*
X114360392Y-62682110D01*
X114261992Y-62747147D01*
X114071783Y-62664217D01*
X113952727Y-62591208D01*
X113811129Y-62646387D01*
X113795655Y-62711818D01*
X113916175Y-62777586D01*
X114033172Y-62794216D01*
X114268483Y-62933030D01*
X114400442Y-63145118D01*
X114399046Y-63152956D01*
X114364288Y-63348039D01*
X114166812Y-63456718D01*
G37*
G36*
X121827642Y-87478802D02*
G01*
X121821994Y-87666191D01*
X121656008Y-87788723D01*
X121466871Y-87771943D01*
X121377325Y-87621916D01*
X121387992Y-87545523D01*
X121513350Y-87357548D01*
X121686889Y-87345826D01*
X121827642Y-87478802D01*
G37*
G36*
X102826831Y-92156869D02*
G01*
X102695475Y-92319212D01*
X102417082Y-92372104D01*
X101943724Y-92340167D01*
X101655972Y-92303730D01*
X101446132Y-92234402D01*
X101368726Y-92083817D01*
X101357620Y-91789885D01*
X101356493Y-91743596D01*
X102108359Y-91743596D01*
X102108698Y-91783481D01*
X102157229Y-92086562D01*
X102296044Y-92181527D01*
X102313137Y-92180735D01*
X102443029Y-92067497D01*
X102483728Y-91743596D01*
X102483389Y-91703711D01*
X102434859Y-91400630D01*
X102296044Y-91305665D01*
X102278950Y-91306457D01*
X102149058Y-91419695D01*
X102108359Y-91743596D01*
X101356493Y-91743596D01*
X101355483Y-91702085D01*
X101308640Y-91417527D01*
X101217176Y-91305665D01*
X101156033Y-91267098D01*
X101248457Y-91096878D01*
X101337631Y-90967408D01*
X101276841Y-90927193D01*
X101013531Y-90968626D01*
X100744169Y-90995071D01*
X100616158Y-90942662D01*
X100703062Y-90841512D01*
X101006307Y-90737327D01*
X101132201Y-90713783D01*
X101407379Y-90733229D01*
X101620698Y-90915070D01*
X101714323Y-91010656D01*
X101995763Y-91156558D01*
X102266617Y-91153428D01*
X102438481Y-90992857D01*
X102450920Y-90964486D01*
X102604446Y-90824045D01*
X102777125Y-90834504D01*
X102859098Y-90995241D01*
X102859315Y-91007457D01*
X102934070Y-91126962D01*
X103176948Y-91105534D01*
X103389632Y-91085084D01*
X103722061Y-91231430D01*
X103814137Y-91310399D01*
X103965085Y-91368803D01*
X104107710Y-91246260D01*
X104245170Y-91124641D01*
X104548751Y-91074327D01*
X104882497Y-91262496D01*
X105007767Y-91430788D01*
X105049456Y-91486795D01*
X105089701Y-91848904D01*
X104898878Y-92208878D01*
X104757624Y-92318035D01*
X104459704Y-92401643D01*
X104176195Y-92359309D01*
X104009063Y-92192869D01*
X104005634Y-92086782D01*
X104155818Y-92095100D01*
X104391658Y-92127425D01*
X104631236Y-92060751D01*
X104735945Y-91917894D01*
X104632297Y-91839726D01*
X104374966Y-91806158D01*
X104093298Y-91861675D01*
X103804004Y-92126632D01*
X103696427Y-92252938D01*
X103431635Y-92396003D01*
X103174745Y-92382602D01*
X103012031Y-92204275D01*
X103013990Y-92112016D01*
X103173319Y-92079152D01*
X103246054Y-92084607D01*
X103472159Y-91981987D01*
X103577667Y-91759587D01*
X103504138Y-91516755D01*
X103401649Y-91430788D01*
X104360576Y-91430788D01*
X104384450Y-91490584D01*
X104555645Y-91555911D01*
X104645018Y-91537906D01*
X104673384Y-91430788D01*
X104647773Y-91396617D01*
X104478315Y-91305665D01*
X104450380Y-91309246D01*
X104360576Y-91430788D01*
X103401649Y-91430788D01*
X103364499Y-91399627D01*
X103126055Y-91378903D01*
X102936421Y-91547259D01*
X102889371Y-91743596D01*
X102859098Y-91869926D01*
X102826831Y-92156869D01*
G37*
G36*
X57298379Y-94636213D02*
G01*
X57253848Y-94943973D01*
X57189147Y-95059360D01*
X57131587Y-95038185D01*
X57064024Y-94871675D01*
X57043361Y-94784343D01*
X56885277Y-94683990D01*
X56613867Y-94579515D01*
X56398921Y-94304142D01*
X56313285Y-93939634D01*
X56314694Y-93931538D01*
X56626093Y-93931538D01*
X56664768Y-94137461D01*
X56854429Y-94286605D01*
X56932906Y-94295836D01*
X57041336Y-94226243D01*
X57042114Y-93975511D01*
X56973231Y-93744531D01*
X56829332Y-93619927D01*
X56689142Y-93679675D01*
X56626093Y-93931538D01*
X56314694Y-93931538D01*
X56366954Y-93631156D01*
X56591305Y-93390510D01*
X56983141Y-93334811D01*
X57062718Y-93342479D01*
X57205252Y-93384690D01*
X57280253Y-93505291D01*
X57309375Y-93761564D01*
X57311706Y-93975511D01*
X57314270Y-94210788D01*
X57298379Y-94636213D01*
G37*
G36*
X113063509Y-62050140D02*
G01*
X113143690Y-62126415D01*
X113178965Y-62182926D01*
X113240431Y-62453847D01*
X113260426Y-62822629D01*
X113236947Y-63182197D01*
X113167991Y-63425478D01*
X113129811Y-63480053D01*
X113020255Y-63521350D01*
X112957363Y-63334369D01*
X112947801Y-62933990D01*
X112947828Y-62933306D01*
X112967194Y-62446865D01*
X112985862Y-62166660D01*
X113014433Y-62048986D01*
X113063509Y-62050140D01*
G37*
G36*
X78203319Y-53319304D02*
G01*
X78169321Y-53651739D01*
X78115994Y-53822305D01*
X78048563Y-53824027D01*
X77982169Y-53655474D01*
X77919280Y-53500765D01*
X77725666Y-53393350D01*
X77559074Y-53365762D01*
X77305230Y-53161924D01*
X77231612Y-52892857D01*
X77521659Y-52892857D01*
X77529178Y-52987150D01*
X77625997Y-53192591D01*
X77777409Y-53239602D01*
X77910350Y-53090947D01*
X77920292Y-53062481D01*
X77935730Y-52798085D01*
X77841652Y-52595791D01*
X77677998Y-52548790D01*
X77580618Y-52645223D01*
X77521659Y-52892857D01*
X77231612Y-52892857D01*
X77208852Y-52809673D01*
X77311738Y-52522223D01*
X77579886Y-52351666D01*
X77939361Y-52350820D01*
X78005524Y-52371382D01*
X78136121Y-52470497D01*
X78195680Y-52681941D01*
X78199871Y-52798085D01*
X78209837Y-53074281D01*
X78203319Y-53319304D01*
G37*
G36*
X114946759Y-92504856D02*
G01*
X114854800Y-92589731D01*
X114629391Y-92644472D01*
X114231955Y-92673500D01*
X113623616Y-92682020D01*
X112368458Y-92682020D01*
X112368458Y-93443185D01*
X112367940Y-93515019D01*
X112331325Y-93957105D01*
X112254003Y-94162266D01*
X112160006Y-94134041D01*
X112073369Y-93875970D01*
X112018125Y-93391592D01*
X111980600Y-92682020D01*
X110742997Y-92682020D01*
X110435366Y-92678436D01*
X109934693Y-92654126D01*
X109581246Y-92611083D01*
X109426457Y-92554298D01*
X109424011Y-92544083D01*
X109480575Y-92368202D01*
X109542558Y-92236129D01*
X109865994Y-92236129D01*
X109866427Y-92237481D01*
X109998670Y-92259331D01*
X110340414Y-92278318D01*
X110853188Y-92293295D01*
X111498518Y-92303121D01*
X112237930Y-92306650D01*
X114609866Y-92306650D01*
X113669964Y-90711330D01*
X113546671Y-90501555D01*
X113202132Y-89910068D01*
X112897682Y-89380068D01*
X112662580Y-88962762D01*
X112526085Y-88709360D01*
X112495845Y-88650918D01*
X112341848Y-88403227D01*
X112232808Y-88302709D01*
X112222794Y-88309232D01*
X112111865Y-88457781D01*
X111906672Y-88771169D01*
X111632169Y-89207925D01*
X111313309Y-89726580D01*
X110975044Y-90285666D01*
X110642327Y-90843713D01*
X110340111Y-91359252D01*
X110093348Y-91790813D01*
X109926992Y-92096929D01*
X109865994Y-92236129D01*
X109542558Y-92236129D01*
X109644793Y-92018287D01*
X109898788Y-91528986D01*
X110224687Y-90934942D01*
X110604614Y-90270800D01*
X111861706Y-88115025D01*
X110654876Y-88052463D01*
X110603484Y-88049729D01*
X109954192Y-87997648D01*
X109552425Y-87925677D01*
X109396347Y-87833497D01*
X109394533Y-87827015D01*
X109443968Y-87755749D01*
X109651372Y-87709529D01*
X110047379Y-87684572D01*
X110662624Y-87677093D01*
X111980600Y-87677093D01*
X112018125Y-86967521D01*
X112022486Y-86894855D01*
X112082915Y-86439413D01*
X112171772Y-86209544D01*
X112265012Y-86209080D01*
X112338589Y-86441853D01*
X112368458Y-86911695D01*
X112368458Y-87668627D01*
X113713531Y-87704141D01*
X114099100Y-87718512D01*
X114653159Y-87761402D01*
X114967094Y-87818011D01*
X115039136Y-87880530D01*
X114867518Y-87941149D01*
X114450474Y-87992058D01*
X113786236Y-88025447D01*
X112513866Y-88060993D01*
X113764304Y-90194343D01*
X113819350Y-90288539D01*
X114193862Y-90945502D01*
X114512167Y-91531388D01*
X114755956Y-92010425D01*
X114888888Y-92306650D01*
X114906923Y-92346839D01*
X114946759Y-92504856D01*
G37*
G36*
X108779398Y-62403841D02*
G01*
X108855114Y-62477122D01*
X108821430Y-62688965D01*
X108673538Y-63080158D01*
X108545600Y-63336856D01*
X108401423Y-63451781D01*
X108262256Y-63325816D01*
X108110928Y-62955145D01*
X108029095Y-62644889D01*
X108030807Y-62463844D01*
X108119940Y-62487472D01*
X108281401Y-62735243D01*
X108468115Y-63090394D01*
X108555004Y-62746305D01*
X108645937Y-62508915D01*
X108753450Y-62402217D01*
X108779398Y-62403841D01*
G37*
G36*
X93363350Y-60103033D02*
G01*
X93088465Y-60153876D01*
X92791530Y-60085045D01*
X92569962Y-59899754D01*
X92418113Y-59748823D01*
X92251389Y-59691157D01*
X92871352Y-59691157D01*
X92877421Y-59805942D01*
X93027756Y-59899754D01*
X93145130Y-59854175D01*
X93224615Y-59639080D01*
X93217708Y-59564232D01*
X93120414Y-59435988D01*
X92975840Y-59482589D01*
X92871352Y-59691157D01*
X92251389Y-59691157D01*
X92130970Y-59649507D01*
X91929650Y-59696777D01*
X91848260Y-59899754D01*
X91813425Y-60045685D01*
X91660576Y-60150000D01*
X91551127Y-60103553D01*
X91472891Y-59899754D01*
X91470682Y-59849964D01*
X91380280Y-59692449D01*
X91112115Y-59649507D01*
X90831945Y-59701803D01*
X90685898Y-59899754D01*
X90624622Y-60045718D01*
X90498206Y-60150000D01*
X90451912Y-60137073D01*
X90346670Y-59950557D01*
X90300912Y-59575674D01*
X90317818Y-59149015D01*
X90722152Y-59149015D01*
X90727244Y-59183310D01*
X90854660Y-59274138D01*
X90899916Y-59264314D01*
X90909837Y-59149015D01*
X90884156Y-59111570D01*
X90777329Y-59023892D01*
X90764842Y-59027145D01*
X90722152Y-59149015D01*
X90317818Y-59149015D01*
X90321536Y-59055172D01*
X90382978Y-58724776D01*
X90517264Y-58542448D01*
X90719435Y-58600654D01*
X90992183Y-58898768D01*
X91036571Y-58957135D01*
X91207439Y-59149015D01*
X91237488Y-59182759D01*
X91371298Y-59274138D01*
X91372485Y-59274112D01*
X91443439Y-59162422D01*
X91444937Y-59149015D01*
X91848260Y-59149015D01*
X91853352Y-59183310D01*
X91980768Y-59274138D01*
X92026025Y-59264314D01*
X92035945Y-59149015D01*
X92010264Y-59111570D01*
X91903438Y-59023892D01*
X91890951Y-59027145D01*
X91848260Y-59149015D01*
X91444937Y-59149015D01*
X91472891Y-58898768D01*
X91506661Y-58648074D01*
X91644190Y-58536401D01*
X91886669Y-58650818D01*
X92233073Y-58991201D01*
X92358295Y-59132065D01*
X92375127Y-59149015D01*
X92532297Y-59307287D01*
X92590952Y-59309243D01*
X92563583Y-59152220D01*
X92551276Y-59085460D01*
X92571516Y-58961330D01*
X92849246Y-58961330D01*
X92853442Y-59015071D01*
X92958061Y-59145301D01*
X93141200Y-59065599D01*
X93178196Y-59022909D01*
X93209259Y-58849862D01*
X93036930Y-58773645D01*
X92949403Y-58795446D01*
X92849246Y-58961330D01*
X92571516Y-58961330D01*
X92602940Y-58768614D01*
X92786737Y-58507091D01*
X93041002Y-58398276D01*
X93187870Y-58443501D01*
X93387532Y-58676457D01*
X93450991Y-58849862D01*
X93523302Y-59047454D01*
X93573964Y-59488358D01*
X93555012Y-59639080D01*
X93518300Y-59931034D01*
X93363350Y-60103033D01*
G37*
G36*
X115393014Y-61983018D02*
G01*
X115682138Y-62201074D01*
X115935947Y-62557851D01*
X115966177Y-62925719D01*
X115746783Y-63278079D01*
X115638546Y-63371826D01*
X115292774Y-63527118D01*
X114963628Y-63508961D01*
X114717473Y-63332891D01*
X114620674Y-63014446D01*
X114626656Y-62872879D01*
X114707036Y-62694925D01*
X114933482Y-62652463D01*
X115139212Y-62683528D01*
X115246290Y-62777586D01*
X115221274Y-62838261D01*
X115048178Y-62902709D01*
X114942120Y-62923798D01*
X114896760Y-63032036D01*
X115000061Y-63167105D01*
X115216344Y-63254391D01*
X115463910Y-63193670D01*
X115627754Y-62976782D01*
X115686545Y-62687249D01*
X115623452Y-62409288D01*
X115421645Y-62227114D01*
X115209034Y-62202686D01*
X114975343Y-62274539D01*
X114870921Y-62415603D01*
X114867381Y-62441961D01*
X114745797Y-62527340D01*
X114712022Y-62525386D01*
X114611374Y-62441990D01*
X114666080Y-62280682D01*
X114837703Y-62103725D01*
X115087803Y-61973379D01*
X115126545Y-61962614D01*
X115393014Y-61983018D01*
G37*
G36*
X59262070Y-91999851D02*
G01*
X59157672Y-92063987D01*
X58922038Y-92132567D01*
X58667735Y-92036766D01*
X58377817Y-91874220D01*
X58690625Y-91834053D01*
X58969564Y-91788206D01*
X59194127Y-91712054D01*
X59187649Y-91634605D01*
X58940871Y-91565783D01*
X58757688Y-91542465D01*
X58517987Y-91575346D01*
X58376817Y-91738191D01*
X58228524Y-91910889D01*
X57938886Y-92069807D01*
X57627078Y-92156582D01*
X57971167Y-92169055D01*
X58162610Y-92193512D01*
X58312250Y-92300194D01*
X58231840Y-92473481D01*
X58027057Y-92559641D01*
X57743740Y-92485841D01*
X57497146Y-92254309D01*
X57370181Y-91931869D01*
X57339161Y-91430788D01*
X57689640Y-91430788D01*
X57729316Y-91693414D01*
X57863938Y-91806158D01*
X58016383Y-91745127D01*
X58133204Y-91526004D01*
X58110257Y-91243103D01*
X58052154Y-91133638D01*
X57894576Y-91047976D01*
X57751828Y-91156802D01*
X57689640Y-91430788D01*
X57339161Y-91430788D01*
X57337857Y-91409728D01*
X57347052Y-91293273D01*
X57396970Y-91007284D01*
X57512582Y-90876301D01*
X57746031Y-90825719D01*
X58009899Y-90834870D01*
X58285031Y-91013404D01*
X58366118Y-91117997D01*
X58471054Y-91172488D01*
X58520175Y-91104947D01*
X58849636Y-91104947D01*
X58851573Y-91147659D01*
X59013860Y-91170664D01*
X59136849Y-91150627D01*
X59089455Y-91095068D01*
X59017099Y-91075077D01*
X58849636Y-91104947D01*
X58520175Y-91104947D01*
X58578946Y-91024138D01*
X58589367Y-91007022D01*
X58824070Y-90840740D01*
X59140002Y-90820197D01*
X59416339Y-90955320D01*
X59482244Y-91038457D01*
X59512252Y-91150627D01*
X59570956Y-91370065D01*
X59536510Y-91526004D01*
X59492313Y-91726083D01*
X59262070Y-91999851D01*
G37*
G36*
X107852682Y-63060459D02*
G01*
X107733185Y-63347527D01*
X107568876Y-63476189D01*
X107260911Y-63508542D01*
X106981632Y-63332772D01*
X106912623Y-63242011D01*
X106925101Y-63178392D01*
X107140346Y-63217788D01*
X107370742Y-63239037D01*
X107544950Y-63163094D01*
X107546200Y-63161026D01*
X107502802Y-63062682D01*
X107236618Y-63027832D01*
X107136728Y-63025465D01*
X106919906Y-62970710D01*
X106885145Y-62822278D01*
X106915114Y-62752354D01*
X107164653Y-62752354D01*
X107363531Y-62777586D01*
X107423754Y-62776673D01*
X107575269Y-62739494D01*
X107513679Y-62627438D01*
X107383650Y-62541716D01*
X107213384Y-62627438D01*
X107184642Y-62658006D01*
X107164653Y-62752354D01*
X106915114Y-62752354D01*
X106942687Y-62688020D01*
X107144566Y-62478829D01*
X107397997Y-62416250D01*
X107640596Y-62529158D01*
X107788503Y-62739494D01*
X107806988Y-62765782D01*
X107852682Y-63060459D01*
G37*
G36*
X94502725Y-58470769D02*
G01*
X94702379Y-58602310D01*
X94670327Y-58721630D01*
X94413285Y-58773645D01*
X94209408Y-58811177D01*
X94100477Y-58951730D01*
X94104478Y-58984878D01*
X94209750Y-59216548D01*
X94413285Y-59501565D01*
X94466280Y-59566547D01*
X94651326Y-59833299D01*
X94726093Y-60011658D01*
X94715788Y-60040505D01*
X94545640Y-60119076D01*
X94225600Y-60150000D01*
X94113410Y-60146809D01*
X93836111Y-60103229D01*
X93725108Y-60024877D01*
X93772033Y-59952152D01*
X93975354Y-59899754D01*
X94148779Y-59870122D01*
X94212809Y-59739568D01*
X94051437Y-59535606D01*
X94035724Y-59522136D01*
X93853756Y-59241320D01*
X93830448Y-58923808D01*
X93939785Y-58639827D01*
X94155752Y-58459606D01*
X94452333Y-58453374D01*
X94502725Y-58470769D01*
G37*
G36*
X105876962Y-89804187D02*
G01*
X105833029Y-89803534D01*
X105446296Y-89742684D01*
X105182814Y-89607565D01*
X105105362Y-89532493D01*
X105005719Y-89480802D01*
X104986192Y-89622158D01*
X104939431Y-89760390D01*
X104736070Y-89767965D01*
X104577710Y-89751200D01*
X104415878Y-89815934D01*
X104235291Y-89920629D01*
X103966335Y-89892811D01*
X103732340Y-89738469D01*
X103672342Y-89670916D01*
X103539248Y-89614938D01*
X103356364Y-89744546D01*
X103144740Y-89861451D01*
X102839868Y-89872671D01*
X102586190Y-89747064D01*
X102475260Y-89509096D01*
X102467615Y-89352624D01*
X102433082Y-89325168D01*
X102332245Y-89519907D01*
X102220194Y-89688836D01*
X101892580Y-89886364D01*
X101482743Y-89866749D01*
X101432193Y-89848463D01*
X101258932Y-89720182D01*
X101262753Y-89598714D01*
X101451462Y-89560484D01*
X101598528Y-89571974D01*
X101891354Y-89547216D01*
X101983236Y-89428818D01*
X101983207Y-89427261D01*
X101871426Y-89339937D01*
X101607866Y-89303694D01*
X101537339Y-89302320D01*
X101322508Y-89248517D01*
X102733975Y-89248517D01*
X102770304Y-89445939D01*
X102925586Y-89553941D01*
X103128759Y-89460835D01*
X103176214Y-89319218D01*
X103874006Y-89319218D01*
X103919897Y-89507125D01*
X104110329Y-89553941D01*
X104194626Y-89549381D01*
X104330348Y-89462333D01*
X104337606Y-89209852D01*
X104271470Y-88991101D01*
X105303553Y-88991101D01*
X105344147Y-89209852D01*
X105361561Y-89303694D01*
X105490391Y-89453038D01*
X105741333Y-89553941D01*
X105880370Y-89526375D01*
X105965790Y-89381537D01*
X105987177Y-89053448D01*
X105973637Y-88770394D01*
X105902491Y-88596495D01*
X105741333Y-88552956D01*
X105663083Y-88560744D01*
X105419418Y-88713092D01*
X105303553Y-88991101D01*
X104271470Y-88991101D01*
X104267434Y-88977752D01*
X104110329Y-88865763D01*
X103974560Y-88945451D01*
X103883053Y-89209852D01*
X103880633Y-89239111D01*
X103874006Y-89319218D01*
X103176214Y-89319218D01*
X103203058Y-89239111D01*
X103109165Y-88990671D01*
X102927848Y-88865360D01*
X102788111Y-88954988D01*
X102733975Y-89248517D01*
X101322508Y-89248517D01*
X101299165Y-89242671D01*
X101232497Y-89068769D01*
X101255171Y-88998271D01*
X101607866Y-88998271D01*
X101631338Y-89024432D01*
X101802936Y-89053448D01*
X101892228Y-89035097D01*
X101919413Y-88926284D01*
X101864531Y-88878876D01*
X101699553Y-88881479D01*
X101607866Y-88998271D01*
X101255171Y-88998271D01*
X101322132Y-88790070D01*
X101556692Y-88624386D01*
X101858865Y-88593190D01*
X102151162Y-88703755D01*
X102326831Y-88926284D01*
X102356091Y-88963349D01*
X102363460Y-88981449D01*
X102429499Y-89099009D01*
X102463001Y-89016679D01*
X102475797Y-88709360D01*
X102482302Y-88569500D01*
X102530749Y-88289093D01*
X102608852Y-88177586D01*
X102666412Y-88198761D01*
X102733975Y-88365271D01*
X102774593Y-88470436D01*
X102968900Y-88552956D01*
X103109125Y-88578513D01*
X103356696Y-88737152D01*
X103392040Y-88778264D01*
X103528183Y-88857731D01*
X103693761Y-88737152D01*
X103940756Y-88590170D01*
X104225941Y-88564057D01*
X104424399Y-88680120D01*
X104531036Y-88751705D01*
X104669875Y-88687956D01*
X104708832Y-88512240D01*
X104705143Y-88457934D01*
X104798507Y-88365271D01*
X104852909Y-88388879D01*
X104878954Y-88552421D01*
X104870591Y-88600693D01*
X104915968Y-88643675D01*
X105095849Y-88504390D01*
X105098574Y-88501944D01*
X105418885Y-88331568D01*
X105827853Y-88254679D01*
X106299985Y-88240148D01*
X106337236Y-89022167D01*
X106338726Y-89053448D01*
X106374487Y-89804187D01*
X105876962Y-89804187D01*
G37*
G36*
X81435198Y-73538177D02*
G01*
X82219500Y-73533032D01*
X82816213Y-73515063D01*
X83096471Y-73492397D01*
X83987634Y-73492397D01*
X84090625Y-73538177D01*
X84156865Y-73529147D01*
X84174040Y-73454762D01*
X84155701Y-73439787D01*
X84007210Y-73454762D01*
X83987634Y-73492397D01*
X83096471Y-73492397D01*
X83233225Y-73481337D01*
X83506244Y-73428928D01*
X83670979Y-73354910D01*
X83862930Y-73253315D01*
X84009875Y-73248888D01*
X84019849Y-73255336D01*
X84153604Y-73196299D01*
X84348201Y-72994225D01*
X84512238Y-72840080D01*
X84877540Y-72679583D01*
X85262033Y-72665474D01*
X85567078Y-72812463D01*
X85697107Y-72898185D01*
X85867374Y-72812463D01*
X85871859Y-72808126D01*
X86095556Y-72707503D01*
X86416190Y-72666048D01*
X86721457Y-72687693D01*
X86899053Y-72776365D01*
X87052365Y-72818892D01*
X87344368Y-72748934D01*
X87658245Y-72673026D01*
X88078091Y-72742919D01*
X88330260Y-72807071D01*
X88644336Y-72762348D01*
X88658058Y-72754850D01*
X89060583Y-72667720D01*
X89458665Y-72798182D01*
X89782038Y-73123905D01*
X90033975Y-73522934D01*
X95263670Y-73524118D01*
X100493365Y-73525303D01*
X100456281Y-72749720D01*
X100432477Y-72377834D01*
X100384895Y-72109939D01*
X100294465Y-71982114D01*
X100137669Y-71934155D01*
X99940188Y-71892173D01*
X99839780Y-71817337D01*
X99937421Y-71742292D01*
X100203118Y-71684477D01*
X100606881Y-71661330D01*
X100945922Y-71674620D01*
X101243650Y-71719805D01*
X101357620Y-71786453D01*
X101279957Y-71868745D01*
X101044812Y-71911576D01*
X100913872Y-71917518D01*
X100810272Y-71969171D01*
X100756109Y-72117684D01*
X100735360Y-72414185D01*
X100732004Y-72909801D01*
X100732004Y-73908025D01*
X98385945Y-73942067D01*
X96039886Y-73976108D01*
X96006881Y-78004404D01*
X95973876Y-82032699D01*
X96560155Y-82070906D01*
X96872118Y-82109446D01*
X97142113Y-82199127D01*
X97206306Y-82302001D01*
X97054359Y-82386716D01*
X96675929Y-82421921D01*
X96498541Y-82424493D01*
X96214508Y-82443225D01*
X96102448Y-82474144D01*
X96114442Y-82505145D01*
X96221132Y-82706868D01*
X96414506Y-83048681D01*
X96665502Y-83478733D01*
X96776374Y-83668646D01*
X97007856Y-84083011D01*
X97140575Y-84342073D01*
X97168449Y-84396483D01*
X97228556Y-84552618D01*
X97186155Y-84596459D01*
X96959382Y-84652300D01*
X96602278Y-84674138D01*
X95976001Y-84674138D01*
X96007610Y-95910197D01*
X96007944Y-96029064D01*
X96039886Y-107383990D01*
X111993088Y-107448404D01*
X111993088Y-95190004D01*
X109647029Y-95155963D01*
X107300970Y-95121921D01*
X107298912Y-94809113D01*
X107485609Y-94809113D01*
X116875937Y-94809113D01*
X116855682Y-91931281D01*
X117248260Y-91931281D01*
X122240952Y-91931281D01*
X121999571Y-91399507D01*
X121937377Y-91253191D01*
X121808171Y-90871292D01*
X121755442Y-90586207D01*
X121754832Y-90548303D01*
X121740275Y-90458127D01*
X121680047Y-90393504D01*
X121540051Y-90350176D01*
X121286192Y-90323886D01*
X120884373Y-90310378D01*
X120300501Y-90305395D01*
X119500477Y-90304680D01*
X117248260Y-90304680D01*
X117248260Y-91931281D01*
X116855682Y-91931281D01*
X116843133Y-90148276D01*
X116831024Y-88427832D01*
X117248260Y-88427832D01*
X117248260Y-90054433D01*
X119500477Y-90054433D01*
X119803710Y-90054403D01*
X120525129Y-90052694D01*
X121042189Y-90045244D01*
X121388985Y-90027797D01*
X121599612Y-89996097D01*
X121708167Y-89945886D01*
X121748745Y-89872908D01*
X121749080Y-89867903D01*
X122069213Y-89867903D01*
X122085820Y-90581846D01*
X122105085Y-90674008D01*
X122370895Y-91389082D01*
X122741832Y-91931281D01*
X122801042Y-92017829D01*
X123349492Y-92506068D01*
X123970210Y-92799619D01*
X124286983Y-92870060D01*
X125072245Y-92893023D01*
X125790363Y-92711239D01*
X126415198Y-92355059D01*
X126920608Y-91854834D01*
X127280453Y-91240912D01*
X127468592Y-90543645D01*
X127464743Y-90246125D01*
X128465634Y-90246125D01*
X128509811Y-90330592D01*
X128640470Y-90429803D01*
X128749825Y-90392807D01*
X128844935Y-90220522D01*
X128784615Y-90029409D01*
X128624391Y-89956610D01*
X128475508Y-90041188D01*
X128465634Y-90246125D01*
X127464743Y-90246125D01*
X127458885Y-89793382D01*
X127225192Y-89020474D01*
X126839468Y-88393889D01*
X126255989Y-87864255D01*
X125537423Y-87538208D01*
X124705698Y-87429595D01*
X124476647Y-87442980D01*
X123781804Y-87632498D01*
X123158028Y-88012597D01*
X122751237Y-88427832D01*
X122640929Y-88540430D01*
X122266120Y-89173148D01*
X122069213Y-89867903D01*
X121749080Y-89867903D01*
X121755442Y-89772906D01*
X121764299Y-89682523D01*
X121850975Y-89345223D01*
X121999571Y-88959606D01*
X122240952Y-88427832D01*
X117248260Y-88427832D01*
X116831024Y-88427832D01*
X116810329Y-85487438D01*
X107551216Y-85487438D01*
X107518412Y-90148276D01*
X107485609Y-94809113D01*
X107298912Y-94809113D01*
X107268253Y-90148276D01*
X107235537Y-85174630D01*
X111993088Y-85174630D01*
X111993088Y-73913547D01*
X102358605Y-73913547D01*
X102358605Y-73475616D01*
X102358266Y-73435731D01*
X102309735Y-73132650D01*
X102170921Y-73037685D01*
X102164430Y-73037658D01*
X102015917Y-72995787D01*
X102018080Y-72843935D01*
X102170921Y-72537192D01*
X102328037Y-72190475D01*
X102311715Y-71979142D01*
X102108359Y-71911576D01*
X101962909Y-71888114D01*
X101858113Y-71786453D01*
X101919458Y-71734959D01*
X102169421Y-71681899D01*
X102546290Y-71661330D01*
X102829505Y-71672484D01*
X103121337Y-71717931D01*
X103234467Y-71786453D01*
X103187542Y-71859178D01*
X102984221Y-71911576D01*
X102846216Y-71923024D01*
X102752298Y-72004378D01*
X102779538Y-72207926D01*
X102923339Y-72584473D01*
X102935287Y-72613160D01*
X103038641Y-72891342D01*
X103034659Y-73011683D01*
X102923339Y-73037685D01*
X102812998Y-73083468D01*
X102733975Y-73287931D01*
X102747777Y-73398770D01*
X102838842Y-73488936D01*
X103065411Y-73529046D01*
X103484714Y-73538177D01*
X104235453Y-73538177D01*
X104235453Y-72724877D01*
X104228736Y-72305597D01*
X104196141Y-72049833D01*
X104120636Y-71936924D01*
X103985206Y-71911576D01*
X103839757Y-71888114D01*
X103734960Y-71786453D01*
X103814703Y-71729946D01*
X104085812Y-71680325D01*
X104485699Y-71661330D01*
X104824740Y-71674620D01*
X105122468Y-71719805D01*
X105236438Y-71786453D01*
X105158775Y-71868745D01*
X104923630Y-71911576D01*
X104873580Y-71912023D01*
X104725898Y-71937548D01*
X104647423Y-72043499D01*
X104616336Y-72286473D01*
X104610822Y-72723068D01*
X104610822Y-73534561D01*
X112305896Y-73600739D01*
X112338425Y-79384987D01*
X112370953Y-85169236D01*
X117185699Y-85237192D01*
X117248260Y-86300739D01*
X117281000Y-86753607D01*
X117330921Y-87120065D01*
X117400225Y-87310029D01*
X117498507Y-87364286D01*
X117586035Y-87386086D01*
X117686192Y-87551970D01*
X117651323Y-87650504D01*
X117467226Y-87722277D01*
X117349357Y-87740434D01*
X117248260Y-87878681D01*
X117252850Y-87901573D01*
X117323823Y-87955540D01*
X117502799Y-87995464D01*
X117818218Y-88023232D01*
X118298519Y-88040729D01*
X118972144Y-88049844D01*
X119867533Y-88052463D01*
X122486805Y-88052463D01*
X123132650Y-87650984D01*
X123582935Y-87427637D01*
X124328377Y-87224082D01*
X125096265Y-87174327D01*
X125788615Y-87291631D01*
X125991917Y-87373888D01*
X126491881Y-87685304D01*
X126969008Y-88112155D01*
X127373012Y-88597676D01*
X127653611Y-89085105D01*
X127760521Y-89517675D01*
X127773671Y-89637318D01*
X127878006Y-89924335D01*
X127923587Y-89988455D01*
X128040550Y-90031428D01*
X128230031Y-89893054D01*
X128248701Y-89876618D01*
X128581132Y-89704090D01*
X128901329Y-89719431D01*
X129130109Y-89920246D01*
X129199926Y-90208123D01*
X129194999Y-90220522D01*
X129096500Y-90468374D01*
X128861818Y-90626780D01*
X128557814Y-90644049D01*
X128246417Y-90480889D01*
X128141912Y-90391526D01*
X127990298Y-90326363D01*
X127878006Y-90434778D01*
X127826090Y-90540354D01*
X127825373Y-90543645D01*
X127760521Y-90841438D01*
X127697793Y-91142436D01*
X127479619Y-91593018D01*
X127150176Y-92059720D01*
X126756698Y-92466096D01*
X126312804Y-92779073D01*
X125547823Y-93086226D01*
X124728425Y-93178154D01*
X123904259Y-93051612D01*
X123124974Y-92703358D01*
X122486805Y-92306650D01*
X117256456Y-92306650D01*
X117221078Y-93714286D01*
X117193561Y-94809113D01*
X117185699Y-95121921D01*
X114777078Y-95155904D01*
X112368458Y-95189886D01*
X112368458Y-107696798D01*
X104235453Y-107696798D01*
X103875950Y-107696864D01*
X102076391Y-107699492D01*
X100507892Y-107705920D01*
X99173190Y-107716106D01*
X98075023Y-107730006D01*
X97216127Y-107747580D01*
X96599241Y-107768786D01*
X96227102Y-107793580D01*
X96102448Y-107821921D01*
X96028613Y-107903272D01*
X95797024Y-107947044D01*
X95586744Y-107918777D01*
X95414270Y-107821921D01*
X95388740Y-107812680D01*
X95150555Y-107790939D01*
X94665170Y-107771400D01*
X93934761Y-107754082D01*
X92961501Y-107739008D01*
X91747565Y-107726196D01*
X90295126Y-107715667D01*
X88606359Y-107707443D01*
X86683438Y-107701543D01*
X84528538Y-107697987D01*
X82143832Y-107696798D01*
X81237846Y-107696956D01*
X78921493Y-107699005D01*
X76843242Y-107703410D01*
X75004443Y-107710158D01*
X73406443Y-107719236D01*
X72050591Y-107730631D01*
X70938233Y-107744331D01*
X70070720Y-107760323D01*
X69449399Y-107778593D01*
X69075617Y-107799130D01*
X68950724Y-107821921D01*
X68873061Y-107904213D01*
X68637916Y-107947044D01*
X68432186Y-107915979D01*
X68325108Y-107821921D01*
X68261307Y-107782226D01*
X67992872Y-107739868D01*
X67560022Y-107710852D01*
X67012078Y-107694829D01*
X66398356Y-107691451D01*
X65768175Y-107700368D01*
X65170853Y-107721232D01*
X64655708Y-107753695D01*
X64272058Y-107797407D01*
X64069223Y-107852019D01*
X63827818Y-107944585D01*
X63572126Y-107852019D01*
X63494126Y-107825064D01*
X63291723Y-107794939D01*
X62960179Y-107769483D01*
X62484357Y-107748397D01*
X61849121Y-107731379D01*
X61039333Y-107718128D01*
X60039857Y-107708346D01*
X58835555Y-107701730D01*
X57411292Y-107697981D01*
X55751929Y-107696798D01*
X48180280Y-107696798D01*
X48180280Y-99313547D01*
X48427060Y-99313547D01*
X48460074Y-103348768D01*
X48493088Y-107383990D01*
X55943198Y-107416245D01*
X57062551Y-107420568D01*
X58548168Y-107424107D01*
X59808074Y-107423876D01*
X60856993Y-107419646D01*
X61709651Y-107411186D01*
X62380775Y-107398266D01*
X62885089Y-107380655D01*
X63237319Y-107358124D01*
X63452190Y-107330441D01*
X63544429Y-107297378D01*
X63553092Y-107285335D01*
X63586333Y-107159782D01*
X63614491Y-106902326D01*
X63637877Y-106498176D01*
X63656805Y-105932540D01*
X63671589Y-105190628D01*
X63682543Y-104257647D01*
X63689979Y-103118807D01*
X63694210Y-101759316D01*
X63695551Y-100164384D01*
X63695545Y-99935240D01*
X63695054Y-98469189D01*
X63693344Y-97231424D01*
X63689811Y-96202729D01*
X63683853Y-95363888D01*
X63674868Y-94695686D01*
X63662253Y-94178907D01*
X63645405Y-93794336D01*
X63623722Y-93522756D01*
X63596601Y-93344953D01*
X63563440Y-93241710D01*
X63523636Y-93193813D01*
X63476586Y-93182044D01*
X63227844Y-93120447D01*
X62855232Y-92931520D01*
X62476769Y-92669654D01*
X62183650Y-92390667D01*
X61950663Y-91998664D01*
X61799754Y-91380000D01*
X61812694Y-91112029D01*
X62063047Y-91112029D01*
X62132154Y-91681976D01*
X62396662Y-92176421D01*
X62436210Y-92221882D01*
X62758092Y-92526829D01*
X63078626Y-92749075D01*
X63283697Y-92834577D01*
X63860473Y-92908705D01*
X64447869Y-92788800D01*
X64973735Y-92496771D01*
X65365919Y-92054526D01*
X65497637Y-91757264D01*
X65574226Y-91167679D01*
X65463183Y-90563543D01*
X65182535Y-90016761D01*
X64750310Y-89599239D01*
X64395719Y-89451909D01*
X63864940Y-89384151D01*
X63324968Y-89433261D01*
X62891038Y-89599239D01*
X62461859Y-90001986D01*
X62177047Y-90530669D01*
X62063047Y-91112029D01*
X61812694Y-91112029D01*
X61831747Y-90717468D01*
X62051063Y-90087857D01*
X62156670Y-89931599D01*
X62503604Y-89590062D01*
X62936442Y-89290985D01*
X63351462Y-89112187D01*
X63695551Y-89026319D01*
X63695551Y-89013837D01*
X63945797Y-89013837D01*
X64434686Y-89160312D01*
X64960363Y-89415059D01*
X65417580Y-89861382D01*
X65721369Y-90427929D01*
X65853466Y-91061967D01*
X65844039Y-91167679D01*
X65795608Y-91710765D01*
X65529534Y-92321590D01*
X65497071Y-92366950D01*
X65219085Y-92637656D01*
X64840111Y-92902086D01*
X64452281Y-93102839D01*
X64147727Y-93182512D01*
X64116541Y-93190485D01*
X64077768Y-93238670D01*
X64045290Y-93347232D01*
X64018560Y-93535158D01*
X63997028Y-93821436D01*
X63980146Y-94225050D01*
X63967366Y-94764990D01*
X63958139Y-95460240D01*
X63951917Y-96329788D01*
X63948152Y-97392621D01*
X63946295Y-98667725D01*
X63945800Y-100164384D01*
X63945797Y-100174088D01*
X63945993Y-100945123D01*
X63947806Y-102368712D01*
X63951883Y-103568962D01*
X63958664Y-104564028D01*
X63968590Y-105372063D01*
X63982101Y-106011222D01*
X63999638Y-106499659D01*
X64021640Y-106855528D01*
X64048547Y-107096985D01*
X64080801Y-107242183D01*
X64118841Y-107309277D01*
X64130729Y-107317744D01*
X64346728Y-107375494D01*
X64779693Y-107411172D01*
X65440438Y-107425310D01*
X66339777Y-107418440D01*
X68387669Y-107383990D01*
X68419592Y-95653694D01*
X68451514Y-83923399D01*
X67700133Y-83923399D01*
X67360536Y-83910091D01*
X67062733Y-83864910D01*
X66948753Y-83798276D01*
X67055580Y-83748293D01*
X67388862Y-83707762D01*
X67924496Y-83682108D01*
X68637916Y-83673153D01*
X69312680Y-83681066D01*
X69859857Y-83705753D01*
X70206178Y-83745430D01*
X70327078Y-83798276D01*
X70247335Y-83854783D01*
X69976226Y-83904404D01*
X69576339Y-83923399D01*
X68825600Y-83923399D01*
X68825600Y-95487057D01*
X68825619Y-95740714D01*
X68826660Y-97414244D01*
X68829218Y-99015777D01*
X68833179Y-100527490D01*
X68838428Y-101931556D01*
X68844849Y-103210152D01*
X68852327Y-104345451D01*
X68860748Y-105319630D01*
X68869995Y-106114862D01*
X68879955Y-106713324D01*
X68890511Y-107097189D01*
X68901549Y-107248633D01*
X68928494Y-107278761D01*
X68997892Y-107307175D01*
X69122975Y-107332227D01*
X69317639Y-107354126D01*
X69595783Y-107373078D01*
X69971302Y-107389293D01*
X70458095Y-107402977D01*
X71070058Y-107414338D01*
X71821090Y-107423585D01*
X72725086Y-107430925D01*
X73795945Y-107436566D01*
X75047563Y-107440715D01*
X76493839Y-107443580D01*
X78148668Y-107445369D01*
X80025949Y-107446291D01*
X82139578Y-107446552D01*
X84152483Y-107446019D01*
X86154202Y-107444109D01*
X87926570Y-107440692D01*
X89480569Y-107435645D01*
X90827179Y-107428843D01*
X91977383Y-107420163D01*
X92942160Y-107409480D01*
X93732492Y-107396672D01*
X94359360Y-107381613D01*
X94833744Y-107364181D01*
X95166626Y-107344252D01*
X95368987Y-107321700D01*
X95451807Y-107296404D01*
X95475657Y-107228673D01*
X95500172Y-107037689D01*
X95521612Y-106714531D01*
X95540135Y-106247394D01*
X95555896Y-105624470D01*
X95569050Y-104833952D01*
X95579753Y-103864034D01*
X95588161Y-102702909D01*
X95594429Y-101338769D01*
X95598714Y-99759809D01*
X95601171Y-97954220D01*
X95601955Y-95910197D01*
X95601955Y-84674138D01*
X94983724Y-84674138D01*
X94769288Y-84668386D01*
X94455439Y-84633930D01*
X94306513Y-84578708D01*
X94311270Y-84521307D01*
X94389681Y-84327767D01*
X94746947Y-84327767D01*
X94752754Y-84342709D01*
X94915896Y-84384129D01*
X95255763Y-84413031D01*
X95716651Y-84423892D01*
X95867212Y-84422980D01*
X96306192Y-84408451D01*
X96612778Y-84379894D01*
X96728063Y-84342073D01*
X96717672Y-84296745D01*
X96617267Y-84073676D01*
X96441264Y-83744064D01*
X96228092Y-83373508D01*
X96016178Y-83027607D01*
X95843950Y-82771960D01*
X95749836Y-82672167D01*
X95682853Y-82739811D01*
X95522000Y-82971931D01*
X95309986Y-83309512D01*
X95084808Y-83689830D01*
X94884463Y-84050157D01*
X94746947Y-84327767D01*
X94389681Y-84327767D01*
X94408306Y-84281795D01*
X94596977Y-83910407D01*
X94851999Y-83459039D01*
X95456464Y-82434801D01*
X94872313Y-82397080D01*
X94623703Y-82371698D01*
X94353571Y-82297756D01*
X94320488Y-82207807D01*
X94519352Y-82124701D01*
X94945059Y-82071294D01*
X95601955Y-82033474D01*
X95601955Y-78049459D01*
X95601644Y-77417567D01*
X95598940Y-76427558D01*
X95592424Y-75648712D01*
X95580860Y-75055662D01*
X95563011Y-74623040D01*
X95537641Y-74325479D01*
X95503513Y-74137613D01*
X95459390Y-74034074D01*
X95404037Y-73989495D01*
X95352287Y-73979313D01*
X95073739Y-73958264D01*
X94601288Y-73940178D01*
X93973784Y-73926040D01*
X93230075Y-73916834D01*
X92409009Y-73913547D01*
X89611899Y-73913547D01*
X89572691Y-73519515D01*
X89464392Y-73162065D01*
X89244672Y-72957242D01*
X88982469Y-72940578D01*
X88743894Y-73114617D01*
X88595059Y-73481902D01*
X88561338Y-73626078D01*
X88446405Y-73820040D01*
X88319682Y-73774598D01*
X88220918Y-73488996D01*
X88108465Y-73174998D01*
X87878886Y-72961932D01*
X87610360Y-72941751D01*
X87368446Y-73114920D01*
X87218704Y-73481902D01*
X87184984Y-73626078D01*
X87070050Y-73820040D01*
X86943327Y-73774598D01*
X86844563Y-73488996D01*
X86721036Y-73166947D01*
X86490143Y-72965768D01*
X86225868Y-72939004D01*
X85994676Y-73090933D01*
X85863035Y-73425833D01*
X85824120Y-73624409D01*
X85725966Y-73818086D01*
X85617161Y-73775219D01*
X85524125Y-73490747D01*
X85481542Y-73331726D01*
X85286121Y-73036072D01*
X85023039Y-72925613D01*
X84756114Y-72992275D01*
X84549160Y-73227980D01*
X84501613Y-73454762D01*
X84465994Y-73624654D01*
X84418743Y-73831667D01*
X84219675Y-73913547D01*
X84065721Y-73946924D01*
X84045377Y-74101231D01*
X84060791Y-74251076D01*
X83928457Y-74259915D01*
X83660060Y-74097252D01*
X83655155Y-74093613D01*
X83497608Y-74020905D01*
X83232977Y-73969501D01*
X82825517Y-73936444D01*
X82239481Y-73918778D01*
X81439124Y-73913547D01*
X79461068Y-73913547D01*
X79461068Y-74789409D01*
X73330034Y-74789409D01*
X73330034Y-73907772D01*
X68888162Y-73976108D01*
X68888162Y-82859852D01*
X69607620Y-82897377D01*
X69919774Y-82925504D01*
X70213611Y-82983982D01*
X70327078Y-83053781D01*
X70325463Y-83059488D01*
X70180362Y-83105110D01*
X69826167Y-83140909D01*
X69299733Y-83164290D01*
X68637916Y-83172660D01*
X67963152Y-83164747D01*
X67415975Y-83140059D01*
X67069653Y-83100383D01*
X66948753Y-83047537D01*
X67028925Y-82990920D01*
X67300541Y-82941373D01*
X67701072Y-82922414D01*
X68453392Y-82922414D01*
X68420531Y-78449261D01*
X68387669Y-73976108D01*
X66448260Y-73940292D01*
X66095741Y-73934994D01*
X65432445Y-73931773D01*
X64865841Y-73937710D01*
X64447083Y-73952030D01*
X64227325Y-73973957D01*
X63945797Y-74043438D01*
X63945797Y-89013837D01*
X63695551Y-89013837D01*
X63695551Y-81545881D01*
X63695125Y-80100549D01*
X63693392Y-78747770D01*
X63689866Y-77609834D01*
X63684063Y-76668275D01*
X63675499Y-75904628D01*
X63663691Y-75300427D01*
X63648156Y-74837206D01*
X63628409Y-74496499D01*
X63603967Y-74259840D01*
X63574346Y-74108764D01*
X63539062Y-74024804D01*
X63497633Y-73989495D01*
X63383708Y-73970811D01*
X63043688Y-73948020D01*
X62532901Y-73929873D01*
X61897304Y-73917880D01*
X61182855Y-73913547D01*
X59065994Y-73913547D01*
X59065994Y-74789409D01*
X53060083Y-74789409D01*
X53060083Y-74539162D01*
X53310329Y-74539162D01*
X58815748Y-74539162D01*
X58815748Y-72912561D01*
X53310329Y-72912561D01*
X53310329Y-74539162D01*
X53060083Y-74539162D01*
X53060083Y-73913547D01*
X48430526Y-73913547D01*
X48430526Y-82033474D01*
X49087423Y-82071294D01*
X49744320Y-82109113D01*
X49781685Y-82823213D01*
X49819050Y-83537312D01*
X50082612Y-83548029D01*
X50720108Y-83573951D01*
X51621167Y-83610591D01*
X51683042Y-98687931D01*
X51685609Y-99313547D01*
X48427060Y-99313547D01*
X48180280Y-99313547D01*
X48180280Y-99296660D01*
X47711068Y-99327004D01*
X47579578Y-99333084D01*
X47157092Y-99341054D01*
X46609277Y-99341983D01*
X46020966Y-99335447D01*
X44800075Y-99313547D01*
X44802642Y-98687931D01*
X45427571Y-98687931D01*
X51058113Y-98687931D01*
X51058113Y-84298768D01*
X45427571Y-84298768D01*
X45427571Y-97311576D01*
X49431512Y-97311576D01*
X49431512Y-97937192D01*
X45427571Y-97937192D01*
X45427571Y-98687931D01*
X44802642Y-98687931D01*
X44864517Y-83610591D01*
X45834221Y-83574047D01*
X46524616Y-83548029D01*
X47304418Y-83548029D01*
X49181265Y-83548029D01*
X49181265Y-82797291D01*
X47304418Y-82797291D01*
X47304418Y-83548029D01*
X46524616Y-83548029D01*
X46803926Y-83537503D01*
X46803926Y-82046552D01*
X48176951Y-82046552D01*
X48209897Y-77823645D01*
X48242842Y-73600739D01*
X50651462Y-73566756D01*
X53060083Y-73532774D01*
X53060083Y-72662315D01*
X55686180Y-72662315D01*
X55718206Y-62621182D01*
X55750231Y-52580049D01*
X61599738Y-52547531D01*
X62485078Y-52542533D01*
X63698625Y-52534953D01*
X64696360Y-52526910D01*
X65499404Y-52517389D01*
X66128877Y-52505373D01*
X66605898Y-52489844D01*
X66951587Y-52469787D01*
X67187063Y-52444186D01*
X67333448Y-52412023D01*
X67411860Y-52372283D01*
X67443419Y-52323949D01*
X67449246Y-52266004D01*
X67450711Y-52146830D01*
X67482173Y-52053313D01*
X67593223Y-52048867D01*
X67833898Y-52136901D01*
X68254238Y-52320821D01*
X68941243Y-52624647D01*
X68977264Y-51538801D01*
X69013285Y-50452956D01*
X83777817Y-50452956D01*
X83814208Y-51488302D01*
X83850599Y-52523649D01*
X88068395Y-52513677D01*
X92286192Y-52503705D01*
X92363069Y-53980793D01*
X92391392Y-54529659D01*
X92419291Y-55034095D01*
X92444662Y-55358842D01*
X92474541Y-55543131D01*
X92515961Y-55626194D01*
X92575956Y-55647262D01*
X92661561Y-55645566D01*
X92747058Y-55650741D01*
X92849246Y-55692397D01*
X92841234Y-55728614D01*
X92774287Y-55942231D01*
X92661561Y-56271182D01*
X92618863Y-56389459D01*
X92534339Y-56627381D01*
X92494851Y-56809456D01*
X92526039Y-56943492D01*
X92653545Y-57037298D01*
X92903007Y-57098683D01*
X93300067Y-57135455D01*
X93870365Y-57155422D01*
X94639541Y-57166393D01*
X95633236Y-57176177D01*
X98792595Y-57209606D01*
X98799587Y-57394245D01*
X98865363Y-59131200D01*
X100705826Y-59130265D01*
X102546290Y-59129330D01*
X102619378Y-61025862D01*
X103732839Y-61025862D01*
X103965456Y-61027941D01*
X104428602Y-61046012D01*
X104761864Y-61078652D01*
X104905086Y-61120980D01*
X104868688Y-61238427D01*
X104756682Y-61463793D01*
X104720281Y-61537036D01*
X104477781Y-61979586D01*
X104160719Y-62530508D01*
X103788626Y-63154231D01*
X102613380Y-65092364D01*
X102642397Y-66531281D01*
X102650405Y-66897347D01*
X102668017Y-67397965D01*
X102696836Y-67715755D01*
X102745582Y-67894320D01*
X102822974Y-67977263D01*
X102937732Y-68008187D01*
X103204050Y-68046177D01*
X102969012Y-68801355D01*
X102874803Y-69150598D01*
X102773369Y-69676943D01*
X102733975Y-70108438D01*
X102733975Y-70660345D01*
X103682825Y-70660345D01*
X103897121Y-70661844D01*
X104320225Y-70682727D01*
X104537182Y-70732528D01*
X104579541Y-70816749D01*
X104519796Y-70867859D01*
X104311029Y-70916906D01*
X103929747Y-70949479D01*
X103350113Y-70967566D01*
X102546290Y-70973153D01*
X101897762Y-70969781D01*
X101271438Y-70954590D01*
X100849101Y-70925346D01*
X100604913Y-70880061D01*
X100513039Y-70816749D01*
X100510334Y-70781343D01*
X100613394Y-70710453D01*
X100902685Y-70671955D01*
X101409755Y-70660345D01*
X102358605Y-70660345D01*
X102354521Y-70128571D01*
X102337356Y-69895840D01*
X102247885Y-69399872D01*
X102108359Y-68908621D01*
X101999245Y-68595370D01*
X101900171Y-68274409D01*
X101885332Y-68106906D01*
X101954728Y-68042982D01*
X102108359Y-68032759D01*
X102192075Y-68025111D01*
X102269482Y-67971221D01*
X102318293Y-67830047D01*
X102345053Y-67560851D01*
X102356308Y-67122895D01*
X102358605Y-66475442D01*
X102358605Y-64918125D01*
X101243594Y-63067212D01*
X100945600Y-62565398D01*
X100628567Y-62012864D01*
X100383289Y-61563572D01*
X100333743Y-61463793D01*
X100609898Y-61463793D01*
X101526397Y-62996989D01*
X101651457Y-63205791D01*
X101970641Y-63734791D01*
X102236426Y-64169720D01*
X102424018Y-64470213D01*
X102508620Y-64595909D01*
X102534926Y-64582647D01*
X102670866Y-64411999D01*
X102897424Y-64078048D01*
X103190922Y-63616412D01*
X103527685Y-63062713D01*
X104481026Y-61463793D01*
X103476436Y-61427356D01*
X102872840Y-61414300D01*
X102162229Y-61413853D01*
X101540872Y-61427356D01*
X100609898Y-61463793D01*
X100333743Y-61463793D01*
X100229624Y-61254114D01*
X100187432Y-61121081D01*
X100213018Y-61104813D01*
X100430646Y-61064481D01*
X100814454Y-61036399D01*
X101302443Y-61025862D01*
X102358605Y-61025862D01*
X102358605Y-59399261D01*
X98866120Y-59399261D01*
X98829358Y-60306404D01*
X98792595Y-61213547D01*
X93818950Y-61246263D01*
X88845305Y-61278980D01*
X88845305Y-60963300D01*
X89158113Y-60963300D01*
X93818950Y-60996104D01*
X98479788Y-61028908D01*
X98479788Y-57394245D01*
X93818950Y-57427048D01*
X89158113Y-57459852D01*
X89158113Y-60963300D01*
X88845305Y-60963300D01*
X88845305Y-57147044D01*
X90471906Y-57147044D01*
X90578771Y-57146804D01*
X91175884Y-57135893D01*
X91658332Y-57111046D01*
X91980933Y-57075451D01*
X92098507Y-57032294D01*
X92082874Y-56956001D01*
X91992433Y-56691184D01*
X91848260Y-56333744D01*
X91758500Y-56120849D01*
X91643143Y-55832841D01*
X91598014Y-55697755D01*
X91644594Y-55667522D01*
X91848260Y-55645566D01*
X91957876Y-55630581D01*
X92034249Y-55551888D01*
X92076547Y-55362824D01*
X92094666Y-55016775D01*
X92098507Y-54467130D01*
X92096500Y-54193091D01*
X92081782Y-53687908D01*
X92055893Y-53297974D01*
X92022558Y-53090775D01*
X92000932Y-53055656D01*
X91923617Y-53007637D01*
X91772215Y-52969939D01*
X91521562Y-52941354D01*
X91146492Y-52920674D01*
X90621841Y-52906693D01*
X89922445Y-52898201D01*
X89023139Y-52893992D01*
X87898758Y-52892857D01*
X83850905Y-52892857D01*
X83814361Y-53862561D01*
X83789605Y-54519458D01*
X83777817Y-54832266D01*
X69013285Y-54832266D01*
X69002223Y-54519458D01*
X69326093Y-54519458D01*
X83465009Y-54519458D01*
X83465009Y-50765763D01*
X69326093Y-50765763D01*
X69326093Y-54519458D01*
X69002223Y-54519458D01*
X68977080Y-53808433D01*
X68940876Y-52784601D01*
X68238034Y-53026414D01*
X67902525Y-53141905D01*
X67624696Y-53230303D01*
X67491881Y-53247116D01*
X67451069Y-53195983D01*
X67449246Y-53080542D01*
X67448997Y-53075338D01*
X67418776Y-53031500D01*
X67323690Y-52995159D01*
X67143140Y-52965636D01*
X66856530Y-52942253D01*
X66443262Y-52924331D01*
X65882738Y-52911189D01*
X65154362Y-52902150D01*
X64237536Y-52896535D01*
X63111661Y-52893663D01*
X61756142Y-52892857D01*
X56063039Y-52892857D01*
X56063039Y-72662315D01*
X59050139Y-72662315D01*
X59089348Y-73068965D01*
X59128556Y-73475616D01*
X66229295Y-73501546D01*
X73330034Y-73527477D01*
X73330034Y-72912561D01*
X73705403Y-72912561D01*
X73705403Y-74539162D01*
X76395551Y-74539162D01*
X76707679Y-74538952D01*
X77468526Y-74536558D01*
X78124814Y-74531834D01*
X78640123Y-74525199D01*
X78978029Y-74517074D01*
X79102111Y-74507882D01*
X79114260Y-74400600D01*
X79134066Y-74105837D01*
X79155927Y-73694581D01*
X79193331Y-72912561D01*
X73705403Y-72912561D01*
X73330034Y-72912561D01*
X73330034Y-72662315D01*
X75955427Y-72662315D01*
X75987804Y-65999507D01*
X76020182Y-59336699D01*
X81431758Y-59304089D01*
X81658124Y-59302710D01*
X82933106Y-59294038D01*
X83982742Y-59284618D01*
X84828499Y-59273529D01*
X85491844Y-59259849D01*
X85994241Y-59242655D01*
X86357157Y-59221027D01*
X86602059Y-59194043D01*
X86750412Y-59160781D01*
X86823681Y-59120320D01*
X86843334Y-59071737D01*
X86866095Y-58976694D01*
X86999738Y-58929718D01*
X87110654Y-58968607D01*
X87418329Y-59072552D01*
X87813039Y-59203407D01*
X88083311Y-59296045D01*
X88361926Y-59403064D01*
X88469935Y-59461823D01*
X88411410Y-59498529D01*
X88172809Y-59594978D01*
X87813039Y-59720238D01*
X87548381Y-59807736D01*
X87200627Y-59924353D01*
X86999738Y-59993927D01*
X86918329Y-59994389D01*
X86843334Y-59850579D01*
X86843253Y-59846678D01*
X86821430Y-59797935D01*
X86745915Y-59757871D01*
X86594867Y-59725649D01*
X86346448Y-59700435D01*
X85978819Y-59681392D01*
X85470141Y-59667685D01*
X84798575Y-59658479D01*
X83942283Y-59652938D01*
X82879425Y-59650226D01*
X81588162Y-59649507D01*
X76332990Y-59649507D01*
X76332990Y-72662315D01*
X79461068Y-72662315D01*
X79461068Y-73538177D01*
X81435198Y-73538177D01*
G37*
G36*
X81927320Y-51962839D02*
G01*
X81965398Y-51977346D01*
X82281299Y-52226564D01*
X82418878Y-52605260D01*
X82352992Y-53049261D01*
X82282157Y-53201025D01*
X82104653Y-53355349D01*
X81783346Y-53393350D01*
X81424482Y-53337398D01*
X81212793Y-53143103D01*
X81205588Y-53129462D01*
X81143066Y-52932944D01*
X81237311Y-52915924D01*
X81466372Y-53083559D01*
X81652084Y-53193275D01*
X81905267Y-53177640D01*
X82095583Y-53003760D01*
X82173925Y-52725592D01*
X82091184Y-52397091D01*
X81970383Y-52260477D01*
X81751580Y-52155179D01*
X81550938Y-52150916D01*
X81463039Y-52267241D01*
X81431183Y-52332511D01*
X81247549Y-52392364D01*
X81142892Y-52381929D01*
X81136123Y-52306972D01*
X81307409Y-52117014D01*
X81409174Y-52022317D01*
X81640198Y-51908816D01*
X81927320Y-51962839D01*
G37*
G36*
X112593679Y-63378177D02*
G01*
X112452738Y-63477674D01*
X112139002Y-63507607D01*
X111854460Y-63324367D01*
X111768196Y-63200344D01*
X111828046Y-63162456D01*
X112089385Y-63209186D01*
X112384835Y-63240660D01*
X112493581Y-63162897D01*
X112493550Y-63161167D01*
X112381724Y-63066938D01*
X112118211Y-63027832D01*
X111828069Y-62965518D01*
X111745023Y-62795725D01*
X111771393Y-62752354D01*
X112044456Y-62752354D01*
X112243334Y-62777586D01*
X112303557Y-62776673D01*
X112455072Y-62739494D01*
X112393482Y-62627438D01*
X112263453Y-62541716D01*
X112093187Y-62627438D01*
X112064445Y-62658006D01*
X112044456Y-62752354D01*
X111771393Y-62752354D01*
X111892990Y-62552364D01*
X111940469Y-62511702D01*
X112212638Y-62411269D01*
X112493288Y-62443100D01*
X112667879Y-62600135D01*
X112692032Y-62669373D01*
X112699190Y-62739494D01*
X112733316Y-63073777D01*
X112593679Y-63378177D01*
G37*
G36*
X126350970Y-95845602D02*
G01*
X126431557Y-95869770D01*
X126315784Y-95889968D01*
X126006881Y-95897727D01*
X125727271Y-95891746D01*
X125585167Y-95872878D01*
X125662793Y-95845602D01*
X125946809Y-95824656D01*
X126350970Y-95845602D01*
G37*
G36*
X48317785Y-86769482D02*
G01*
X48345553Y-86821601D01*
X48452013Y-87069362D01*
X48616252Y-87474839D01*
X48819499Y-87989297D01*
X49042980Y-88564000D01*
X49267925Y-89150211D01*
X49475560Y-89699193D01*
X49647112Y-90162212D01*
X49763810Y-90490530D01*
X49806881Y-90635412D01*
X49769790Y-90672295D01*
X49539922Y-90669380D01*
X49128435Y-90585380D01*
X48568380Y-90425885D01*
X48159807Y-90305598D01*
X47856192Y-90230894D01*
X47724453Y-90218307D01*
X47727915Y-90259721D01*
X47792593Y-90495617D01*
X47921705Y-90903014D01*
X48101872Y-91440379D01*
X48319713Y-92066177D01*
X48491105Y-92550581D01*
X48718468Y-93196580D01*
X48878345Y-93661958D01*
X48980627Y-93981426D01*
X49035204Y-94189697D01*
X49051967Y-94321481D01*
X49040806Y-94411490D01*
X49011612Y-94494435D01*
X49002011Y-94518359D01*
X48861180Y-94687836D01*
X48688024Y-94616694D01*
X48488821Y-94311007D01*
X48269848Y-93776847D01*
X48241665Y-93696545D01*
X48065480Y-93195284D01*
X47837889Y-92548601D01*
X47585210Y-91831249D01*
X47333760Y-91117980D01*
X47231679Y-90824232D01*
X47037559Y-90237379D01*
X46891209Y-89754841D01*
X46805419Y-89420165D01*
X46792980Y-89276895D01*
X46813834Y-89267205D01*
X47017982Y-89280748D01*
X47379915Y-89357854D01*
X47837966Y-89486174D01*
X47986972Y-89531147D01*
X48404616Y-89645002D01*
X48695938Y-89705625D01*
X48805201Y-89700658D01*
X48772381Y-89587221D01*
X48664647Y-89282153D01*
X48499708Y-88838689D01*
X48296036Y-88307372D01*
X48192428Y-88039509D01*
X48010981Y-87553378D01*
X47910675Y-87235104D01*
X47882699Y-87039616D01*
X47918237Y-86921841D01*
X48008478Y-86836707D01*
X48161476Y-86757950D01*
X48317785Y-86769482D01*
G37*
G36*
X106428294Y-62402219D02*
G01*
X106631379Y-62431953D01*
X106719050Y-62568008D01*
X106737916Y-62881855D01*
X106736652Y-62961596D01*
X106704990Y-63279390D01*
X106644073Y-63456765D01*
X106626320Y-63466590D01*
X106558385Y-63368711D01*
X106511397Y-63102249D01*
X106436932Y-62770354D01*
X106292432Y-62652463D01*
X106213097Y-62639593D01*
X106112300Y-62527340D01*
X106189963Y-62445048D01*
X106425108Y-62402217D01*
X106428294Y-62402219D01*
G37*
G36*
X70801754Y-52349359D02*
G01*
X70939877Y-52405785D01*
X71049786Y-52572513D01*
X71077817Y-52907450D01*
X71075173Y-53006739D01*
X71032000Y-53282564D01*
X70952694Y-53393350D01*
X70864375Y-53285057D01*
X70827571Y-53024198D01*
X70781148Y-52756610D01*
X70609648Y-52533090D01*
X70576274Y-52513465D01*
X70452788Y-52385145D01*
X70539402Y-52319488D01*
X70801754Y-52349359D01*
G37*
%TD*%
M02*
