%TF.GenerationSoftware,KiCad,Pcbnew,(6.0.7)*%
%TF.CreationDate,2023-07-07T11:40:33-04:00*%
%TF.ProjectId,small_wind_turbine,736d616c-6c5f-4776-996e-645f74757262,rev?*%
%TF.SameCoordinates,Original*%
%TF.FileFunction,Soldermask,Bot*%
%TF.FilePolarity,Negative*%
%FSLAX46Y46*%
G04 Gerber Fmt 4.6, Leading zero omitted, Abs format (unit mm)*
G04 Created by KiCad (PCBNEW (6.0.7)) date 2023-07-07 11:40:33*
%MOMM*%
%LPD*%
G01*
G04 APERTURE LIST*
%ADD10R,2.000000X1.905000*%
%ADD11O,2.000000X1.905000*%
%ADD12R,2.500000X2.500000*%
%ADD13O,2.500000X2.500000*%
%ADD14R,1.600000X1.600000*%
%ADD15C,1.600000*%
%ADD16C,2.032000*%
%ADD17R,1.700000X1.700000*%
%ADD18O,1.700000X1.700000*%
%ADD19R,2.550000X2.550000*%
%ADD20C,2.550000*%
%ADD21R,2.400000X2.400000*%
%ADD22C,2.400000*%
%ADD23C,3.500000*%
%ADD24C,2.250000*%
G04 APERTURE END LIST*
D10*
%TO.C,Qbuck1*%
X104395000Y-71065000D03*
D11*
X104395000Y-68525000D03*
X104395000Y-65985000D03*
%TD*%
D12*
%TO.C,K1*%
X106000000Y-45535000D03*
D13*
X108000000Y-39535000D03*
X120200000Y-39535000D03*
X120200000Y-51535000D03*
X108000000Y-51535000D03*
%TD*%
D14*
%TO.C,Cinput1*%
X112000000Y-58535000D03*
D15*
X114500000Y-58535000D03*
%TD*%
D16*
%TO.C,TP11*%
X63700000Y-89175000D03*
X63700000Y-92985000D03*
%TD*%
%TO.C,TP9*%
X50600000Y-72200000D03*
X50600000Y-68390000D03*
%TD*%
%TO.C,TP3*%
X88100000Y-89850000D03*
X88100000Y-93660000D03*
%TD*%
%TO.C,TP10*%
X84600000Y-89850000D03*
X84600000Y-93660000D03*
%TD*%
%TO.C,TP1*%
X68500000Y-34350000D03*
X64690000Y-34350000D03*
%TD*%
D17*
%TO.C,J4*%
X44875000Y-85000000D03*
D18*
X47415000Y-85000000D03*
X49955000Y-85000000D03*
%TD*%
D19*
%TO.C,Jbat1*%
X55500000Y-62000000D03*
X43500000Y-62000000D03*
D20*
X43500000Y-56920000D03*
X55500000Y-56920000D03*
%TD*%
D19*
%TO.C,Jgen1*%
X43400000Y-48680000D03*
X55400000Y-48680000D03*
D20*
X55400000Y-43600000D03*
X43400000Y-43600000D03*
X55400000Y-38520000D03*
X43400000Y-38520000D03*
%TD*%
D17*
%TO.C,J1*%
X57820000Y-85200000D03*
D18*
X60360000Y-85200000D03*
X62900000Y-85200000D03*
%TD*%
D17*
%TO.C,J2*%
X71200000Y-77000000D03*
D18*
X71200000Y-79540000D03*
X71200000Y-82080000D03*
%TD*%
D14*
%TO.C,Cbs1*%
X95800000Y-84747349D03*
D15*
X95800000Y-88247349D03*
%TD*%
D17*
%TO.C,J3*%
X54000000Y-84040000D03*
D18*
X54000000Y-81500000D03*
X54000000Y-78960000D03*
%TD*%
D21*
%TO.C,Cbuck1*%
X65000000Y-65323959D03*
D22*
X65000000Y-60323959D03*
%TD*%
D16*
%TO.C,TP8*%
X100900000Y-82100000D03*
X100900000Y-78290000D03*
%TD*%
D14*
%TO.C,A1*%
X88650000Y-97585000D03*
D15*
X86110000Y-97585000D03*
X83570000Y-97585000D03*
X81030000Y-97585000D03*
X78490000Y-97585000D03*
X75950000Y-97585000D03*
X73410000Y-97585000D03*
X70870000Y-97585000D03*
X68330000Y-97585000D03*
X65790000Y-97585000D03*
X63250000Y-97585000D03*
X60710000Y-97585000D03*
X58170000Y-97585000D03*
X55630000Y-97585000D03*
X53090000Y-97585000D03*
X50550000Y-97585000D03*
X50550000Y-117905000D03*
X53090000Y-117905000D03*
X55630000Y-117905000D03*
X58170000Y-117905000D03*
X60710000Y-117905000D03*
X63250000Y-117905000D03*
X65790000Y-117905000D03*
X68330000Y-117905000D03*
X70870000Y-117905000D03*
X73410000Y-117905000D03*
X75950000Y-117905000D03*
X78490000Y-117905000D03*
%TD*%
D16*
%TO.C,TP4*%
X118400000Y-60300000D03*
X118400000Y-56490000D03*
%TD*%
D19*
%TO.C,Jfuse1*%
X83920000Y-42000000D03*
D20*
X89000000Y-42000000D03*
X94080000Y-42000000D03*
%TD*%
D23*
%TO.C,SW1*%
X110450000Y-76225000D03*
X110450000Y-71525000D03*
X110450000Y-66825000D03*
%TD*%
D16*
%TO.C,TP2*%
X122900000Y-60325000D03*
X122900000Y-56515000D03*
%TD*%
D24*
%TO.C,F1*%
X78080000Y-42000000D03*
X99920000Y-42000000D03*
%TD*%
D19*
%TO.C,Jres1*%
X129200000Y-67100000D03*
X117200000Y-67100000D03*
D20*
X117200000Y-72180000D03*
X129200000Y-72180000D03*
%TD*%
D16*
%TO.C,TP6*%
X73400000Y-62525000D03*
X73400000Y-58715000D03*
%TD*%
M02*
