M48
; DRILL file {KiCad (6.0.7)} date Fri Jul  7 11:41:47 2023
; FORMAT={-:-/ absolute / metric / decimal}
; #@! TF.CreationDate,2023-07-07T11:41:47-04:00
; #@! TF.GenerationSoftware,Kicad,Pcbnew,(6.0.7)
; #@! TF.FileFunction,Plated,1,2,PTH
FMAT,2
METRIC
; #@! TA.AperFunction,Plated,PTH,ViaDrill
T1C0.330
; #@! TA.AperFunction,Plated,PTH,ComponentDrill
T2C0.800
; #@! TA.AperFunction,Plated,PTH,ComponentDrill
T3C1.000
; #@! TA.AperFunction,Plated,PTH,ViaDrill
T4C1.016
; #@! TA.AperFunction,Plated,PTH,ComponentDrill
T5C1.016
; #@! TA.AperFunction,Plated,PTH,ComponentDrill
T6C1.100
; #@! TA.AperFunction,Plated,PTH,ComponentDrill
T7C1.200
; #@! TA.AperFunction,Plated,PTH,ComponentDrill
T8C1.300
; #@! TA.AperFunction,Plated,PTH,ComponentDrill
T9C1.500
; #@! TA.AperFunction,Plated,PTH,ComponentDrill
T10C1.700
; #@! TA.AperFunction,Plated,PTH,ComponentDrill
T11C1.850
%
G90
G05
T1
X47.892Y-97.9
X47.9Y-93.5
X48.6Y-91.1
X48.6Y-98.6
X48.7Y-95.507
X49.1Y-94.0
X49.5Y-96.7
X55.5Y-80.5
X55.8Y-78.2
X56.7Y-95.5
X57.477Y-83.723
X57.7Y-68.0
X58.6Y-95.5
X59.7Y-83.7
X59.9Y-68.0
X63.9Y-109.6
X65.2Y-108.4
X65.2Y-110.9
X66.4Y-109.7
X66.4Y-112.2
X67.7Y-110.9
X67.7Y-113.5
X67.9Y-91.1
X68.1Y-75.1
X69.0Y-112.2
X69.3Y-92.5
X69.559Y-89.659
X69.7Y-86.4
X71.2Y-85.5
X72.1Y-85.5
X72.1Y-87.9
X72.2Y-89.6
X72.6Y-88.4
X72.8Y-92.9
X73.1Y-85.5
X107.3Y-34.9
X115.9Y-57.8
X116.2Y-63.1
X120.675Y-34.9
X121.0Y-63.1
X124.5Y-66.392
X124.5Y-67.807
X124.5Y-71.472
X124.5Y-72.9
X125.2Y-78.1
X125.2Y-81.1
X125.2Y-84.1
X129.5Y-60.3
T2
X50.55Y-97.585
X50.55Y-117.905
X53.09Y-97.585
X53.09Y-117.905
X55.63Y-97.585
X55.63Y-117.905
X58.17Y-97.585
X58.17Y-117.905
X60.71Y-97.585
X60.71Y-117.905
X63.25Y-97.585
X63.25Y-117.905
X65.79Y-97.585
X65.79Y-117.905
X68.33Y-97.585
X68.33Y-117.905
X70.87Y-97.585
X70.87Y-117.905
X73.41Y-97.585
X73.41Y-117.905
X75.95Y-97.585
X75.95Y-117.905
X78.49Y-97.585
X78.49Y-117.905
X81.03Y-97.585
X83.57Y-97.585
X86.11Y-97.585
X88.65Y-97.585
X95.8Y-84.747
X95.8Y-88.247
X112.0Y-58.535
X114.5Y-58.535
T3
X44.875Y-85.0
X47.415Y-85.0
X49.955Y-85.0
X54.0Y-78.96
X54.0Y-81.5
X54.0Y-84.04
X57.82Y-85.2
X60.36Y-85.2
X62.9Y-85.2
X71.2Y-77.0
X71.2Y-79.54
X71.2Y-82.08
T4
X47.8Y-66.9
X51.5Y-90.1
X54.697Y-65.5
X55.1Y-76.0
X55.1Y-86.4
X56.4Y-72.5
X57.2Y-65.6
X57.5Y-40.7
X57.5Y-51.9
X57.6Y-45.2
X61.2Y-69.1
X61.384Y-79.188
X63.2Y-70.9
X65.126Y-83.9
X68.0Y-79.2
X69.5Y-75.6
X71.5Y-72.7
X76.097Y-78.197
X77.819Y-76.481
X85.899Y-83.917
X87.7Y-77.6
X91.6Y-83.2
X106.5Y-69.74
X107.8Y-56.1
X129.5Y-58.2
T5
X50.6Y-68.39
X50.6Y-72.2
X63.7Y-89.175
X63.7Y-92.985
X64.69Y-34.35
X68.5Y-34.35
X73.4Y-58.715
X73.4Y-62.525
X84.6Y-89.85
X84.6Y-93.66
X88.1Y-89.85
X88.1Y-93.66
X100.9Y-78.29
X100.9Y-82.1
X118.4Y-56.49
X118.4Y-60.3
X122.9Y-56.515
X122.9Y-60.325
T6
X104.395Y-65.985
X104.395Y-68.525
X104.395Y-71.065
T7
X65.0Y-60.324
X65.0Y-65.324
T8
X106.0Y-45.535
X108.0Y-39.535
X108.0Y-51.535
X120.2Y-39.535
X120.2Y-51.535
T9
X78.08Y-42.0
X99.92Y-42.0
T10
X43.4Y-38.52
X43.4Y-43.6
X43.4Y-48.68
X43.5Y-56.92
X43.5Y-62.0
X55.4Y-38.52
X55.4Y-43.6
X55.4Y-48.68
X55.5Y-56.92
X55.5Y-62.0
X83.92Y-42.0
X89.0Y-42.0
X94.08Y-42.0
X117.2Y-67.1
X117.2Y-72.18
X129.2Y-67.1
X129.2Y-72.18
T11
X110.45Y-66.825
X110.45Y-71.525
X110.45Y-76.225
T0
M30
